<svg width="500" height="224" viewBox="0 0 500 224" fill="none" xmlns="http://www.w3.org/2000/svg">
<g clip-path="url(#clip0_907_7107)">
<path d="M197.655 181.299C197.655 182.064 197.329 182.83 196.785 183.267C196.242 183.814 195.59 184.142 194.72 184.142C187.004 184.47 179.288 184.689 171.572 184.689C163.855 184.689 156.139 184.47 148.423 184.142C147.662 184.142 146.902 183.814 146.358 183.267C145.815 182.72 145.489 182.064 145.489 181.299C144.837 169.049 144.837 156.691 145.489 144.442C145.489 143.676 145.815 142.911 146.358 142.473C146.902 141.926 147.662 141.598 148.423 141.598C156.139 141.27 163.855 141.051 171.572 141.051C179.288 141.051 187.004 141.27 194.72 141.598C195.481 141.598 196.242 141.926 196.785 142.473C197.329 143.02 197.655 143.676 197.655 144.442C197.763 145.973 197.763 147.613 197.872 149.254H204.284C204.175 147.613 204.175 145.863 204.067 144.223C203.849 139.301 199.937 135.474 195.046 135.145C187.222 134.817 179.397 134.599 171.68 134.599C163.964 134.599 156.031 134.817 148.206 135.145C143.315 135.364 139.403 139.301 139.185 144.223C138.533 156.691 138.533 169.159 139.185 181.627C139.403 186.548 143.315 190.376 148.206 190.704C156.031 191.032 163.855 191.251 171.68 191.251C179.505 191.251 187.33 191.032 195.046 190.704C199.937 190.485 203.849 186.548 204.067 181.627C204.175 179.986 204.175 178.236 204.284 176.596H197.872C197.872 178.127 197.763 179.767 197.655 181.299ZM271.448 135.583V159.644H220.477V135.583H214.065V190.157H220.477V166.096H271.448V190.157H277.86V135.583H271.448ZM425.663 157.566C426.207 156.472 426.533 155.16 426.642 153.847V144.77C426.424 139.848 422.512 135.911 417.621 135.692H366.868V190.267H421.642C426.533 190.048 430.337 186.111 430.663 181.189V165.44C430.445 162.05 428.489 159.097 425.663 157.566ZM373.28 142.036H417.404C418.165 142.036 418.925 142.364 419.36 142.911C419.903 143.457 420.23 144.114 420.23 144.879V153.41C420.23 154.175 419.903 154.941 419.36 155.488C418.817 156.035 418.165 156.363 417.404 156.363H373.28V142.036ZM424.251 180.861C424.251 181.627 423.925 182.392 423.381 182.939C422.838 183.486 422.077 183.814 421.316 183.814H373.171V162.925L421.316 162.815C422.077 162.815 422.838 163.144 423.273 163.69C423.816 164.237 424.142 165.003 424.142 165.768L424.251 180.861ZM475.112 135.692H461.093L436.205 190.267H443.269L448.595 178.455H487.611L492.936 190.267H500L475.112 135.692ZM451.529 172.002L465.223 142.036H471.091L484.785 172.002H451.529Z" fill="#8190AA"/>
<path d="M116.526 177.799V21.0095L115.439 21.3376L46.102 43.5392V35.5553L113.048 14.0099C113.592 13.7912 114.57 13.4631 115.439 13.2444C118.7 12.1507 120.221 11.6038 122.395 13.2444C124.351 14.7755 124.242 16.416 124.134 19.5877C124.134 20.2439 124.025 21.0095 124.025 22.65V177.799C124.025 183.923 123.047 187.204 120.004 189.392C117.287 191.251 113.7 191.47 107.832 191.47H46.102V183.814H107.94C112.288 183.814 114.896 183.705 115.765 183.158C116.309 182.72 116.526 181.189 116.526 177.799ZM27.3005 49.5544L10.5639 54.9134C7.62961 55.8977 7.62961 56.3352 7.62961 58.8506V61.1473V178.455C7.62961 179.221 7.62961 179.986 7.73829 180.752C7.73829 183.048 7.84697 183.814 10.7813 183.814H27.4092V191.47H10.6726C0.239432 191.47 0.239434 188.626 0.130754 180.861C0.130754 180.205 0.130754 179.658 0.0220754 178.783V61.1473V58.96C-0.0866037 51.8511 -0.0866035 50.32 8.28169 47.5858L27.3005 41.4612V49.5544ZM117.504 19.2596L117.396 18.9315C117.178 18.8221 117.287 19.0408 117.504 19.2596Z" fill="#8190AA"/>
<path fill-rule="evenodd" clip-rule="evenodd" d="M59.3401 100.06V92.0765L41.8428 86.28V0H31.7356V69.5468H14.2383L14.347 77.4213L31.7356 83.3271V96.0137H14.2383L14.347 103.888L31.7356 109.685V122.371H14.2383L14.347 130.246L31.7356 136.042V148.729H14.2383L14.347 156.603L31.7356 162.509V223.077H41.8428V152.775H59.3401V144.901L41.8428 139.105V126.418H59.3401V118.543L41.8428 112.638V100.06H59.3401Z" fill="#8190AA"/>
<path d="M354.912 144.223C354.694 139.301 350.782 135.474 345.891 135.145C338.066 134.817 330.241 134.599 322.525 134.599C314.809 134.599 306.875 134.817 299.051 135.145C294.16 135.364 290.247 139.301 290.03 144.223C289.921 147.067 289.813 149.801 289.704 152.644C292.095 150.238 300.137 149.035 306.549 150.676C308.506 151.222 310.897 151.332 310.897 151.332C310.897 151.332 311.657 148.16 313.396 146.52C315.135 144.879 315.352 144.551 316.548 144.442C317.743 144.332 319.917 144.551 321.112 146.41C322.308 148.27 322.199 149.035 322.525 149.473C322.851 149.91 322.96 150.238 324.59 150.566C326.329 150.894 330.893 152.426 331.98 152.863C333.067 153.3 333.502 153.41 333.61 153.847C333.828 154.285 333.393 154.941 333.393 155.488C333.284 156.035 333.393 157.128 334.045 157.347C334.697 157.456 341.761 159.206 342.413 159.425C343.066 159.534 343.5 159.644 343.5 159.644C343.5 159.644 343.718 159.863 343.826 160.3C343.935 160.737 343.174 163.69 342.413 165.44C341.653 167.081 340.783 168.721 340.457 168.94C340.131 169.159 338.827 169.049 338.392 169.049C337.958 169.049 330.241 170.362 327.416 171.237C324.59 172.112 322.96 174.19 315.896 179.002C310.353 182.83 305.571 186.111 302.311 190.595C309.049 190.814 315.787 191.032 322.634 191.032C330.459 191.032 338.284 190.814 346 190.485C350.89 190.267 354.803 186.329 355.02 181.408C355.564 169.268 355.564 156.8 354.912 144.223Z" fill="#8190AA"/>
<path d="M231.041 110.614C230.182 110.111 229.139 109.838 228.019 109.838C226.737 109.838 225.607 110.122 224.65 110.669C223.661 111.249 222.89 112.036 222.368 113.02C221.814 114.027 221.542 115.142 221.542 116.433C221.542 117.658 221.835 118.795 222.401 119.823C222.966 120.84 223.759 121.639 224.77 122.207C225.791 122.776 226.932 123.071 228.161 123.071C229.215 123.071 230.128 122.885 230.932 122.503C231.736 122.153 232.475 121.639 233.116 120.961L233.192 120.873L232.149 119.889L232.073 119.976C231.106 121.037 229.812 121.573 228.237 121.573C227.248 121.573 226.422 121.387 225.704 121.004C224.955 120.6 224.368 120.053 223.922 119.353C223.498 118.686 223.259 117.909 223.194 116.991H233.779V116.881C233.801 116.651 233.812 116.476 233.823 116.356C233.823 116.236 233.844 116.159 233.844 116.116C233.844 114.836 233.605 113.764 233.105 112.813C232.606 111.872 231.932 111.15 231.03 110.603L231.041 110.614ZM223.27 115.656C223.4 114.377 223.879 113.36 224.737 112.561C225.574 111.752 226.683 111.336 228.019 111.336H228.052C229.269 111.336 230.28 111.73 231.051 112.496C231.823 113.272 232.247 114.3 232.345 115.656H223.281H223.27Z" fill="#8190AA"/>
<path d="M236.933 117.953C236.9 119.364 236.759 120.294 236.476 120.829C236.237 121.333 235.813 121.584 235.183 121.584H235.063V122.875H235.183C235.933 122.875 236.531 122.732 237.041 122.448C237.498 122.175 237.867 121.683 238.139 120.993C238.389 120.348 238.519 119.43 238.552 118.117L238.693 111.391H244.877V122.875H246.355V122.754H246.442V110.079H237.096L236.922 117.964L236.933 117.953Z" fill="#8190AA"/>
<path d="M151.063 111.533H155.65V122.875H157.215V111.533H161.801V110.079H151.063V111.533Z" fill="#8190AA"/>
<path d="M148.999 120.042C148.499 120.578 147.934 120.982 147.325 121.245C146.749 121.496 146.097 121.617 145.336 121.617C144.358 121.617 143.511 121.409 142.75 120.993C142 120.578 141.402 119.965 140.968 119.167C140.544 118.39 140.315 117.461 140.315 116.476C140.315 115.492 140.544 114.562 140.968 113.786C141.381 113.009 141.967 112.397 142.728 111.959C143.456 111.533 144.293 111.336 145.282 111.336C146.738 111.336 147.977 111.85 148.977 112.845L149.053 112.922L150.184 111.959L150.107 111.872C149.499 111.205 148.771 110.691 147.945 110.352C147.141 110.024 146.239 109.849 145.347 109.849C144.108 109.849 142.967 110.144 141.957 110.713C140.891 111.325 140.109 112.102 139.566 113.097C139 114.125 138.707 115.273 138.707 116.509C138.707 117.745 139 118.904 139.566 119.921C140.109 120.906 140.913 121.693 141.935 122.273C142.913 122.82 144.054 123.104 145.304 123.104H145.358C146.304 123.104 147.195 122.929 148.021 122.568C148.836 122.218 149.542 121.715 150.173 121.048L150.26 120.96L149.097 119.965L149.021 120.042H148.999Z" fill="#8190AA"/>
<path d="M209.871 111.533H214.457V122.875H216.033V111.533H220.619V110.079H209.871V111.533Z" fill="#8190AA"/>
<path d="M174.375 110.702C173.397 110.122 172.375 109.838 171.234 109.838H171.115V109.893C169.974 109.904 168.985 110.166 168.093 110.669C167.278 111.128 166.604 111.752 166.094 112.528V110.133H164.496V126.932H166.094V120.512C166.594 121.289 167.246 121.89 168.072 122.36C169.028 122.874 170.093 123.137 171.234 123.137C172.375 123.137 173.473 122.853 174.397 122.306C175.364 121.726 176.092 120.961 176.614 119.954C177.146 118.948 177.407 117.789 177.407 116.509C177.407 115.23 177.125 114.136 176.581 113.097C176.049 112.069 175.299 111.271 174.364 110.713L174.375 110.702ZM175.82 116.444C175.82 117.472 175.614 118.347 175.19 119.112C174.799 119.9 174.245 120.501 173.495 120.939C172.777 121.376 171.941 121.595 171.028 121.595H170.995C170.082 121.595 169.224 121.376 168.441 120.939C167.68 120.468 167.094 119.856 166.681 119.112C166.257 118.347 166.061 117.483 166.061 116.455C166.061 115.427 166.268 114.541 166.681 113.797C167.137 112.977 167.713 112.375 168.43 111.971C169.213 111.533 170.071 111.314 170.984 111.314C171.897 111.314 172.723 111.533 173.484 111.971C174.201 112.408 174.788 113.031 175.179 113.797C175.603 114.563 175.799 115.427 175.799 116.455L175.82 116.444Z" fill="#8190AA"/>
<path d="M189.723 110.647C188.658 110.068 187.538 109.783 186.299 109.783C185.06 109.783 183.919 110.078 182.898 110.647C181.854 111.271 181.083 112.047 180.528 113.031C179.963 114.059 179.67 115.208 179.67 116.444C179.67 117.68 179.963 118.806 180.528 119.834C181.094 120.851 181.887 121.65 182.898 122.218C183.919 122.787 185.06 123.082 186.288 123.082H186.408V123.049C187.614 123.028 188.734 122.743 189.712 122.185C190.733 121.628 191.538 120.829 192.114 119.801C192.679 118.773 192.972 117.636 192.972 116.411C192.972 115.186 192.679 114.049 192.114 113.02C191.516 112.003 190.712 111.194 189.712 110.636L189.723 110.647ZM186.441 121.584V121.551H186.321C185.397 121.551 184.506 121.321 183.735 120.895C182.974 120.479 182.365 119.867 181.92 119.069C181.485 118.281 181.267 117.384 181.267 116.411C181.267 115.438 181.485 114.541 181.92 113.753C182.343 112.966 182.919 112.364 183.702 111.927C184.495 111.489 185.343 111.271 186.288 111.271C187.234 111.271 188.114 111.489 188.897 111.927C189.679 112.397 190.266 112.988 190.679 113.753C191.114 114.584 191.331 115.459 191.331 116.444C191.331 117.428 191.114 118.314 190.679 119.101C190.255 119.889 189.679 120.49 188.897 120.928C188.136 121.354 187.332 121.562 186.43 121.584H186.441Z" fill="#8190AA"/>
<path d="M197.361 120.239V110.079H195.796V122.875H197.067L205.577 112.616V122.875H207.175V110.079H205.838L197.361 120.239Z" fill="#8190AA"/>
<path d="M273.362 115.624H265.352V110.079H263.755V122.896H265.352V117.111H273.362V122.896H274.96V110.079H273.362V115.624Z" fill="#8190AA"/>
<path d="M259.21 115.361C258.243 114.628 256.939 114.246 255.308 114.224V114.191H251.852V110.046H250.255V122.842H255.222C256.906 122.842 258.254 122.459 259.243 121.704C260.221 120.961 260.71 119.9 260.71 118.544C260.71 117.188 260.21 116.138 259.21 115.35V115.361ZM251.852 115.602H255.156C256.428 115.602 257.373 115.864 258.08 116.4C258.775 116.925 259.112 117.647 259.112 118.587C259.112 119.528 258.764 120.25 258.08 120.742C257.406 121.278 256.46 121.54 255.189 121.54H251.852V115.613V115.602Z" fill="#8190AA"/>
<path d="M356.902 122.897H358.5V111.413H366.51V122.897H368.107V110.101H356.902V122.897Z" fill="#8190AA"/>
<path d="M376.343 109.871L376.311 109.838H376.267C375.333 109.838 374.485 109.969 373.681 110.253C372.833 110.516 372.051 110.942 371.377 111.5L371.29 111.566L372.116 112.78L372.214 112.692C372.746 112.244 373.366 111.894 374.061 111.664C374.757 111.435 375.43 111.325 376.148 111.325C377.365 111.325 378.321 111.632 378.973 112.222C379.615 112.835 379.93 113.71 379.93 114.88V115.383C378.647 115.197 377.256 115.109 375.691 115.109C374.126 115.109 372.822 115.47 371.985 116.192C371.148 116.914 370.725 117.909 370.725 119.145C370.725 120.381 371.116 121.289 371.92 122.01C372.735 122.743 373.789 123.093 375.159 123.093C376.322 123.093 377.354 122.787 378.245 122.196C378.984 121.704 379.571 121.136 379.984 120.501V122.885H381.549V114.88C381.549 113.239 381.114 112.025 380.212 111.139C379.332 110.275 378.06 109.86 376.343 109.849V109.871ZM379.951 116.837V117.636C379.897 118.259 379.669 118.883 379.278 119.517C378.876 120.162 378.365 120.665 377.724 121.059C377.071 121.464 376.365 121.661 375.583 121.661H375.539L375.506 121.693C374.463 121.693 373.648 121.464 373.105 121.015C372.55 120.567 372.279 119.954 372.279 119.145C372.279 118.336 372.572 117.69 373.159 117.253C373.778 116.794 374.713 116.575 375.996 116.575C377.419 116.575 378.723 116.662 379.973 116.848L379.951 116.837Z" fill="#8190AA"/>
<path d="M401.437 120.239V110.079H399.872V122.875H401.144L409.653 112.616V122.875H411.251V110.079H409.914L401.437 120.239Z" fill="#8190AA"/>
<path d="M419.373 110.046C417.808 110.046 416.569 110.396 415.612 111.117C414.656 111.839 414.178 112.834 414.178 114.07C414.178 115.219 414.536 116.126 415.286 116.837C415.993 117.515 416.938 117.953 418.09 118.128L413.591 122.863H415.504L419.949 118.248H423.089V122.863H424.654V110.035H419.373V110.046ZM423.089 111.566V116.761H419.34C418.275 116.761 417.395 116.542 416.732 116.105C416.09 115.656 415.764 115.011 415.764 114.191C415.764 113.37 416.08 112.681 416.699 112.244C417.34 111.795 418.221 111.566 419.307 111.566H423.079H423.089Z" fill="#8190AA"/>
<path d="M394.699 115.624H386.689V110.079H385.092V122.896H386.689V117.111H394.699V122.896H396.297V110.079H394.699V115.624Z" fill="#8190AA"/>
<path d="M292.564 111.117C291.607 111.839 291.118 112.834 291.118 114.07C291.118 115.219 291.477 116.126 292.227 116.837C292.933 117.515 293.879 117.953 295.031 118.128L290.531 122.863H292.444L296.889 118.248H300.03V122.863H301.595V110.035H296.313C294.748 110.035 293.52 110.385 292.553 111.106L292.564 111.117ZM293.661 112.244C294.302 111.795 295.183 111.566 296.27 111.566H300.041V116.761H296.291C295.226 116.761 294.346 116.542 293.683 116.105C293.042 115.656 292.716 115.011 292.716 114.191C292.716 113.37 293.031 112.681 293.65 112.244H293.661Z" fill="#8190AA"/>
<path d="M283.217 109.838L283.185 109.805H283.141C282.207 109.805 281.359 109.936 280.555 110.221C279.707 110.483 278.925 110.91 278.251 111.468L278.164 111.533L278.99 112.747L279.088 112.66C279.62 112.211 280.24 111.861 280.935 111.632C281.631 111.402 282.304 111.282 283.022 111.282C284.239 111.282 285.195 111.588 285.847 112.189C286.489 112.802 286.804 113.677 286.804 114.847V115.35C285.521 115.164 284.13 115.077 282.565 115.077C281 115.077 279.696 115.438 278.859 116.159C278.022 116.881 277.599 117.877 277.599 119.112C277.599 120.348 277.99 121.256 278.794 121.978C279.609 122.711 280.663 123.061 282.033 123.061C283.196 123.061 284.228 122.754 285.119 122.164C285.858 121.661 286.445 121.103 286.858 120.469V122.853H288.423V114.847C288.423 113.207 287.988 111.993 287.086 111.107C286.206 110.243 284.934 109.827 283.217 109.816V109.838ZM286.826 117.603C286.771 118.226 286.543 118.85 286.152 119.484C285.75 120.129 285.239 120.633 284.598 121.026C283.945 121.431 283.239 121.628 282.457 121.628H282.413L282.381 121.661C281.337 121.661 280.522 121.431 279.979 120.983C279.424 120.534 279.153 119.922 279.153 119.112C279.153 118.303 279.446 117.658 280.033 117.22C280.653 116.761 281.587 116.542 282.87 116.542C284.293 116.542 285.597 116.63 286.847 116.816V117.614L286.826 117.603Z" fill="#8190AA"/>
<path d="M317.604 116.444L322.397 110.265L322.538 110.079H320.712L316.387 115.799H313.648V110.079H312.062V122.896H313.648V117.231H316.387L321.028 122.853L321.06 122.896H322.571L322.766 123.137V122.667H322.679L317.604 116.444Z" fill="#8190AA"/>
<path d="M333.275 110.669C332.21 110.09 331.091 109.805 329.852 109.805C328.613 109.805 327.472 110.1 326.45 110.669C325.407 111.293 324.635 112.069 324.081 113.053C323.505 114.092 323.223 115.208 323.223 116.466C323.223 117.723 323.516 118.828 324.081 119.856C324.646 120.873 325.44 121.672 326.45 122.24C327.472 122.809 328.613 123.104 329.841 123.104L329.961 123.071C331.167 123.05 332.286 122.765 333.265 122.207C334.286 121.65 335.09 120.851 335.666 119.823C336.232 118.795 336.525 117.658 336.525 116.433C336.525 115.208 336.232 114.071 335.666 113.042C335.069 112.025 334.264 111.216 333.265 110.658L333.275 110.669ZM329.885 121.584C328.961 121.584 328.07 121.354 327.298 120.928C326.537 120.523 325.929 119.9 325.483 119.101C325.048 118.314 324.831 117.417 324.831 116.444C324.831 115.47 325.048 114.563 325.483 113.786C325.907 112.999 326.483 112.397 327.266 111.96C328.059 111.522 328.907 111.304 329.852 111.304C330.798 111.304 331.678 111.522 332.46 111.96C333.243 112.43 333.83 113.021 334.243 113.786C334.688 114.617 334.895 115.492 334.895 116.477C334.895 117.461 334.677 118.347 334.243 119.134C333.819 119.922 333.243 120.523 332.46 120.961C331.7 121.387 330.895 121.595 329.993 121.617V121.584H329.874H329.885Z" fill="#8190AA"/>
<path d="M346.369 117.887L341.119 110.122L341.087 110.079H339.576V122.896H341.174V112.9L346.064 120.097L346.097 120.151H346.629L351.563 112.9V122.896H353.161V110.079H351.65L346.369 117.887Z" fill="#8190AA"/>
</g>
<defs>
<clipPath id="clip0_907_7107">
<rect width="500" height="223.077" fill="#8190AA"/>
</clipPath>
</defs>
</svg>
