<svg width="882" height="1107" viewBox="0 0 882 1107" fill="none" xmlns="http://www.w3.org/2000/svg">
<path d="M630.52 506.561L636.759 519.045L641.048 533.479L662 528L671.5 542.5L703 538.5L730.345 565.47H738.534V581.795L735.804 582.635L739.314 626.72H726.446L714.747 643.105L739.314 657.15L760.371 677.436L761.931 693.041L730.735 696.943L714.747 706.696L700.32 696.943H676.143L671.074 708.646L706.169 744.928L720.207 737.126L739.314 746.879L764.27 796.035L767 833.487L751.012 860.796L730.735 864.307V878.742H725.276L714.747 868.209H657.036L676.143 878.742L679.263 885.764L671.074 895.908L676.143 916.584L695.64 923.607V943.503H671.074L657.036 963.4L659.375 991.879L645.337 995L613.752 973.933L594.255 981.346L584.896 961.059L571.638 950.135L569.298 936.481L554.48 914.244L551.751 892.787L538.883 882.643L525.625 876.401L512.366 858.846L501.058 864.307L508.467 838.559L512.366 803.838L532.254 781.21L518.606 774.188L512.366 781.21L501.058 774.188H489.36L445.686 686.799L430.088 681.338L419.95 691.091L418 675.876L425.799 654.419V652.668L426.5 652L455.435 622.818L467.913 611.895V606.043L487.02 604.092L489.75 592.779L500.278 604.092H505.347L511.587 592.779V586.146H514.706L519.385 591.608L551.751 568.201V560.788L559.94 556.107L566.179 565.47L576.707 558.838L571.638 550.645L589.965 538.941H598.934L602.444 514.753L609.073 505L630.52 506.561Z" fill="#AFD0EC" stroke="white" stroke-width="2"/>
<path d="M390.543 123.552V143.484L370.405 174.358L376.988 193.899L363.434 200.543L325.48 223.601L323.156 254.475L328.578 276.361L346.393 278.315L376.988 254.475L409.082 272.424L413.006 285.74L421.526 298.246L431.595 337.719L437.792 366.639L444.376 380.709L458.705 384.617L466.064 391.651V429.17L462.5 433L431.5 433.5L434.694 474.504L458.5 477L468 492L463 500L449 493L433 526H425.5L421.913 530L407.971 526.873V514.758L397 514L333 505.5L336 468L331 466.5V459L327.416 451.837L304.566 433.078L280.168 444.411V435.032H267V415.1L280.168 411.583L298.37 399.468L294.497 388.525L283.266 392.824L288.301 385.789L287.139 376.41L270.873 354.524L275.52 349.443L298.37 351.397L314.249 360.386H323.156L338.26 335.765H355.301L360.723 345.144L368.855 342.018C368.597 336.546 367.926 325.604 367.306 325.604C366.687 325.604 359.044 321.956 355.301 320.132V309.189L360.723 300.201L349.879 292.775H332.064L321.607 303.327L320.058 312.707L315.41 302.155L318.509 291.993L308.439 284.568L303.017 298.246L301.468 303.327L295.659 307.235V298.246L305.341 282.614L303.017 274.407L293.723 272.453L286.364 265.027V233.371L308.439 200.543L338.26 186.473L340.584 179.439L327.416 170.841L364.983 149.737L368.855 139.185H350.653V125.897L358.399 117.69L376.988 113L390.543 123.552Z" fill="#79A0C1" stroke="white" stroke-width="2"/>
<path d="M331 459L330.864 466.214L336 468L333.203 505.223L367.898 509.514L397.136 513.805L408 514.5V527L422 530L425.593 525.898H433L431.051 534.09L425.593 539.161V546.573L438.068 548.913V573.099L425.593 586.362L438.068 601.966H444.305L456 622.251L425.789 652.833L411.559 628.102L365.559 648.387H349.186L322.678 672.573H310.983L254.068 703V695.588L243.153 675.303L249 662.82L223.271 614.059L150.373 577L112.949 552.034L111 515.755L135.949 525.508L223.271 545.012L275.119 553.204V531.749L327.5 452L331 459Z" fill="#9FBDD6" stroke="white" stroke-width="2"/>
<path d="M501.014 224.169L524.74 262.682L571.025 282.911L562.857 330.761V354.491H597.474L630.146 360.326L651.538 380.166H728.55L730.884 398.061L726.606 410.121V427.627L707.936 439.297L714.937 496.483L711.436 505.042L726.606 510.877L730.884 523.326L749.554 557.948L762 559.115L751.109 577.399L739.408 581L738.663 580.9V564.951H730.495L702.88 538.497L671.375 542.777L662.04 528.383L641 533.5L636.5 518.5L630 507L609.5 505.5L603.5 514.5L599 539H590.5L572.192 550.168L577.249 558.337L566 565.5L525.129 503.486L536.02 493.371L507.627 450.19L491.68 460.304L499.848 473.531L468 492L458.5 477L434.5 474.5L431.5 433.462L462.5 433L466 429V391.5L458.5 385L444.5 381L437 366.5L421.5 298.5L412.5 285.5L409.5 273.5V273L438.393 262.682L449.673 216H474.566L501.014 224.169Z" fill="#5C89AE" stroke="white" stroke-width="2"/>
<path d="M535.696 493.564L524.779 503.702L560.188 555.989L552.072 560.628V568.036L519.71 591.431L515.031 585.972H511.912V592.601L505.674 603.907H500.604L490.077 592.601L487.348 603.907L468.243 605.857V611.706L455.766 622.623L444.068 602.349H437.83L425.354 586.752L437.83 573.495V549.321L425.5 546.5V539L430.812 534.505L432.762 526.317L449 493L462.784 499.804L468 492L499.436 473.68L491.247 460.423L507.233 450.285L535.696 493.564Z" fill="#48779E" stroke="white" stroke-width="2"/>
</svg>
