<svg width="882" height="1107" viewBox="0 0 882 1107" fill="none" xmlns="http://www.w3.org/2000/svg">
<path d="M206.829 468.2V475.786L248.972 484.214H336.629L356.857 501.914L405.743 532.257L427.657 519.614L413.329 506.129V497.7L401.529 490.114L397.315 475.786L409.957 457.243L394.786 442.914L384.672 421.843L391.415 418.471L377.086 409.2L291.115 284.457L188.286 322.386L181.543 314.8L163 317.329L181.543 259.171H166.372V250.743L146.143 244L125.915 267.6L111.586 322.386L120.857 344.3V390.657L134.343 418.471L206.829 468.2Z" fill="#5C89AE" stroke="white" stroke-width="2"/>
<path d="M194.186 485.9H207.671V475.953L248.971 484.214H336.629L356.857 501.914L405.743 532.257L406.329 531.918L448.729 571.871L456.314 608.957L448.729 626.657L423.443 650.257L385.514 696.614L382.143 746.342L373.714 762.357H361.071L366.129 742.128H354.329L349.271 733.7L288.586 731.171L281.843 716.842L276.786 696.614L260.771 654.471L248.129 652.785L229.586 644.357L179.014 641.828L175.643 644.357L141.929 639.3L45 634.242V623.285H78.7143L82.0857 599.685H108.214V610.642L120.014 613.171L121.7 608.957H126.757L135.186 604.742L136.871 596.314H141.929V608.957L164.686 610.642L165.529 630.871L248.129 635.928L255.714 630.871L260.771 637.614L266.671 630.871L269.2 623.285L273.414 617.385L262.457 613.171V604.742L175.643 566.814H158.786L157.1 571.871L151.2 569.342L140.243 563.442L131.814 555.857L130.971 548.271L125.071 543.214L136.871 517.928L140.243 516.242L153.729 501.071L171.429 504.442L173.114 485.057L168.057 478.314V474.942L194.186 485.9Z" fill="#B6CFE2" stroke="white" stroke-width="2"/>
<path d="M696.529 376.329L659.443 403.3H672.086V410.043L692.314 429.429L710.014 447.972L720.972 464.829L718.443 474.1L711.7 469.043H700.743L683.043 474.1L674.614 475.786V484.214H659.443V490.957L676.3 500.229V503.6H661.972L674.614 513.714H683.043L704.114 507.814L725.186 506.972L728.557 513.714V525.514L735.3 531.414L748.786 533.943H758.9L748.786 543.214L742.043 538.157L702.429 561.757L680.514 565.972L676.3 569.343H622.357L619.829 565.972L637.529 549.114L632.472 537.314L616.457 549.114L584.429 550.8L581.9 555.014H577.686L569.257 547.429L564.2 549.114L554.929 563.443L514.472 565.972L499.3 569.343L488.343 570.186V592.1H484.129L482.443 614.857L465.586 614.014L456.291 609.01L456.314 608.957L448.729 571.872L406.329 531.918L427.657 519.614L413.329 506.129V497.7L401.529 490.114L397.314 475.786L409.615 457.743L419.229 467.357L455.472 433.643V429.429H462.214L471.486 420.157L481.6 418.472L512.786 403.3L521.214 396.557H527.957L533.014 401.614H535.543V396.557L554.086 410.043L545.657 420.157L577.686 443.757H600.443L641.743 410.043L628.257 401.614L638.372 385.6H654.386L678.829 370.429L696.529 376.329Z" fill="#9FBDD6" stroke="white" stroke-width="2"/>
<path d="M793.458 543.215L771.543 555.015L793.458 577.772V601.372H802.729L805.258 627.5L774.915 630.872L722.658 639.3H688.943L529.643 663.743L498.458 623.286H482.443V614.857L484.129 592.1H488.343V570.186L499.301 569.343L514.472 565.972L554.929 563.443L564.201 549.115L569.258 547.429L577.686 555.015H581.901L584.429 550.8L616.458 549.115L632.472 537.315L637.529 549.115L619.829 565.972L622.358 569.343H676.301L680.515 565.972L702.429 561.757L742.043 538.157L748.786 543.215L758.668 534.154L774.915 526.357L793.458 543.215Z" fill="#AFD0EC" stroke="white" stroke-width="2"/>
<path d="M465.586 614.014L482.443 614.857V623.286H498.458L529.643 663.743L688.943 639.3H715.41L710.015 644.357L692.315 647.729L688.101 653.629H671.243V667.957L676.301 683.971H653.543L671.243 712.629L656.915 720.214H633.315L628.258 727.8L676.301 747.186L784.186 756.457L800.201 739.6L822.958 753.086L831.386 761.514H836.443V791.857L822.958 783.429L820.429 791.857L777.443 848.329L759.743 857.6L710.015 827.257L662.815 807.029L610.558 785.114L594.543 783.429L582.743 778.371L560.829 764.043L536.386 783.429L521.215 791.857L543.972 825.571H533.858L521.215 843.271H513.629L502.672 855.071H494.243L486.658 860.129H449.572L444.515 863.5H429.343L411.643 860.129L394.786 844.957L385.515 840.743L367.815 821.357L366.972 795.229L363.601 791.857V776.686L373.154 762.357H373.715L382.143 746.343L385.515 696.614L423.443 650.257L448.729 626.657L456.292 609.01L465.586 614.014Z" fill="#79A0C1" stroke="white" stroke-width="2"/>
</svg>
