<svg width="703" height="288" viewBox="0 0 703 288" fill="none" xmlns="http://www.w3.org/2000/svg">
<rect width="703" height="288" fill="#F7F8FA" fill-opacity="0.1"/>
<path d="M359.846 111C360.343 114.325 362.362 115.912 365.913 115.717C368.196 115.59 370.238 114.848 371.857 113.153C372.139 112.838 372.515 112.622 372.93 112.538C372.89 112.627 372.857 112.719 372.822 112.812C372.763 113.004 372.677 113.187 372.566 113.356C369.767 117.23 363.998 118.905 359.603 117.064C358.189 116.471 356.828 115.714 356.745 113.782C357.551 112.856 358.358 111.929 359.162 111H359.846Z" fill="white"/>
<path d="M439.183 143.22L439.537 142.571L450.169 123.059C450.284 124.275 450.395 125.469 450.502 126.649C450.74 129.231 450.97 131.741 451.254 134.246C451.837 139.389 452.455 144.53 453.073 149.671L453.081 149.732L453.757 155.361C453.782 155.577 453.83 155.791 453.876 156.004L453.898 156.103L453.911 156.163L453.917 156.196C454.337 158.174 454.985 158.77 456.982 159.004L457.939 159.111L457.982 159.116L458.378 159.159L458.577 159.182C458.459 159.307 458.362 159.431 458.276 159.542C458.119 159.743 458 159.893 457.868 159.906C457.237 159.964 456.599 159.961 455.961 159.956H452.878C450.564 159.958 448.247 159.959 445.934 159.948C445.858 159.948 445.779 159.953 445.7 159.958C445.245 159.982 444.728 160.012 444.262 159.261L444.794 159.172H444.797C445.177 159.106 445.488 159.057 445.802 159.014C447.813 158.75 448.523 157.992 448.366 155.969C448.052 151.956 447.699 147.945 447.307 143.938C447.12 142.024 446.896 140.115 446.673 138.22L446.671 138.219L446.398 135.882C446.352 135.867 446.305 135.85 446.26 135.833C446.221 135.815 446.181 135.803 446.139 135.797C446.088 135.797 446.017 135.8 445.989 135.835L445.987 135.838C445.878 135.96 445.767 136.085 445.688 136.227L439.664 147.32L439.18 148.216L432.619 160.296C430.942 157.131 429.46 153.881 427.98 150.63C425.693 145.611 423.407 140.593 420.4 135.896C420.349 136.268 420.294 136.638 420.238 137.011C420.114 137.848 419.99 138.682 419.907 139.522C419.445 144.212 419 148.901 418.556 153.592L418.554 153.608L418.364 155.61C418.116 158.233 418.584 158.783 421.257 159.048C421.399 159.062 421.541 159.093 421.746 159.137C421.854 159.162 421.979 159.189 422.131 159.22C422.03 159.324 421.934 159.434 421.844 159.548C421.682 159.746 421.555 159.903 421.424 159.903C418.13 159.936 414.832 159.934 411.533 159.906C411.417 159.906 411.3 159.793 411.124 159.623C411.005 159.503 410.88 159.389 410.751 159.281C410.963 159.238 411.134 159.199 411.285 159.166C411.547 159.104 411.737 159.062 411.929 159.042C414.298 158.803 414.865 158.359 415.288 155.989C415.646 153.983 415.886 151.953 416.122 149.922C416.897 143.22 417.662 136.514 418.402 129.809C418.477 129.129 418.544 128.447 418.612 127.764V127.761C418.759 126.268 418.906 124.768 419.139 123.253C421.28 127.169 423.204 131.19 425.137 135.237C427.894 141.006 430.675 146.824 434.149 152.458V152.462L439.183 143.22ZM171.61 142.387C174.571 141.812 186.381 141.812 189.48 142.435L189.49 142.428C189.452 143.748 189.419 145.061 189.386 146.371V146.375C189.304 149.691 189.219 152.973 189.051 156.253C188.935 158.461 188.367 158.86 186.118 159.278C186.031 159.294 185.932 159.294 185.829 159.293C185.446 159.289 185.001 159.286 184.922 160.132H187.855C191.2 160.132 194.523 160.136 197.845 160.123C197.987 160.123 198.13 160.057 198.366 159.946C198.51 159.88 198.69 159.797 198.928 159.702C198.648 159.619 198.427 159.548 198.24 159.487C197.928 159.388 197.716 159.322 197.5 159.281C195.131 158.84 194.551 158.209 194.404 155.813C194.387 155.519 194.368 155.227 194.348 154.933C194.28 153.869 194.211 152.805 194.202 151.737L194.191 150.422V150.417C194.13 144.96 194.107 139.502 194.12 134.044C194.131 131.78 194.282 129.512 194.51 127.259C194.683 125.537 195.322 124.986 196.965 124.705C197.355 124.638 197.746 124.58 198.138 124.524L198.546 124.463L198.574 124.275L198.604 124.087C198.507 124.042 198.412 123.992 198.32 123.938C198.118 123.821 197.915 123.704 197.712 123.704C193.68 123.681 189.644 123.681 185.613 123.712C185.447 123.712 185.282 123.834 185.039 124.012C184.896 124.116 184.725 124.243 184.511 124.375C184.773 124.43 184.973 124.474 185.138 124.511C185.413 124.572 185.581 124.61 185.751 124.631C188.364 124.949 188.958 125.403 189.095 127.99C189.239 130.721 189.276 133.459 189.31 136.196C189.323 137.201 189.337 138.206 189.355 139.209C189.356 139.301 189.309 139.397 189.244 139.531C189.206 139.606 189.162 139.696 189.119 139.803C183.331 140.131 177.514 140.149 171.589 139.778C171.589 139.123 171.586 138.484 171.581 137.856C171.572 136.49 171.564 135.178 171.601 133.866C171.662 131.771 171.766 129.672 171.931 127.585C172.08 125.763 172.641 125.184 174.353 124.816C174.745 124.73 175.138 124.649 175.533 124.568L175.541 124.567L176.07 124.456C175.827 123.971 175.581 123.738 175.318 123.712C174.86 123.666 174.399 123.672 173.938 123.679L173.443 123.684H170.971C168.498 123.681 166.028 123.679 163.556 123.694C163.478 123.694 163.394 123.689 163.308 123.684C162.854 123.651 162.348 123.618 162.403 124.466L162.634 124.529C162.778 124.568 162.917 124.608 163.059 124.634C166.066 125.205 166.434 125.461 166.507 128.441C166.674 135.524 166.735 142.609 166.77 149.693C166.78 151.957 166.623 154.225 166.456 156.486C166.324 158.296 165.749 158.822 163.991 159.195C163.852 159.225 163.705 159.235 163.554 159.245C163.112 159.278 162.633 159.311 162.256 159.842C163.107 160.238 163.925 160.198 164.718 160.16C165.041 160.146 165.362 160.131 165.676 160.146C166.512 160.184 167.346 160.175 168.182 160.167H168.19C168.546 160.164 168.901 160.159 169.254 160.159C169.601 160.159 169.945 160.165 170.29 160.17C171.083 160.182 171.876 160.195 172.663 160.142C172.969 160.121 173.281 160.139 173.6 160.157C174.434 160.203 175.313 160.251 176.233 159.626C176.068 159.578 175.902 159.529 175.738 159.477C175.522 159.405 175.303 159.346 175.08 159.301C172.564 158.85 172.024 158.26 171.87 155.765C171.843 155.336 171.812 154.909 171.779 154.481C171.706 153.494 171.634 152.509 171.62 151.523C171.594 149.376 171.601 147.228 171.606 145.086L171.61 142.387ZM472.053 159.791C472.108 159.818 472.163 159.844 472.217 159.872L472.27 159.9C472.317 159.926 472.364 159.951 472.412 159.976L481.956 148.439L482.117 148.244L494.543 133.228C494.568 133.483 494.591 133.683 494.61 133.845C494.642 134.115 494.662 134.287 494.662 134.457L494.652 137.461V137.483C494.637 142.151 494.62 146.815 494.572 151.481C494.559 152.955 494.422 154.428 494.283 155.894C494.075 158.072 493.497 158.649 491.374 158.979C491.09 159.024 490.809 159.088 490.528 159.152L490.287 159.207L490.245 159.215C490.225 159.22 490.204 159.225 490.183 159.23C491.283 159.878 492.413 159.847 493.532 159.814C493.898 159.804 494.262 159.794 494.624 159.807C496.211 159.865 497.806 159.855 499.397 159.807C499.778 159.797 500.162 159.807 500.547 159.817C501.634 159.847 502.728 159.875 503.782 159.431C503.539 159.199 503.229 159.05 502.896 159.004C500.391 158.646 499.783 158.017 499.681 155.511L499.612 153.881C499.495 151.535 499.422 149.188 499.394 146.84C499.367 142.109 499.37 137.381 499.375 132.652C499.377 130.173 499.379 127.697 499.377 125.218C499.377 124.831 499.354 124.443 499.324 123.945V123.936C499.309 123.695 499.293 123.428 499.278 123.121L477.099 150.006L477.031 149.978L476.927 149.934L476.846 149.899L476.822 149.888L476.795 149.878C476.781 149.872 476.768 149.866 476.754 149.861V148.206C476.754 147.035 476.75 145.863 476.747 144.692V144.682C476.737 141.883 476.727 139.085 476.772 136.287C476.82 133.284 476.955 130.279 477.154 127.281C477.287 125.251 477.844 124.773 479.83 124.39C479.949 124.367 480.08 124.365 480.213 124.364C480.617 124.359 481.049 124.352 481.254 123.788C481.19 123.753 481.127 123.714 481.066 123.672C480.954 123.6 480.861 123.539 480.765 123.539C476.56 123.522 472.356 123.522 468.151 123.539C468.034 123.54 467.916 123.649 467.749 123.804C467.654 123.893 467.541 123.997 467.402 124.106C467.667 124.157 467.903 124.207 468.12 124.253C468.564 124.347 468.927 124.423 469.294 124.464C470.613 124.615 471.326 125.374 471.564 126.632C471.65 127.076 471.736 127.53 471.743 127.979C471.855 137.44 471.954 146.904 472.053 156.364V156.395C472.06 157.149 472.058 157.905 472.055 158.661L472.053 159.791ZM357.036 123.705H343.785L343.782 123.715C343.777 123.738 343.772 123.76 343.767 123.783L343.754 123.839L343.746 123.879L343.741 123.898L343.737 123.913L344.099 124.025C344.393 124.116 344.686 124.207 344.976 124.306C346.51 124.834 347.463 125.847 347.671 127.489L347.731 127.931C347.797 128.4 347.861 128.872 347.873 129.343L347.927 131.472V131.5C348.011 134.747 348.096 137.996 348.117 141.243C348.147 145.174 348.14 149.105 348.134 153.036C348.13 154.719 348.129 156.405 348.129 158.09V159.872L348.233 159.905L348.416 159.962L348.514 159.994L350.766 157.294L350.774 157.285L350.779 157.278C353.474 154.064 356.151 150.834 358.808 147.589L358.812 147.586L358.815 147.583L358.817 147.579C360.246 145.83 361.684 144.089 363.13 142.354C363.737 141.628 364.337 140.897 364.936 140.164L364.94 140.161C366.754 137.947 368.571 135.729 370.58 133.663C370.734 137.329 370.775 140.902 370.724 144.474C370.665 148.043 370.566 151.611 370.426 155.177C370.341 157.567 369.486 158.654 367.226 159.416C367.015 159.489 366.805 159.57 366.595 159.651L366.336 159.75L366.387 159.943H379.679C379.472 159.674 379.177 159.487 378.846 159.415C376.878 158.931 375.879 157.656 375.742 155.663C375.723 155.382 375.697 155.098 375.672 154.816C375.621 154.25 375.57 153.686 375.568 153.12C375.53 145.735 375.5 138.349 375.471 130.964V130.911L375.449 125.383V123.606L375.11 123.494L370.309 129.315C365.08 135.661 359.844 142.002 354.602 148.337L353.011 150.264C352.707 148.964 352.685 147.833 352.707 146.705L352.766 143.101C352.846 138.293 352.925 133.487 353.047 128.68C353.12 125.928 353.857 125.015 356.332 124.177C356.514 124.116 356.69 124.045 356.869 123.971L357.077 123.889L357.036 123.707V123.705Z" fill="white"/>
<path fill-rule="evenodd" clip-rule="evenodd" d="M226.748 160.552C218.942 160.206 212.626 157 209.328 149.403C204.328 137.886 211.281 123.756 225.982 123.256C232.634 123.03 238.352 125.242 242.353 130.686C246.928 136.915 247.331 143.78 243.961 150.616C240.554 157.516 234.462 160.336 226.75 160.552H226.748ZM240.884 142.003C240.766 137.477 239.239 132.512 235.112 128.574C230.236 123.922 222.324 123.96 217.533 128.681C214.688 131.479 213.292 134.963 212.966 138.862C212.487 144.645 213.842 149.93 217.812 154.304C223.732 160.828 233.698 159.886 238.355 152.413C240.144 149.542 240.878 146.367 240.884 142.002V142.003ZM271.737 140.097L271.043 139.908L271.047 139.904C271.377 139.771 271.668 139.657 271.932 139.551C272.449 139.347 272.866 139.182 273.27 138.992C276.195 137.617 277.9 135.372 277.938 132.085C277.974 128.739 276.352 126.376 273.341 124.957C271.359 124.021 269.244 123.632 267.063 123.625C263.599 123.612 260.132 123.619 256.668 123.625C256.344 123.625 256.022 123.65 255.704 123.675C255.546 123.688 255.387 123.701 255.234 123.711C255.133 124.447 255.526 124.485 255.914 124.521C255.975 124.528 256.035 124.533 256.093 124.541C258.756 124.914 259.371 125.457 259.412 128.079C259.528 135.728 259.566 143.381 259.6 151.03C259.607 152.614 259.544 154.208 259.374 155.782C259.108 158.257 258.654 158.671 256.141 159.102C256.103 159.109 256.066 159.116 256.028 159.122C255.612 159.188 255.214 159.251 255.343 159.916C255.414 159.925 255.486 159.94 255.559 159.954C255.706 159.982 255.853 160.008 256.002 160.008L259.61 160.018H259.627C263.248 160.031 266.868 160.043 270.488 159.991C272.651 159.953 274.786 159.499 276.776 158.655C282.658 156.201 284.2 147.729 278.891 143.445C276.998 141.917 274.881 140.903 272.535 140.315C272.268 140.245 272.003 140.172 271.737 140.097ZM264.306 143.722C264.309 142.935 264.312 142.145 264.312 141.35C266.463 140.967 268.496 140.916 270.496 141.35C274.118 142.137 276.928 145.483 277.284 149.372C277.369 150.268 277.373 151.187 277.284 152.083C276.92 155.756 274.453 158.046 270.622 158.292C269.763 158.348 268.892 158.332 268.028 158.315L267.731 158.31C265.855 158.279 264.862 157.523 264.654 155.621C264.418 153.487 264.37 151.331 264.327 149.184C264.288 147.371 264.297 145.557 264.306 143.731V143.722ZM272.742 135.987C271.246 138.616 267.932 139.942 264.501 139.289V125.861C266.767 124.842 269.731 125.693 271.694 127.792C273.763 129.999 274.201 133.425 272.742 135.987ZM514.41 123.734C514.522 123.706 514.634 123.674 514.744 123.639C514.969 123.557 515.205 123.508 515.444 123.495C520.897 123.512 526.352 123.545 531.804 123.601C532.477 123.609 533.161 123.749 533.82 123.896C539.774 125.228 542.966 130.602 541.235 136.436C540.508 138.896 538.859 140.667 536.673 141.931C533.577 143.722 530.174 144.175 526.659 144.105C526.02 144.096 525.381 144.094 524.741 144.1C524.409 144.104 524.072 144.105 523.73 144.105C523.702 144.188 523.669 144.267 523.638 144.341C523.573 144.493 523.514 144.63 523.519 144.765C523.542 145.706 523.56 146.65 523.578 147.592V147.595C523.631 150.278 523.684 152.962 523.842 155.64C523.996 158.259 524.488 158.624 527.165 159.003C527.327 159.026 527.485 159.072 527.705 159.135L528.196 159.27C528.054 159.363 527.938 159.454 527.837 159.533C527.654 159.675 527.523 159.775 527.393 159.775C523.246 159.8 519.097 159.797 514.952 159.784C514.76 159.784 514.57 159.635 514.347 159.246C514.461 159.218 514.575 159.185 514.688 159.153C514.947 159.081 515.205 159.008 515.468 158.965C517.683 158.597 518.294 158.005 518.441 155.759C518.608 153.218 518.774 150.664 518.759 148.118C518.722 141.429 518.602 134.737 518.483 128.047C518.432 125.109 518.063 124.747 515.058 124.292C514.915 124.266 514.774 124.228 514.638 124.177C514.571 124.153 514.504 124.131 514.437 124.111L514.41 123.734ZM523.704 142.303C524.295 142.303 524.883 142.32 525.468 142.336C526.772 142.371 528.057 142.407 529.323 142.262C531.928 141.965 534.028 140.642 535.393 138.342C536.666 136.233 537.165 133.748 536.804 131.313C536.363 128.153 534.653 126.203 531.647 125.498C529.797 125.063 527.935 125.165 525.997 125.271C525.247 125.312 524.483 125.353 523.707 125.365V142.3L523.704 142.303ZM293.03 159.087C292.588 159.097 292.097 159.107 291.866 160.018L291.862 160.023H293.671C294.802 160.023 295.93 160.023 297.058 160.026C300.022 160.031 302.985 160.038 305.949 160.005C307.363 159.988 308.8 159.912 310.183 159.647C313.818 158.945 316.908 157.35 318.162 153.575C319.776 148.715 318.309 144.132 313.574 141.541C310.923 140.092 308.072 139.451 305.078 139.363C304.164 139.338 303.246 139.345 302.273 139.352C301.818 139.355 301.351 139.358 300.865 139.358C300.877 138.627 300.885 137.905 300.893 137.185V137.172C300.931 133.628 300.967 130.206 301.435 126.807C301.666 125.135 302.254 124.8 304.133 124.566C304.24 124.551 304.359 124.553 304.48 124.556C304.908 124.563 305.361 124.569 305.455 123.899C303.717 123.427 292.958 123.523 291.93 124.021C292.117 124.596 292.546 124.582 292.959 124.571C293.094 124.563 293.23 124.567 293.364 124.582C295 124.835 295.509 125.262 295.859 126.886C295.97 127.381 296.041 127.894 296.047 128.401L296.098 132.587V132.593C296.171 138.395 296.244 144.198 296.252 150.001C296.255 152.261 296.089 154.533 295.809 156.776C295.601 158.429 294.993 158.818 293.338 159.069C293.236 159.082 293.133 159.088 293.03 159.087ZM300.996 144.105L300.999 141.162V141.158C301.541 141.158 302.074 141.147 302.603 141.134C303.755 141.107 304.878 141.081 305.99 141.186C309.912 141.563 312.549 143.876 313.593 147.673C314.086 149.455 314.173 151.266 313.744 153.052C313.094 155.763 311.48 157.615 308.632 158.081C307.356 158.289 306.038 158.317 304.741 158.295C302.415 158.262 301.46 157.373 301.21 155.045C301.078 153.749 301.011 152.448 301.009 151.146C300.989 148.844 300.992 146.542 300.996 144.117V144.105Z" fill="white"/>
<path d="M333.81 159.906H320.306C320.285 159.845 320.267 159.782 320.247 159.721L320.219 159.639C320.208 159.605 320.197 159.571 320.186 159.537C320.292 159.489 320.397 159.439 320.5 159.385C320.729 159.269 320.959 159.151 321.2 159.113C323.584 158.738 324.174 158.18 324.334 155.723C324.51 153.067 324.676 150.401 324.663 147.742C324.623 142.403 324.547 137.063 324.435 131.724L324.376 128.53C324.361 127.907 324.281 127.288 324.136 126.682C323.806 125.273 323.26 124.835 321.818 124.596C321.673 124.571 321.514 124.576 321.354 124.581C320.909 124.596 320.452 124.609 320.23 124.004C321.288 123.55 331.569 123.413 334.011 123.844C333.923 123.931 333.839 124.022 333.76 124.118C333.606 124.294 333.478 124.444 333.317 124.491C333.068 124.56 332.802 124.573 332.536 124.583C332.344 124.593 332.152 124.6 331.966 124.631C330.682 124.839 330.046 125.416 329.834 126.705C329.673 127.656 329.59 128.618 329.585 129.583C329.575 137.971 329.59 146.361 329.603 154.748C329.603 155.067 329.64 155.387 329.674 155.702L329.681 155.765C329.978 158.439 330.266 158.72 332.984 159.124C333.207 159.157 333.418 159.264 333.63 159.372C333.725 159.419 333.821 159.469 333.919 159.51L333.864 159.708L333.81 159.906Z" fill="white"/>
</svg>
