<svg width="24" height="24" viewBox="0 0 24 24" fill="none" xmlns="http://www.w3.org/2000/svg">
<path d="M10.5586 1C15.8377 1 20.1171 5.27951 20.1172 10.5586C20.1172 13.0183 19.1874 15.2601 17.6611 16.9541L23.8535 23.1465C24.0488 23.3417 24.0488 23.6583 23.8535 23.8535C23.6583 24.0488 23.3417 24.0488 23.1465 23.8535L16.9541 17.6611C15.2601 19.1874 13.0183 20.1172 10.5586 20.1172C5.27951 20.1171 1 15.8377 1 10.5586C1.00012 5.27958 5.27958 1.00012 10.5586 1ZM10.5586 2C5.83187 2.00012 2.00012 5.83187 2 10.5586C2 15.2854 5.83179 19.1171 10.5586 19.1172C15.2855 19.1172 19.1172 15.2855 19.1172 10.5586C19.1171 5.83179 15.2854 2 10.5586 2ZM10.5586 6.17676C10.8347 6.17676 11.0586 6.40062 11.0586 6.67676V10.0586H14.4414C14.7174 10.0587 14.9413 10.2826 14.9414 10.5586C14.9414 10.8347 14.7174 11.0585 14.4414 11.0586H11.0586V14.4414C11.0585 14.7174 10.8347 14.9414 10.5586 14.9414C10.2826 14.9413 10.0587 14.7174 10.0586 14.4414V11.0586H6.67676C6.40062 11.0586 6.17676 10.8347 6.17676 10.5586C6.17688 10.2826 6.40069 10.0586 6.67676 10.0586H10.0586V6.67676C10.0586 6.40069 10.2826 6.17688 10.5586 6.17676Z" fill="#032154"/>
</svg>
