<svg width="882" height="1107" viewBox="0 0 882 1107" fill="none" xmlns="http://www.w3.org/2000/svg">
<g filter="url(#filter0_d_2001_2377)">
<path d="M736.974 417H548.703L488.929 471L543.974 402.715V358H736.974V417Z" fill="#F7F8FA"/>
<path d="M565.147 392V382.2H567.401V390.152H571.769V382.2H574.023V392H565.147ZM573.337 394.072V391.468L573.827 392H571.769V390.152H575.423V394.072H573.337ZM580.35 392.112C579.491 392.112 578.735 391.944 578.082 391.608C577.438 391.272 576.939 390.815 576.584 390.236C576.229 389.648 576.052 388.981 576.052 388.234C576.052 387.478 576.225 386.811 576.57 386.232C576.925 385.644 577.405 385.187 578.012 384.86C578.619 384.524 579.305 384.356 580.07 384.356C580.807 384.356 581.47 384.515 582.058 384.832C582.655 385.14 583.127 385.588 583.472 386.176C583.817 386.755 583.99 387.45 583.99 388.262C583.99 388.346 583.985 388.444 583.976 388.556C583.967 388.659 583.957 388.757 583.948 388.85H577.83V387.576H582.8L581.96 387.954C581.96 387.562 581.881 387.221 581.722 386.932C581.563 386.643 581.344 386.419 581.064 386.26C580.784 386.092 580.457 386.008 580.084 386.008C579.711 386.008 579.379 386.092 579.09 386.26C578.81 386.419 578.591 386.647 578.432 386.946C578.273 387.235 578.194 387.581 578.194 387.982V388.318C578.194 388.729 578.283 389.093 578.46 389.41C578.647 389.718 578.903 389.956 579.23 390.124C579.566 390.283 579.958 390.362 580.406 390.362C580.807 390.362 581.157 390.301 581.456 390.18C581.764 390.059 582.044 389.877 582.296 389.634L583.458 390.894C583.113 391.286 582.679 391.589 582.156 391.804C581.633 392.009 581.031 392.112 580.35 392.112ZM585.664 392V384.468H587.834V387.408H591.11V384.468H593.294V392H591.11V389.186H587.834V392H585.664ZM596.995 392V385.756L597.485 386.26H594.447V384.468H601.713V386.26H598.675L599.165 385.756V392H596.995ZM607.315 392.112C606.68 392.112 606.125 391.972 605.649 391.692C605.173 391.412 604.8 390.987 604.529 390.418C604.268 389.839 604.137 389.111 604.137 388.234C604.137 387.347 604.263 386.619 604.515 386.05C604.767 385.481 605.131 385.056 605.607 384.776C606.083 384.496 606.652 384.356 607.315 384.356C608.024 384.356 608.659 384.519 609.219 384.846C609.788 385.163 610.236 385.611 610.563 386.19C610.899 386.769 611.067 387.45 611.067 388.234C611.067 389.027 610.899 389.713 610.563 390.292C610.236 390.871 609.788 391.319 609.219 391.636C608.659 391.953 608.024 392.112 607.315 392.112ZM602.863 394.716V384.468H604.949V386.008L604.907 388.248L605.047 390.474V394.716H602.863ZM606.937 390.32C607.301 390.32 607.623 390.236 607.903 390.068C608.192 389.9 608.421 389.662 608.589 389.354C608.766 389.037 608.855 388.663 608.855 388.234C608.855 387.795 608.766 387.422 608.589 387.114C608.421 386.806 608.192 386.568 607.903 386.4C607.623 386.232 607.301 386.148 606.937 386.148C606.573 386.148 606.246 386.232 605.957 386.4C605.668 386.568 605.439 386.806 605.271 387.114C605.103 387.422 605.019 387.795 605.019 388.234C605.019 388.663 605.103 389.037 605.271 389.354C605.439 389.662 605.668 389.9 605.957 390.068C606.246 390.236 606.573 390.32 606.937 390.32ZM616.983 392V390.53L616.843 390.208V387.576C616.843 387.109 616.698 386.745 616.409 386.484C616.129 386.223 615.695 386.092 615.107 386.092C614.705 386.092 614.309 386.157 613.917 386.288C613.534 386.409 613.207 386.577 612.937 386.792L612.153 385.266C612.563 384.977 613.058 384.753 613.637 384.594C614.215 384.435 614.803 384.356 615.401 384.356C616.549 384.356 617.44 384.627 618.075 385.168C618.709 385.709 619.027 386.554 619.027 387.702V392H616.983ZM614.687 392.112C614.099 392.112 613.595 392.014 613.175 391.818C612.755 391.613 612.433 391.337 612.209 390.992C611.985 390.647 611.873 390.259 611.873 389.83C611.873 389.382 611.98 388.99 612.195 388.654C612.419 388.318 612.769 388.057 613.245 387.87C613.721 387.674 614.341 387.576 615.107 387.576H617.109V388.85H615.345C614.831 388.85 614.477 388.934 614.281 389.102C614.094 389.27 614.001 389.48 614.001 389.732C614.001 390.012 614.108 390.236 614.323 390.404C614.547 390.563 614.85 390.642 615.233 390.642C615.597 390.642 615.923 390.558 616.213 390.39C616.502 390.213 616.712 389.956 616.843 389.62L617.179 390.628C617.02 391.113 616.731 391.482 616.311 391.734C615.891 391.986 615.349 392.112 614.687 392.112ZM621.106 392.154C620.938 392.154 620.761 392.14 620.574 392.112C620.387 392.084 620.187 392.042 619.972 391.986L620.084 390.194C620.14 390.203 620.196 390.213 620.252 390.222C620.308 390.222 620.359 390.222 620.406 390.222C620.667 390.222 620.873 390.147 621.022 389.998C621.171 389.849 621.283 389.648 621.358 389.396C621.433 389.135 621.484 388.841 621.512 388.514C621.549 388.187 621.577 387.847 621.596 387.492L621.708 384.468H628.148V392H625.964V385.728L626.454 386.26H623.15L623.612 385.7L623.514 387.59C623.486 388.262 623.43 388.878 623.346 389.438C623.271 389.998 623.145 390.483 622.968 390.894C622.791 391.295 622.553 391.608 622.254 391.832C621.955 392.047 621.573 392.154 621.106 392.154ZM634.028 392.014L630.248 392V384.468H632.418V386.876H634.322C635.312 386.885 636.063 387.109 636.576 387.548C637.099 387.977 637.36 388.589 637.36 389.382C637.36 390.213 637.066 390.861 636.478 391.328C635.89 391.785 635.074 392.014 634.028 392.014ZM633.832 390.46C634.252 390.469 634.574 390.381 634.798 390.194C635.022 390.007 635.134 389.727 635.134 389.354C635.134 388.981 635.022 388.715 634.798 388.556C634.574 388.388 634.252 388.299 633.832 388.29L632.418 388.276V390.46H633.832ZM638.725 392V384.468H640.895V387.408H644.171V384.468H646.355V392H644.171V389.186H640.895V392H638.725ZM652.114 392.014L648.446 392V384.468H650.616V386.876H652.408C653.397 386.885 654.139 387.109 654.634 387.548C655.138 387.977 655.39 388.589 655.39 389.382C655.39 390.213 655.105 390.861 654.536 391.328C653.966 391.785 653.159 392.014 652.114 392.014ZM651.918 390.46C652.338 390.469 652.66 390.381 652.884 390.194C653.108 390.007 653.22 389.727 653.22 389.354C653.22 388.981 653.108 388.715 652.884 388.556C652.66 388.388 652.338 388.299 651.918 388.29L650.616 388.276V390.46H651.918ZM656.202 392V384.468H658.372V392H656.202ZM660.477 392V384.468H662.647V388.948L666.315 384.468H668.317V392H666.147V387.52L662.493 392H660.477ZM664.257 383.656C663.435 383.656 662.819 383.479 662.409 383.124C661.998 382.76 661.788 382.214 661.779 381.486H663.207C663.216 381.803 663.305 382.055 663.473 382.242C663.641 382.429 663.897 382.522 664.243 382.522C664.579 382.522 664.835 382.429 665.013 382.242C665.199 382.055 665.293 381.803 665.293 381.486H666.749C666.749 382.214 666.539 382.76 666.119 383.124C665.699 383.479 665.078 383.656 664.257 383.656ZM677.909 392.112C677.106 392.112 676.392 391.944 675.767 391.608C675.151 391.272 674.661 390.815 674.297 390.236C673.942 389.648 673.765 388.981 673.765 388.234C673.765 387.478 673.942 386.811 674.297 386.232C674.661 385.644 675.151 385.187 675.767 384.86C676.392 384.524 677.106 384.356 677.909 384.356C678.702 384.356 679.412 384.524 680.037 384.86C680.662 385.187 681.152 385.639 681.507 386.218C681.862 386.797 682.039 387.469 682.039 388.234C682.039 388.981 681.862 389.648 681.507 390.236C681.152 390.815 680.662 391.272 680.037 391.608C679.412 391.944 678.702 392.112 677.909 392.112ZM677.909 390.32C678.273 390.32 678.6 390.236 678.889 390.068C679.178 389.9 679.407 389.662 679.575 389.354C679.743 389.037 679.827 388.663 679.827 388.234C679.827 387.795 679.743 387.422 679.575 387.114C679.407 386.806 679.178 386.568 678.889 386.4C678.6 386.232 678.273 386.148 677.909 386.148C677.545 386.148 677.218 386.232 676.929 386.4C676.64 386.568 676.406 386.806 676.229 387.114C676.061 387.422 675.977 387.795 675.977 388.234C675.977 388.663 676.061 389.037 676.229 389.354C676.406 389.662 676.64 389.9 676.929 390.068C677.218 390.236 677.545 390.32 677.909 390.32ZM688.875 392L686.355 388.43L688.133 387.38L691.451 392H688.875ZM683.541 392V384.468H685.725V392H683.541ZM685.081 389.144V387.394H687.713V389.144H685.081ZM688.343 388.486L686.299 388.262L688.945 384.468H691.269L688.343 388.486ZM696.962 392.112C696.327 392.112 695.772 391.972 695.296 391.692C694.82 391.412 694.446 390.987 694.176 390.418C693.914 389.839 693.784 389.111 693.784 388.234C693.784 387.347 693.91 386.619 694.162 386.05C694.414 385.481 694.778 385.056 695.254 384.776C695.73 384.496 696.299 384.356 696.962 384.356C697.671 384.356 698.306 384.519 698.866 384.846C699.435 385.163 699.883 385.611 700.21 386.19C700.546 386.769 700.714 387.45 700.714 388.234C700.714 389.027 700.546 389.713 700.21 390.292C699.883 390.871 699.435 391.319 698.866 391.636C698.306 391.953 697.671 392.112 696.962 392.112ZM692.51 394.716V384.468H694.596V386.008L694.554 388.248L694.694 390.474V394.716H692.51ZM696.584 390.32C696.948 390.32 697.27 390.236 697.55 390.068C697.839 389.9 698.068 389.662 698.236 389.354C698.413 389.037 698.502 388.663 698.502 388.234C698.502 387.795 698.413 387.422 698.236 387.114C698.068 386.806 697.839 386.568 697.55 386.4C697.27 386.232 696.948 386.148 696.584 386.148C696.22 386.148 695.893 386.232 695.604 386.4C695.314 386.568 695.086 386.806 694.918 387.114C694.75 387.422 694.666 387.795 694.666 388.234C694.666 388.663 694.75 389.037 694.918 389.354C695.086 389.662 695.314 389.9 695.604 390.068C695.893 390.236 696.22 390.32 696.584 390.32ZM703.061 394.828C702.669 394.828 702.282 394.767 701.899 394.646C701.517 394.525 701.204 394.357 700.961 394.142L701.759 392.588C701.927 392.737 702.119 392.854 702.333 392.938C702.557 393.022 702.777 393.064 702.991 393.064C703.299 393.064 703.542 392.989 703.719 392.84C703.906 392.7 704.074 392.462 704.223 392.126L704.615 391.202L704.783 390.964L707.485 384.468H709.585L706.183 392.462C705.941 393.069 705.661 393.545 705.343 393.89C705.035 394.235 704.69 394.478 704.307 394.618C703.934 394.758 703.519 394.828 703.061 394.828ZM704.349 392.294L700.989 384.468H703.243L705.847 390.768L704.349 392.294ZM710.639 392V384.468H716.673V386.26H712.319L712.809 385.784V392H710.639Z" fill="#032154"/>
</g>
<path d="M487.429 496.942C491.554 496.942 503.929 481.064 503.929 471.811C503.929 462.559 496.541 455.058 487.429 455.058C478.316 455.058 470.929 462.559 470.929 471.811C470.929 481.064 483.304 496.942 487.429 496.942Z" fill="#032154"/>
<path d="M493.128 470.952C493.272 470.868 493.409 470.763 493.528 470.646C494.44 469.749 494.785 468.619 494.859 467.267C494.821 467.039 494.796 466.698 494.704 466.378C494.32 465.041 493.148 464.723 492.141 465.677C491.443 466.337 491.099 467.186 490.922 468.108C490.794 468.779 490.803 469.449 491.037 470.103C491.389 471.088 492.275 471.451 493.128 470.953L493.128 470.952ZM487.404 462.991C488.068 463.008 488.153 462.83 488.062 462.388C487.902 461.608 487.751 460.287 487.582 459.238C487.561 459.107 487.46 458.989 487.396 458.865C487.345 458.997 487.265 459.125 487.248 459.261C487.116 460.308 486.996 461.356 486.872 462.403C486.803 462.981 486.803 462.976 487.405 462.992L487.404 462.991ZM493.419 463.71C493.394 463.942 493.283 464.25 493.388 464.386C493.504 464.535 493.822 464.527 494.054 464.585C494.398 464.671 494.431 464.651 494.46 464.29C494.565 463.005 494.095 461.915 493.313 460.935C493.247 460.853 493.146 460.798 493.061 460.73C493.033 460.748 493.004 460.765 492.976 460.783C493.009 460.934 493.021 461.095 493.079 461.237C493.405 462.033 493.514 462.856 493.42 463.71H493.419ZM498.786 470.373C498.648 469.732 498.372 469.181 497.666 469.03C497.07 468.903 496.572 469.166 496.139 469.549C495.269 470.317 494.82 471.314 494.643 472.441C494.555 473.002 494.601 473.559 494.848 474.081C495.141 474.7 495.714 475.013 496.347 474.845C496.646 474.766 496.954 474.62 497.193 474.425C498.277 473.542 498.748 472.35 498.852 471.005C498.829 470.778 498.828 470.571 498.785 470.373H498.786ZM497.591 465.366C497.905 466.262 497.913 467.154 497.593 468.051C497.574 468.104 497.642 468.234 497.7 468.259C497.902 468.346 498.122 468.391 498.326 468.475C498.551 468.567 498.646 468.498 498.692 468.267C498.932 467.077 498.527 466.071 497.825 465.147C497.78 465.088 497.706 465.051 497.646 465.005C497.62 465.016 497.595 465.027 497.57 465.039C497.575 465.148 497.557 465.267 497.591 465.366V465.366ZM486.225 469.38C486.581 469.796 487.023 470.035 487.585 469.911C488.098 469.798 488.422 469.435 488.673 469.001C489.066 468.322 489.195 467.577 489.204 466.865C489.199 466.028 489.054 465.287 488.651 464.613C487.975 463.483 486.787 463.443 486.065 464.537C485.508 465.38 485.387 466.336 485.463 467.318C485.522 468.072 485.721 468.788 486.225 469.38ZM495.664 476.035C494.786 475.412 493.847 474.866 492.9 474.351C492.318 474.034 491.786 473.724 491.491 473.087C491.31 472.696 491.044 472.343 490.804 471.98C490.491 471.506 490.068 471.142 489.523 470.992C488.056 470.588 486.584 470.57 485.134 471.089C484.582 471.287 484.196 471.68 483.945 472.208C483.831 472.449 483.719 472.69 483.606 472.931C483.446 473.274 483.209 473.537 482.871 473.717C482.49 473.92 482.115 474.135 481.75 474.365C480.806 474.962 479.858 475.555 479.123 476.423C477.857 477.919 477.696 479.1 478.56 481.107C478.915 481.933 479.687 482.154 480.485 482.291C481.305 482.431 482.109 482.275 482.913 482.144C484.187 481.936 486.215 481.617 487.325 481.631C488.58 481.646 489.975 481.856 490.996 481.997C492.141 482.154 493.28 482.278 494.437 482.133C495.155 482.043 495.737 481.784 496.098 481.108C496.562 480.239 496.879 479.344 496.816 478.339C496.757 477.403 496.424 476.574 495.664 476.035H495.664ZM479.545 474.126C479.832 473.615 479.918 473.06 479.913 472.484C479.913 472.44 479.915 472.395 479.913 472.351C479.856 471.199 479.541 470.146 478.705 469.31C478.154 468.76 477.452 468.633 476.919 468.971C476.482 469.247 476.257 469.679 476.136 470.165C475.878 471.203 476.019 472.208 476.426 473.183C476.655 473.733 476.983 474.213 477.467 474.57C478.224 475.129 479.085 474.942 479.545 474.126V474.126ZM481.403 470.897C482.155 471.439 483.005 471.246 483.459 470.441C483.524 470.326 483.583 470.205 483.626 470.08C483.986 469.03 483.862 467.999 483.49 466.983C483.264 466.364 482.921 465.82 482.382 465.422C481.633 464.871 480.791 465.042 480.315 465.839C479.98 466.402 479.925 467.026 479.922 467.865C479.986 468.156 480.06 468.649 480.204 469.121C480.419 469.829 480.788 470.455 481.403 470.897ZM476.644 468.48C476.839 468.4 477.043 468.336 477.247 468.283C477.414 468.239 477.454 468.173 477.392 468.001C477.085 467.155 477.091 466.304 477.373 465.449C477.417 465.317 477.412 465.168 477.429 465.026C477.4 465.014 477.371 465.001 477.343 464.988C477.231 465.105 477.096 465.208 477.012 465.342C476.836 465.628 476.672 465.922 476.53 466.226C476.226 466.88 476.157 467.566 476.297 468.275C476.339 468.485 476.425 468.57 476.644 468.48H476.644ZM480.565 464.604C480.763 464.557 480.96 464.504 481.16 464.468C481.338 464.435 481.389 464.348 481.348 464.173C481.106 463.146 481.219 462.15 481.606 461.176C481.656 461.051 481.657 460.906 481.681 460.77C481.649 460.754 481.618 460.737 481.587 460.72C481.476 460.826 481.345 460.916 481.258 461.039C481.081 461.292 480.919 461.557 480.766 461.826C480.32 462.612 480.143 463.459 480.225 464.36C480.25 464.623 480.31 464.665 480.565 464.604L480.565 464.604Z" fill="white"/>
<g filter="url(#filter1_d_2001_2377)">
<path d="M266.429 353.89L314.884 414L255.109 360H86.4287V301H266.429V353.89Z" fill="#F7F8FA"/>
<path d="M116.281 335.168C115.525 335.168 114.82 335.047 114.167 334.804C113.523 334.552 112.963 334.197 112.487 333.74C112.011 333.283 111.637 332.746 111.367 332.13C111.105 331.514 110.975 330.837 110.975 330.1C110.975 329.363 111.105 328.686 111.367 328.07C111.637 327.454 112.011 326.917 112.487 326.46C112.972 326.003 113.537 325.653 114.181 325.41C114.825 325.158 115.529 325.032 116.295 325.032C117.144 325.032 117.909 325.181 118.591 325.48C119.281 325.769 119.86 326.199 120.327 326.768L118.871 328.112C118.535 327.729 118.161 327.445 117.751 327.258C117.34 327.062 116.892 326.964 116.407 326.964C115.949 326.964 115.529 327.039 115.147 327.188C114.764 327.337 114.433 327.552 114.153 327.832C113.873 328.112 113.653 328.443 113.495 328.826C113.345 329.209 113.271 329.633 113.271 330.1C113.271 330.567 113.345 330.991 113.495 331.374C113.653 331.757 113.873 332.088 114.153 332.368C114.433 332.648 114.764 332.863 115.147 333.012C115.529 333.161 115.949 333.236 116.407 333.236C116.892 333.236 117.34 333.143 117.751 332.956C118.161 332.76 118.535 332.466 118.871 332.074L120.327 333.418C119.86 333.987 119.281 334.421 118.591 334.72C117.909 335.019 117.139 335.168 116.281 335.168ZM124.905 335.112C124.102 335.112 123.388 334.944 122.763 334.608C122.147 334.272 121.657 333.815 121.293 333.236C120.938 332.648 120.761 331.981 120.761 331.234C120.761 330.478 120.938 329.811 121.293 329.232C121.657 328.644 122.147 328.187 122.763 327.86C123.388 327.524 124.102 327.356 124.905 327.356C125.698 327.356 126.408 327.524 127.033 327.86C127.658 328.187 128.148 328.639 128.503 329.218C128.858 329.797 129.035 330.469 129.035 331.234C129.035 331.981 128.858 332.648 128.503 333.236C128.148 333.815 127.658 334.272 127.033 334.608C126.408 334.944 125.698 335.112 124.905 335.112ZM124.905 333.32C125.269 333.32 125.596 333.236 125.885 333.068C126.174 332.9 126.403 332.662 126.571 332.354C126.739 332.037 126.823 331.663 126.823 331.234C126.823 330.795 126.739 330.422 126.571 330.114C126.403 329.806 126.174 329.568 125.885 329.4C125.596 329.232 125.269 329.148 124.905 329.148C124.541 329.148 124.214 329.232 123.925 329.4C123.636 329.568 123.402 329.806 123.225 330.114C123.057 330.422 122.973 330.795 122.973 331.234C122.973 331.663 123.057 332.037 123.225 332.354C123.402 332.662 123.636 332.9 123.925 333.068C124.214 333.236 124.541 333.32 124.905 333.32ZM130.537 335V327.468H134.387C135.33 327.468 136.067 327.641 136.599 327.986C137.131 328.322 137.397 328.798 137.397 329.414C137.397 330.03 137.145 330.515 136.641 330.87C136.147 331.215 135.489 331.388 134.667 331.388L134.891 330.884C135.806 330.884 136.487 331.052 136.935 331.388C137.393 331.724 137.621 332.214 137.621 332.858C137.621 333.521 137.369 334.043 136.865 334.426C136.361 334.809 135.591 335 134.555 335H130.537ZM132.539 333.516H134.373C134.775 333.516 135.073 333.451 135.269 333.32C135.475 333.18 135.577 332.97 135.577 332.69C135.577 332.401 135.484 332.191 135.297 332.06C135.111 331.92 134.817 331.85 134.415 331.85H132.539V333.516ZM132.539 330.562H134.191C134.574 330.562 134.859 330.492 135.045 330.352C135.241 330.212 135.339 330.011 135.339 329.75C135.339 329.479 135.241 329.279 135.045 329.148C134.859 329.017 134.574 328.952 134.191 328.952H132.539V330.562ZM142.928 335.112C142.07 335.112 141.314 334.944 140.66 334.608C140.016 334.272 139.517 333.815 139.162 333.236C138.808 332.648 138.63 331.981 138.63 331.234C138.63 330.478 138.803 329.811 139.148 329.232C139.503 328.644 139.984 328.187 140.59 327.86C141.197 327.524 141.883 327.356 142.648 327.356C143.386 327.356 144.048 327.515 144.636 327.832C145.234 328.14 145.705 328.588 146.05 329.176C146.396 329.755 146.568 330.45 146.568 331.262C146.568 331.346 146.564 331.444 146.554 331.556C146.545 331.659 146.536 331.757 146.526 331.85H140.408V330.576H145.378L144.538 330.954C144.538 330.562 144.459 330.221 144.3 329.932C144.142 329.643 143.922 329.419 143.642 329.26C143.362 329.092 143.036 329.008 142.662 329.008C142.289 329.008 141.958 329.092 141.668 329.26C141.388 329.419 141.169 329.647 141.01 329.946C140.852 330.235 140.772 330.581 140.772 330.982V331.318C140.772 331.729 140.861 332.093 141.038 332.41C141.225 332.718 141.482 332.956 141.808 333.124C142.144 333.283 142.536 333.362 142.984 333.362C143.386 333.362 143.736 333.301 144.034 333.18C144.342 333.059 144.622 332.877 144.874 332.634L146.036 333.894C145.691 334.286 145.257 334.589 144.734 334.804C144.212 335.009 143.61 335.112 142.928 335.112ZM149.593 335V328.756L150.083 329.26H147.045V327.468H154.311V329.26H151.273L151.763 328.756V335H149.593ZM158.744 335.112C157.932 335.112 157.209 334.949 156.574 334.622C155.94 334.286 155.44 333.824 155.076 333.236C154.722 332.648 154.544 331.981 154.544 331.234C154.544 330.478 154.722 329.811 155.076 329.232C155.44 328.644 155.94 328.187 156.574 327.86C157.209 327.524 157.932 327.356 158.744 327.356C159.538 327.356 160.228 327.524 160.816 327.86C161.404 328.187 161.838 328.658 162.118 329.274L160.424 330.184C160.228 329.829 159.981 329.568 159.682 329.4C159.393 329.232 159.076 329.148 158.73 329.148C158.357 329.148 158.021 329.232 157.722 329.4C157.424 329.568 157.186 329.806 157.008 330.114C156.84 330.422 156.756 330.795 156.756 331.234C156.756 331.673 156.84 332.046 157.008 332.354C157.186 332.662 157.424 332.9 157.722 333.068C158.021 333.236 158.357 333.32 158.73 333.32C159.076 333.32 159.393 333.241 159.682 333.082C159.981 332.914 160.228 332.648 160.424 332.284L162.118 333.208C161.838 333.815 161.404 334.286 160.816 334.622C160.228 334.949 159.538 335.112 158.744 335.112ZM168.78 335L166.26 331.43L168.038 330.38L171.356 335H168.78ZM163.446 335V327.468H165.63V335H163.446ZM164.986 332.144V330.394H167.618V332.144H164.986ZM168.248 331.486L166.204 331.262L168.85 327.468H171.174L168.248 331.486ZM172.428 335V327.468H174.598V331.948L178.266 327.468H180.268V335H178.098V330.52L174.444 335H172.428ZM182.367 335V327.468H184.537V331.948L188.205 327.468H190.207V335H188.037V330.52L184.383 335H182.367ZM186.147 326.656C185.326 326.656 184.71 326.479 184.299 326.124C183.889 325.76 183.679 325.214 183.669 324.486H185.097C185.107 324.803 185.195 325.055 185.363 325.242C185.531 325.429 185.788 325.522 186.133 325.522C186.469 325.522 186.726 325.429 186.903 325.242C187.09 325.055 187.183 324.803 187.183 324.486H188.639C188.639 325.214 188.429 325.76 188.009 326.124C187.589 326.479 186.969 326.656 186.147 326.656ZM199.8 335.112C198.997 335.112 198.283 334.944 197.658 334.608C197.042 334.272 196.552 333.815 196.188 333.236C195.833 332.648 195.656 331.981 195.656 331.234C195.656 330.478 195.833 329.811 196.188 329.232C196.552 328.644 197.042 328.187 197.658 327.86C198.283 327.524 198.997 327.356 199.8 327.356C200.593 327.356 201.302 327.524 201.928 327.86C202.553 328.187 203.043 328.639 203.398 329.218C203.752 329.797 203.93 330.469 203.93 331.234C203.93 331.981 203.752 332.648 203.398 333.236C203.043 333.815 202.553 334.272 201.928 334.608C201.302 334.944 200.593 335.112 199.8 335.112ZM199.8 333.32C200.164 333.32 200.49 333.236 200.78 333.068C201.069 332.9 201.298 332.662 201.466 332.354C201.634 332.037 201.718 331.663 201.718 331.234C201.718 330.795 201.634 330.422 201.466 330.114C201.298 329.806 201.069 329.568 200.78 329.4C200.49 329.232 200.164 329.148 199.8 329.148C199.436 329.148 199.109 329.232 198.82 329.4C198.53 329.568 198.297 329.806 198.12 330.114C197.952 330.422 197.868 330.795 197.868 331.234C197.868 331.663 197.952 332.037 198.12 332.354C198.297 332.662 198.53 332.9 198.82 333.068C199.109 333.236 199.436 333.32 199.8 333.32ZM210.766 335L208.246 331.43L210.024 330.38L213.342 335H210.766ZM205.432 335V327.468H207.616V335H205.432ZM206.972 332.144V330.394H209.604V332.144H206.972ZM210.234 331.486L208.19 331.262L210.836 327.468H213.16L210.234 331.486ZM218.852 335.112C218.218 335.112 217.662 334.972 217.186 334.692C216.71 334.412 216.337 333.987 216.066 333.418C215.805 332.839 215.674 332.111 215.674 331.234C215.674 330.347 215.8 329.619 216.052 329.05C216.304 328.481 216.668 328.056 217.144 327.776C217.62 327.496 218.19 327.356 218.852 327.356C219.562 327.356 220.196 327.519 220.756 327.846C221.326 328.163 221.774 328.611 222.1 329.19C222.436 329.769 222.604 330.45 222.604 331.234C222.604 332.027 222.436 332.713 222.1 333.292C221.774 333.871 221.326 334.319 220.756 334.636C220.196 334.953 219.562 335.112 218.852 335.112ZM214.4 337.716V327.468H216.486V329.008L216.444 331.248L216.584 333.474V337.716H214.4ZM218.474 333.32C218.838 333.32 219.16 333.236 219.44 333.068C219.73 332.9 219.958 332.662 220.126 332.354C220.304 332.037 220.392 331.663 220.392 331.234C220.392 330.795 220.304 330.422 220.126 330.114C219.958 329.806 219.73 329.568 219.44 329.4C219.16 329.232 218.838 329.148 218.474 329.148C218.11 329.148 217.784 329.232 217.494 329.4C217.205 329.568 216.976 329.806 216.808 330.114C216.64 330.422 216.556 330.795 216.556 331.234C216.556 331.663 216.64 332.037 216.808 332.354C216.976 332.662 217.205 332.9 217.494 333.068C217.784 333.236 218.11 333.32 218.474 333.32ZM224.952 337.828C224.56 337.828 224.173 337.767 223.79 337.646C223.407 337.525 223.095 337.357 222.852 337.142L223.65 335.588C223.818 335.737 224.009 335.854 224.224 335.938C224.448 336.022 224.667 336.064 224.882 336.064C225.19 336.064 225.433 335.989 225.61 335.84C225.797 335.7 225.965 335.462 226.114 335.126L226.506 334.202L226.674 333.964L229.376 327.468H231.476L228.074 335.462C227.831 336.069 227.551 336.545 227.234 336.89C226.926 337.235 226.581 337.478 226.198 337.618C225.825 337.758 225.409 337.828 224.952 337.828ZM226.24 335.294L222.88 327.468H225.134L227.738 333.768L226.24 335.294ZM232.529 335V327.468H238.563V329.26H234.209L234.699 328.784V335H232.529Z" fill="#032154"/>
</g>
<path d="M325.429 434.942C329.554 434.942 341.929 419.064 341.929 409.811C341.929 400.559 334.541 393.058 325.429 393.058C316.316 393.058 308.929 400.559 308.929 409.811C308.929 419.064 321.304 434.942 325.429 434.942Z" fill="#032154"/>
<path d="M331.128 408.952C331.272 408.868 331.409 408.763 331.528 408.646C332.44 407.749 332.785 406.619 332.859 405.267C332.821 405.039 332.796 404.698 332.704 404.378C332.32 403.041 331.148 402.723 330.141 403.677C329.443 404.337 329.099 405.186 328.922 406.108C328.794 406.779 328.803 407.449 329.037 408.103C329.389 409.088 330.275 409.451 331.128 408.953L331.128 408.952ZM325.404 400.991C326.068 401.008 326.153 400.83 326.062 400.388C325.902 399.608 325.751 398.287 325.582 397.238C325.561 397.107 325.46 396.989 325.396 396.865C325.345 396.997 325.265 397.125 325.248 397.261C325.116 398.308 324.996 399.356 324.872 400.403C324.803 400.981 324.803 400.976 325.405 400.992L325.404 400.991ZM331.419 401.71C331.394 401.942 331.283 402.25 331.388 402.386C331.504 402.535 331.822 402.527 332.054 402.585C332.398 402.671 332.431 402.651 332.46 402.29C332.565 401.005 332.095 399.915 331.313 398.935C331.247 398.853 331.146 398.798 331.061 398.73C331.033 398.748 331.004 398.765 330.976 398.783C331.009 398.934 331.021 399.095 331.079 399.237C331.405 400.033 331.514 400.856 331.42 401.71H331.419ZM336.786 408.373C336.648 407.732 336.372 407.181 335.666 407.03C335.07 406.903 334.572 407.166 334.139 407.549C333.269 408.317 332.82 409.314 332.643 410.441C332.555 411.002 332.601 411.559 332.848 412.081C333.141 412.7 333.714 413.013 334.347 412.845C334.646 412.766 334.954 412.62 335.193 412.425C336.277 411.542 336.748 410.35 336.852 409.005C336.829 408.778 336.828 408.571 336.785 408.373H336.786ZM335.591 403.366C335.905 404.262 335.913 405.154 335.593 406.051C335.574 406.104 335.642 406.234 335.7 406.259C335.902 406.346 336.122 406.391 336.326 406.475C336.551 406.567 336.646 406.498 336.692 406.267C336.932 405.077 336.527 404.071 335.825 403.147C335.78 403.088 335.706 403.051 335.646 403.005C335.62 403.016 335.595 403.027 335.57 403.039C335.575 403.148 335.557 403.267 335.591 403.366V403.366ZM324.225 407.38C324.581 407.796 325.023 408.035 325.585 407.911C326.098 407.798 326.422 407.435 326.673 407.001C327.066 406.322 327.195 405.577 327.204 404.865C327.199 404.028 327.054 403.287 326.651 402.613C325.975 401.483 324.787 401.443 324.065 402.537C323.508 403.38 323.387 404.336 323.463 405.318C323.522 406.072 323.721 406.788 324.225 407.38ZM333.664 414.035C332.786 413.412 331.847 412.866 330.9 412.351C330.318 412.034 329.786 411.724 329.491 411.087C329.31 410.696 329.044 410.343 328.804 409.98C328.491 409.506 328.068 409.142 327.523 408.992C326.056 408.588 324.584 408.57 323.134 409.089C322.582 409.287 322.196 409.68 321.945 410.208C321.831 410.449 321.719 410.69 321.606 410.931C321.446 411.274 321.209 411.537 320.871 411.717C320.49 411.92 320.115 412.135 319.75 412.365C318.806 412.962 317.858 413.555 317.123 414.423C315.857 415.919 315.696 417.1 316.56 419.107C316.915 419.933 317.687 420.154 318.485 420.291C319.305 420.431 320.109 420.275 320.913 420.144C322.187 419.936 324.215 419.617 325.325 419.631C326.58 419.646 327.975 419.856 328.996 419.997C330.141 420.154 331.28 420.278 332.437 420.133C333.155 420.043 333.737 419.784 334.098 419.108C334.562 418.239 334.879 417.344 334.816 416.339C334.757 415.403 334.424 414.574 333.664 414.035H333.664ZM317.545 412.126C317.832 411.615 317.918 411.06 317.913 410.484C317.913 410.44 317.915 410.395 317.913 410.351C317.856 409.199 317.541 408.146 316.705 407.31C316.154 406.76 315.452 406.633 314.919 406.971C314.482 407.247 314.257 407.679 314.136 408.165C313.878 409.203 314.019 410.208 314.426 411.183C314.655 411.733 314.983 412.213 315.467 412.57C316.224 413.129 317.085 412.942 317.545 412.126V412.126ZM319.403 408.897C320.155 409.439 321.005 409.246 321.459 408.441C321.524 408.326 321.583 408.205 321.626 408.08C321.986 407.03 321.862 405.999 321.49 404.983C321.264 404.364 320.921 403.82 320.382 403.422C319.633 402.871 318.791 403.042 318.315 403.839C317.98 404.402 317.925 405.026 317.922 405.865C317.986 406.156 318.06 406.649 318.204 407.121C318.419 407.829 318.788 408.455 319.403 408.897ZM314.644 406.48C314.839 406.4 315.043 406.336 315.247 406.283C315.414 406.239 315.454 406.173 315.392 406.001C315.085 405.155 315.091 404.304 315.373 403.449C315.417 403.317 315.412 403.168 315.429 403.026C315.4 403.014 315.371 403.001 315.343 402.988C315.231 403.105 315.096 403.208 315.012 403.342C314.836 403.628 314.672 403.922 314.53 404.226C314.226 404.88 314.157 405.566 314.297 406.275C314.339 406.485 314.425 406.57 314.644 406.48H314.644ZM318.565 402.604C318.763 402.557 318.96 402.504 319.16 402.468C319.338 402.435 319.389 402.348 319.348 402.173C319.106 401.146 319.219 400.15 319.606 399.176C319.656 399.051 319.657 398.906 319.681 398.77C319.649 398.754 319.618 398.737 319.587 398.72C319.476 398.826 319.345 398.916 319.258 399.039C319.081 399.292 318.919 399.557 318.766 399.826C318.32 400.612 318.143 401.459 318.225 402.36C318.25 402.623 318.31 402.665 318.565 402.604L318.565 402.604Z" fill="white"/>
<g filter="url(#filter2_d_2001_2377)">
<path d="M290.429 669.109V713H110.429V654H289.071L338.884 609L290.429 669.109Z" fill="#F7F8FA"/>
<path d="M139.989 688L136.937 683.282L138.771 682.176L142.565 688H139.989ZM133.619 688V678.2H135.873V688H133.619ZM135.215 684.052V682.162H138.631V684.052H135.215ZM138.981 683.352L136.895 683.1L140.073 678.2H142.467L138.981 683.352ZM143.637 688V680.468H145.807V684.948L149.475 680.468H151.477V688H149.307V683.52L145.653 688H143.637ZM158.014 688.112C157.38 688.112 156.824 687.972 156.348 687.692C155.872 687.412 155.499 686.987 155.228 686.418C154.967 685.839 154.836 685.111 154.836 684.234C154.836 683.347 154.962 682.619 155.214 682.05C155.466 681.481 155.83 681.056 156.306 680.776C156.782 680.496 157.352 680.356 158.014 680.356C158.724 680.356 159.358 680.519 159.918 680.846C160.488 681.163 160.936 681.611 161.262 682.19C161.598 682.769 161.766 683.45 161.766 684.234C161.766 685.027 161.598 685.713 161.262 686.292C160.936 686.871 160.488 687.319 159.918 687.636C159.358 687.953 158.724 688.112 158.014 688.112ZM153.562 690.716V680.468H155.648V682.008L155.606 684.248L155.746 686.474V690.716H153.562ZM157.636 686.32C158 686.32 158.322 686.236 158.602 686.068C158.892 685.9 159.12 685.662 159.288 685.354C159.466 685.037 159.554 684.663 159.554 684.234C159.554 683.795 159.466 683.422 159.288 683.114C159.12 682.806 158.892 682.568 158.602 682.4C158.322 682.232 158 682.148 157.636 682.148C157.272 682.148 156.946 682.232 156.656 682.4C156.367 682.568 156.138 682.806 155.97 683.114C155.802 683.422 155.718 683.795 155.718 684.234C155.718 684.663 155.802 685.037 155.97 685.354C156.138 685.662 156.367 685.9 156.656 686.068C156.946 686.236 157.272 686.32 157.636 686.32ZM166.825 688.112C166.022 688.112 165.308 687.944 164.683 687.608C164.067 687.272 163.577 686.815 163.213 686.236C162.858 685.648 162.681 684.981 162.681 684.234C162.681 683.478 162.858 682.811 163.213 682.232C163.577 681.644 164.067 681.187 164.683 680.86C165.308 680.524 166.022 680.356 166.825 680.356C167.618 680.356 168.328 680.524 168.953 680.86C169.578 681.187 170.068 681.639 170.423 682.218C170.778 682.797 170.955 683.469 170.955 684.234C170.955 684.981 170.778 685.648 170.423 686.236C170.068 686.815 169.578 687.272 168.953 687.608C168.328 687.944 167.618 688.112 166.825 688.112ZM166.825 686.32C167.189 686.32 167.516 686.236 167.805 686.068C168.094 685.9 168.323 685.662 168.491 685.354C168.659 685.037 168.743 684.663 168.743 684.234C168.743 683.795 168.659 683.422 168.491 683.114C168.323 682.806 168.094 682.568 167.805 682.4C167.516 682.232 167.189 682.148 166.825 682.148C166.461 682.148 166.134 682.232 165.845 682.4C165.556 682.568 165.322 682.806 165.145 683.114C164.977 683.422 164.893 683.795 164.893 684.234C164.893 684.663 164.977 685.037 165.145 685.354C165.322 685.662 165.556 685.9 165.845 686.068C166.134 686.236 166.461 686.32 166.825 686.32ZM172.457 688V680.468H176.307C177.25 680.468 177.987 680.641 178.519 680.986C179.051 681.322 179.317 681.798 179.317 682.414C179.317 683.03 179.065 683.515 178.561 683.87C178.067 684.215 177.409 684.388 176.587 684.388L176.811 683.884C177.726 683.884 178.407 684.052 178.855 684.388C179.313 684.724 179.541 685.214 179.541 685.858C179.541 686.521 179.289 687.043 178.785 687.426C178.281 687.809 177.511 688 176.475 688H172.457ZM174.459 686.516H176.293C176.695 686.516 176.993 686.451 177.189 686.32C177.395 686.18 177.497 685.97 177.497 685.69C177.497 685.401 177.404 685.191 177.217 685.06C177.031 684.92 176.737 684.85 176.335 684.85H174.459V686.516ZM174.459 683.562H176.111C176.494 683.562 176.779 683.492 176.965 683.352C177.161 683.212 177.259 683.011 177.259 682.75C177.259 682.479 177.161 682.279 176.965 682.148C176.779 682.017 176.494 681.952 176.111 681.952H174.459V683.562ZM184.75 688.112C183.938 688.112 183.215 687.949 182.58 687.622C181.946 687.286 181.446 686.824 181.082 686.236C180.728 685.648 180.55 684.981 180.55 684.234C180.55 683.478 180.728 682.811 181.082 682.232C181.446 681.644 181.946 681.187 182.58 680.86C183.215 680.524 183.938 680.356 184.75 680.356C185.544 680.356 186.234 680.524 186.822 680.86C187.41 681.187 187.844 681.658 188.124 682.274L186.43 683.184C186.234 682.829 185.987 682.568 185.688 682.4C185.399 682.232 185.082 682.148 184.736 682.148C184.363 682.148 184.027 682.232 183.728 682.4C183.43 682.568 183.192 682.806 183.014 683.114C182.846 683.422 182.762 683.795 182.762 684.234C182.762 684.673 182.846 685.046 183.014 685.354C183.192 685.662 183.43 685.9 183.728 686.068C184.027 686.236 184.363 686.32 184.736 686.32C185.082 686.32 185.399 686.241 185.688 686.082C185.987 685.914 186.234 685.648 186.43 685.284L188.124 686.208C187.844 686.815 187.41 687.286 186.822 687.622C186.234 687.949 185.544 688.112 184.75 688.112ZM194.785 688L192.265 684.43L194.043 683.38L197.361 688H194.785ZM189.451 688V680.468H191.635V688H189.451ZM190.991 685.144V683.394H193.623V685.144H190.991ZM194.253 684.486L192.209 684.262L194.855 680.468H197.179L194.253 684.486ZM198.434 688V680.468H200.604V684.948L204.272 680.468H206.274V688H204.104V683.52L200.45 688H198.434ZM208.373 688V680.468H210.543V684.948L214.211 680.468H216.213V688H214.043V683.52L210.389 688H208.373ZM212.153 679.656C211.332 679.656 210.716 679.479 210.305 679.124C209.895 678.76 209.685 678.214 209.675 677.486H211.103C211.113 677.803 211.201 678.055 211.369 678.242C211.537 678.429 211.794 678.522 212.139 678.522C212.475 678.522 212.732 678.429 212.909 678.242C213.096 678.055 213.189 677.803 213.189 677.486H214.645C214.645 678.214 214.435 678.76 214.015 679.124C213.595 679.479 212.975 679.656 212.153 679.656ZM225.806 688.112C225.003 688.112 224.289 687.944 223.664 687.608C223.048 687.272 222.558 686.815 222.194 686.236C221.839 685.648 221.662 684.981 221.662 684.234C221.662 683.478 221.839 682.811 222.194 682.232C222.558 681.644 223.048 681.187 223.664 680.86C224.289 680.524 225.003 680.356 225.806 680.356C226.599 680.356 227.308 680.524 227.934 680.86C228.559 681.187 229.049 681.639 229.404 682.218C229.758 682.797 229.936 683.469 229.936 684.234C229.936 684.981 229.758 685.648 229.404 686.236C229.049 686.815 228.559 687.272 227.934 687.608C227.308 687.944 226.599 688.112 225.806 688.112ZM225.806 686.32C226.17 686.32 226.496 686.236 226.786 686.068C227.075 685.9 227.304 685.662 227.472 685.354C227.64 685.037 227.724 684.663 227.724 684.234C227.724 683.795 227.64 683.422 227.472 683.114C227.304 682.806 227.075 682.568 226.786 682.4C226.496 682.232 226.17 682.148 225.806 682.148C225.442 682.148 225.115 682.232 224.826 682.4C224.536 682.568 224.303 682.806 224.126 683.114C223.958 683.422 223.874 683.795 223.874 684.234C223.874 684.663 223.958 685.037 224.126 685.354C224.303 685.662 224.536 685.9 224.826 686.068C225.115 686.236 225.442 686.32 225.806 686.32ZM236.772 688L234.252 684.43L236.03 683.38L239.348 688H236.772ZM231.438 688V680.468H233.622V688H231.438ZM232.978 685.144V683.394H235.61V685.144H232.978ZM236.24 684.486L234.196 684.262L236.842 680.468H239.166L236.24 684.486ZM244.858 688.112C244.223 688.112 243.668 687.972 243.192 687.692C242.716 687.412 242.343 686.987 242.072 686.418C241.811 685.839 241.68 685.111 241.68 684.234C241.68 683.347 241.806 682.619 242.058 682.05C242.31 681.481 242.674 681.056 243.15 680.776C243.626 680.496 244.195 680.356 244.858 680.356C245.567 680.356 246.202 680.519 246.762 680.846C247.331 681.163 247.779 681.611 248.106 682.19C248.442 682.769 248.61 683.45 248.61 684.234C248.61 685.027 248.442 685.713 248.106 686.292C247.779 686.871 247.331 687.319 246.762 687.636C246.202 687.953 245.567 688.112 244.858 688.112ZM240.406 690.716V680.468H242.492V682.008L242.45 684.248L242.59 686.474V690.716H240.406ZM244.48 686.32C244.844 686.32 245.166 686.236 245.446 686.068C245.735 685.9 245.964 685.662 246.132 685.354C246.309 685.037 246.398 684.663 246.398 684.234C246.398 683.795 246.309 683.422 246.132 683.114C245.964 682.806 245.735 682.568 245.446 682.4C245.166 682.232 244.844 682.148 244.48 682.148C244.116 682.148 243.789 682.232 243.5 682.4C243.211 682.568 242.982 682.806 242.814 683.114C242.646 683.422 242.562 683.795 242.562 684.234C242.562 684.663 242.646 685.037 242.814 685.354C242.982 685.662 243.211 685.9 243.5 686.068C243.789 686.236 244.116 686.32 244.48 686.32ZM250.958 690.828C250.566 690.828 250.178 690.767 249.796 690.646C249.413 690.525 249.1 690.357 248.858 690.142L249.656 688.588C249.824 688.737 250.015 688.854 250.23 688.938C250.454 689.022 250.673 689.064 250.888 689.064C251.196 689.064 251.438 688.989 251.616 688.84C251.802 688.7 251.97 688.462 252.12 688.126L252.512 687.202L252.68 686.964L255.382 680.468H257.482L254.08 688.462C253.837 689.069 253.557 689.545 253.24 689.89C252.932 690.235 252.586 690.478 252.204 690.618C251.83 690.758 251.415 690.828 250.958 690.828ZM252.246 688.294L248.886 680.468H251.14L253.744 686.768L252.246 688.294ZM258.535 688V680.468H264.569V682.26H260.215L260.705 681.784V688H258.535Z" fill="#032154"/>
</g>
<path d="M325.429 633.942C329.554 633.942 341.929 618.064 341.929 608.811C341.929 599.559 334.541 592.058 325.429 592.058C316.316 592.058 308.929 599.559 308.929 608.811C308.929 618.064 321.304 633.942 325.429 633.942Z" fill="#032154"/>
<path d="M331.128 607.952C331.272 607.868 331.409 607.763 331.528 607.646C332.44 606.749 332.785 605.619 332.859 604.267C332.821 604.039 332.796 603.698 332.704 603.378C332.32 602.041 331.148 601.723 330.141 602.677C329.443 603.337 329.099 604.186 328.922 605.108C328.794 605.779 328.803 606.449 329.037 607.103C329.389 608.088 330.275 608.451 331.128 607.953L331.128 607.952ZM325.404 599.991C326.068 600.008 326.153 599.83 326.062 599.388C325.902 598.608 325.751 597.287 325.582 596.238C325.561 596.107 325.46 595.989 325.396 595.865C325.345 595.997 325.265 596.125 325.248 596.261C325.116 597.308 324.996 598.356 324.872 599.403C324.803 599.981 324.803 599.976 325.405 599.992L325.404 599.991ZM331.419 600.71C331.394 600.942 331.283 601.25 331.388 601.386C331.504 601.535 331.822 601.527 332.054 601.585C332.398 601.671 332.431 601.651 332.46 601.29C332.565 600.005 332.095 598.915 331.313 597.935C331.247 597.853 331.146 597.798 331.061 597.73C331.033 597.748 331.004 597.765 330.976 597.783C331.009 597.934 331.021 598.095 331.079 598.237C331.405 599.033 331.514 599.856 331.42 600.71H331.419ZM336.786 607.373C336.648 606.732 336.372 606.181 335.666 606.03C335.07 605.903 334.572 606.166 334.139 606.549C333.269 607.317 332.82 608.314 332.643 609.441C332.555 610.002 332.601 610.559 332.848 611.081C333.141 611.7 333.714 612.013 334.347 611.845C334.646 611.766 334.954 611.62 335.193 611.425C336.277 610.542 336.748 609.35 336.852 608.005C336.829 607.778 336.828 607.571 336.785 607.373H336.786ZM335.591 602.366C335.905 603.262 335.913 604.154 335.593 605.051C335.574 605.104 335.642 605.234 335.7 605.259C335.902 605.346 336.122 605.391 336.326 605.475C336.551 605.567 336.646 605.498 336.692 605.267C336.932 604.077 336.527 603.071 335.825 602.147C335.78 602.088 335.706 602.051 335.646 602.005C335.62 602.016 335.595 602.027 335.57 602.039C335.575 602.148 335.557 602.267 335.591 602.366V602.366ZM324.225 606.38C324.581 606.796 325.023 607.035 325.585 606.911C326.098 606.798 326.422 606.435 326.673 606.001C327.066 605.322 327.195 604.577 327.204 603.865C327.199 603.028 327.054 602.287 326.651 601.613C325.975 600.483 324.787 600.443 324.065 601.537C323.508 602.38 323.387 603.336 323.463 604.318C323.522 605.072 323.721 605.788 324.225 606.38ZM333.664 613.035C332.786 612.412 331.847 611.866 330.9 611.351C330.318 611.034 329.786 610.724 329.491 610.087C329.31 609.696 329.044 609.343 328.804 608.98C328.491 608.506 328.068 608.142 327.523 607.992C326.056 607.588 324.584 607.57 323.134 608.089C322.582 608.287 322.196 608.68 321.945 609.208C321.831 609.449 321.719 609.69 321.606 609.931C321.446 610.274 321.209 610.537 320.871 610.717C320.49 610.92 320.115 611.135 319.75 611.365C318.806 611.962 317.858 612.555 317.123 613.423C315.857 614.919 315.696 616.1 316.56 618.107C316.915 618.933 317.687 619.154 318.485 619.291C319.305 619.431 320.109 619.275 320.913 619.144C322.187 618.936 324.215 618.617 325.325 618.631C326.58 618.646 327.975 618.856 328.996 618.997C330.141 619.154 331.28 619.278 332.437 619.133C333.155 619.043 333.737 618.784 334.098 618.108C334.562 617.239 334.879 616.344 334.816 615.339C334.757 614.403 334.424 613.574 333.664 613.035H333.664ZM317.545 611.126C317.832 610.615 317.918 610.06 317.913 609.484C317.913 609.44 317.915 609.395 317.913 609.351C317.856 608.199 317.541 607.146 316.705 606.31C316.154 605.76 315.452 605.633 314.919 605.971C314.482 606.247 314.257 606.679 314.136 607.165C313.878 608.203 314.019 609.208 314.426 610.183C314.655 610.733 314.983 611.213 315.467 611.57C316.224 612.129 317.085 611.942 317.545 611.126V611.126ZM319.403 607.897C320.155 608.439 321.005 608.246 321.459 607.441C321.524 607.326 321.583 607.205 321.626 607.08C321.986 606.03 321.862 604.999 321.49 603.983C321.264 603.364 320.921 602.82 320.382 602.422C319.633 601.871 318.791 602.042 318.315 602.839C317.98 603.402 317.925 604.026 317.922 604.865C317.986 605.156 318.06 605.649 318.204 606.121C318.419 606.829 318.788 607.455 319.403 607.897ZM314.644 605.48C314.839 605.4 315.043 605.336 315.247 605.283C315.414 605.239 315.454 605.173 315.392 605.001C315.085 604.155 315.091 603.304 315.373 602.449C315.417 602.317 315.412 602.168 315.429 602.026C315.4 602.014 315.371 602.001 315.343 601.988C315.231 602.105 315.096 602.208 315.012 602.342C314.836 602.628 314.672 602.922 314.53 603.226C314.226 603.88 314.157 604.566 314.297 605.275C314.339 605.485 314.425 605.57 314.644 605.48H314.644ZM318.565 601.604C318.763 601.557 318.96 601.504 319.16 601.468C319.338 601.435 319.389 601.348 319.348 601.173C319.106 600.146 319.219 599.15 319.606 598.176C319.656 598.051 319.657 597.906 319.681 597.77C319.649 597.754 319.618 597.737 319.587 597.72C319.476 597.826 319.345 597.916 319.258 598.039C319.081 598.292 318.919 598.557 318.766 598.826C318.32 599.612 318.143 600.459 318.225 601.36C318.25 601.623 318.31 601.665 318.565 601.604L318.565 601.604Z" fill="white"/>
<g filter="url(#filter3_d_2001_2377)">
<path d="M812.474 564H624.135L589.429 589L619.474 549.951V505H812.474V564Z" fill="#F7F8FA"/>
<path d="M645.337 539.168C644.562 539.168 643.843 539.042 643.181 538.79C642.527 538.538 641.958 538.183 641.473 537.726C640.997 537.269 640.623 536.732 640.353 536.116C640.091 535.5 639.961 534.828 639.961 534.1C639.961 533.372 640.091 532.7 640.353 532.084C640.623 531.468 641.001 530.931 641.487 530.474C641.972 530.017 642.541 529.662 643.195 529.41C643.848 529.158 644.557 529.032 645.323 529.032C646.097 529.032 646.807 529.158 647.451 529.41C648.104 529.662 648.669 530.017 649.145 530.474C649.63 530.931 650.008 531.468 650.279 532.084C650.549 532.691 650.685 533.363 650.685 534.1C650.685 534.828 650.549 535.505 650.279 536.13C650.008 536.746 649.63 537.283 649.145 537.74C648.669 538.188 648.104 538.538 647.451 538.79C646.807 539.042 646.102 539.168 645.337 539.168ZM645.323 537.236C645.761 537.236 646.163 537.161 646.527 537.012C646.9 536.863 647.227 536.648 647.507 536.368C647.787 536.088 648.001 535.757 648.151 535.374C648.309 534.991 648.389 534.567 648.389 534.1C648.389 533.633 648.309 533.209 648.151 532.826C648.001 532.443 647.787 532.112 647.507 531.832C647.236 531.552 646.914 531.337 646.541 531.188C646.167 531.039 645.761 530.964 645.323 530.964C644.884 530.964 644.478 531.039 644.105 531.188C643.741 531.337 643.419 531.552 643.139 531.832C642.859 532.112 642.639 532.443 642.481 532.826C642.331 533.209 642.257 533.633 642.257 534.1C642.257 534.557 642.331 534.982 642.481 535.374C642.639 535.757 642.854 536.088 643.125 536.368C643.405 536.648 643.731 536.863 644.105 537.012C644.478 537.161 644.884 537.236 645.323 537.236ZM657.598 539L655.078 535.43L656.856 534.38L660.174 539H657.598ZM652.264 539V531.468H654.448V539H652.264ZM653.804 536.144V534.394H656.436V536.144H653.804ZM657.066 535.486L655.022 535.262L657.668 531.468H659.992L657.066 535.486ZM662.788 539V532.756L663.278 533.26H660.24V531.468H667.506V533.26H664.468L664.958 532.756V539H662.788ZM673.348 539V536.494L673.656 536.844H671.57C670.487 536.844 669.638 536.62 669.022 536.172C668.406 535.724 668.098 535.08 668.098 534.24C668.098 533.344 668.42 532.658 669.064 532.182C669.717 531.706 670.594 531.468 671.696 531.468H675.294V539H673.348ZM667.986 539L669.988 536.13H672.214L670.31 539H667.986ZM673.348 535.822V532.686L673.656 533.246H671.738C671.29 533.246 670.94 533.33 670.688 533.498C670.445 533.666 670.324 533.937 670.324 534.31C670.324 535.029 670.786 535.388 671.71 535.388H673.656L673.348 535.822ZM681.131 539.168C680.515 539.168 679.955 539.079 679.451 538.902C678.947 538.715 678.508 538.431 678.135 538.048C677.771 537.656 677.486 537.157 677.281 536.55C677.085 535.943 676.987 535.22 676.987 534.38C676.987 533.783 677.038 533.237 677.141 532.742C677.243 532.247 677.397 531.799 677.603 531.398C677.808 530.987 678.069 530.628 678.387 530.32C678.713 530.003 679.091 529.741 679.521 529.536C679.959 529.321 680.454 529.158 681.005 529.046L684.589 528.332L684.883 530.208L681.719 530.838C681.532 530.875 681.317 530.927 681.075 530.992C680.841 531.048 680.603 531.137 680.361 531.258C680.127 531.379 679.908 531.552 679.703 531.776C679.507 531.991 679.348 532.275 679.227 532.63C679.105 532.975 679.045 533.405 679.045 533.918C679.045 534.077 679.049 534.198 679.059 534.282C679.077 534.366 679.091 534.455 679.101 534.548C679.119 534.641 679.129 534.786 679.129 534.982L678.429 534.296C678.634 533.857 678.895 533.484 679.213 533.176C679.539 532.868 679.913 532.635 680.333 532.476C680.762 532.308 681.238 532.224 681.761 532.224C682.47 532.224 683.091 532.369 683.623 532.658C684.164 532.938 684.584 533.335 684.883 533.848C685.181 534.361 685.331 534.945 685.331 535.598C685.331 536.307 685.153 536.933 684.799 537.474C684.444 538.006 683.949 538.421 683.315 538.72C682.689 539.019 681.961 539.168 681.131 539.168ZM681.243 537.474C681.607 537.474 681.929 537.395 682.209 537.236C682.489 537.068 682.703 536.849 682.853 536.578C683.011 536.298 683.091 535.985 683.091 535.64C683.091 535.304 683.011 535.005 682.853 534.744C682.703 534.483 682.489 534.277 682.209 534.128C681.929 533.979 681.602 533.904 681.229 533.904C680.865 533.904 680.538 533.979 680.249 534.128C679.959 534.268 679.735 534.464 679.577 534.716C679.418 534.968 679.339 535.262 679.339 535.598C679.339 535.943 679.418 536.261 679.577 536.55C679.745 536.83 679.969 537.054 680.249 537.222C680.538 537.39 680.869 537.474 681.243 537.474ZM691.251 539.112C690.616 539.112 690.061 538.972 689.585 538.692C689.109 538.412 688.735 537.987 688.465 537.418C688.203 536.839 688.073 536.111 688.073 535.234C688.073 534.347 688.199 533.619 688.451 533.05C688.703 532.481 689.067 532.056 689.543 531.776C690.019 531.496 690.588 531.356 691.251 531.356C691.96 531.356 692.595 531.519 693.155 531.846C693.724 532.163 694.172 532.611 694.499 533.19C694.835 533.769 695.003 534.45 695.003 535.234C695.003 536.027 694.835 536.713 694.499 537.292C694.172 537.871 693.724 538.319 693.155 538.636C692.595 538.953 691.96 539.112 691.251 539.112ZM686.799 541.716V531.468H688.885V533.008L688.843 535.248L688.983 537.474V541.716H686.799ZM690.873 537.32C691.237 537.32 691.559 537.236 691.839 537.068C692.128 536.9 692.357 536.662 692.525 536.354C692.702 536.037 692.791 535.663 692.791 535.234C692.791 534.795 692.702 534.422 692.525 534.114C692.357 533.806 692.128 533.568 691.839 533.4C691.559 533.232 691.237 533.148 690.873 533.148C690.509 533.148 690.182 533.232 689.893 533.4C689.603 533.568 689.375 533.806 689.207 534.114C689.039 534.422 688.955 534.795 688.955 535.234C688.955 535.663 689.039 536.037 689.207 536.354C689.375 536.662 689.603 536.9 689.893 537.068C690.182 537.236 690.509 537.32 690.873 537.32ZM700.313 539.014L696.533 539V531.468H698.703V533.876H700.607C701.597 533.885 702.348 534.109 702.861 534.548C703.384 534.977 703.645 535.589 703.645 536.382C703.645 537.213 703.351 537.861 702.763 538.328C702.175 538.785 701.359 539.014 700.313 539.014ZM700.117 537.46C700.537 537.469 700.859 537.381 701.083 537.194C701.307 537.007 701.419 536.727 701.419 536.354C701.419 535.981 701.307 535.715 701.083 535.556C700.859 535.388 700.537 535.299 700.117 535.29L698.703 535.276V537.46H700.117ZM708.594 539.112C707.782 539.112 707.059 538.949 706.424 538.622C705.789 538.286 705.29 537.824 704.926 537.236C704.571 536.648 704.394 535.981 704.394 535.234C704.394 534.478 704.571 533.811 704.926 533.232C705.29 532.644 705.789 532.187 706.424 531.86C707.059 531.524 707.782 531.356 708.594 531.356C709.387 531.356 710.078 531.524 710.666 531.86C711.254 532.187 711.688 532.658 711.968 533.274L710.274 534.184C710.078 533.829 709.831 533.568 709.532 533.4C709.243 533.232 708.925 533.148 708.58 533.148C708.207 533.148 707.871 533.232 707.572 533.4C707.273 533.568 707.035 533.806 706.858 534.114C706.69 534.422 706.606 534.795 706.606 535.234C706.606 535.673 706.69 536.046 706.858 536.354C707.035 536.662 707.273 536.9 707.572 537.068C707.871 537.236 708.207 537.32 708.58 537.32C708.925 537.32 709.243 537.241 709.532 537.082C709.831 536.914 710.078 536.648 710.274 536.284L711.968 537.208C711.688 537.815 711.254 538.286 710.666 538.622C710.078 538.949 709.387 539.112 708.594 539.112ZM718.629 539L716.109 535.43L717.887 534.38L721.205 539H718.629ZM713.295 539V531.468H715.479V539H713.295ZM714.835 536.144V534.394H717.467V536.144H714.835ZM718.097 535.486L716.053 535.262L718.699 531.468H721.023L718.097 535.486ZM722.278 539V531.468H724.448V535.948L728.116 531.468H730.118V539H727.948V534.52L724.294 539H722.278ZM732.217 539V531.468H734.387V535.948L738.055 531.468H740.057V539H737.887V534.52L734.233 539H732.217ZM735.997 530.656C735.176 530.656 734.56 530.479 734.149 530.124C733.738 529.76 733.528 529.214 733.519 528.486H734.947C734.956 528.803 735.045 529.055 735.213 529.242C735.381 529.429 735.638 529.522 735.983 529.522C736.319 529.522 736.576 529.429 736.753 529.242C736.94 529.055 737.033 528.803 737.033 528.486H738.489C738.489 529.214 738.279 529.76 737.859 530.124C737.439 530.479 736.818 530.656 735.997 530.656ZM749.649 539.112C748.847 539.112 748.133 538.944 747.507 538.608C746.891 538.272 746.401 537.815 746.037 537.236C745.683 536.648 745.505 535.981 745.505 535.234C745.505 534.478 745.683 533.811 746.037 533.232C746.401 532.644 746.891 532.187 747.507 531.86C748.133 531.524 748.847 531.356 749.649 531.356C750.443 531.356 751.152 531.524 751.777 531.86C752.403 532.187 752.893 532.639 753.247 533.218C753.602 533.797 753.779 534.469 753.779 535.234C753.779 535.981 753.602 536.648 753.247 537.236C752.893 537.815 752.403 538.272 751.777 538.608C751.152 538.944 750.443 539.112 749.649 539.112ZM749.649 537.32C750.013 537.32 750.34 537.236 750.629 537.068C750.919 536.9 751.147 536.662 751.315 536.354C751.483 536.037 751.567 535.663 751.567 535.234C751.567 534.795 751.483 534.422 751.315 534.114C751.147 533.806 750.919 533.568 750.629 533.4C750.34 533.232 750.013 533.148 749.649 533.148C749.285 533.148 748.959 533.232 748.669 533.4C748.38 533.568 748.147 533.806 747.969 534.114C747.801 534.422 747.717 534.795 747.717 535.234C747.717 535.663 747.801 536.037 747.969 536.354C748.147 536.662 748.38 536.9 748.669 537.068C748.959 537.236 749.285 537.32 749.649 537.32ZM760.615 539L758.095 535.43L759.873 534.38L763.191 539H760.615ZM755.281 539V531.468H757.465V539H755.281ZM756.821 536.144V534.394H759.453V536.144H756.821ZM760.083 535.486L758.039 535.262L760.685 531.468H763.009L760.083 535.486ZM768.702 539.112C768.067 539.112 767.512 538.972 767.036 538.692C766.56 538.412 766.187 537.987 765.916 537.418C765.655 536.839 765.524 536.111 765.524 535.234C765.524 534.347 765.65 533.619 765.902 533.05C766.154 532.481 766.518 532.056 766.994 531.776C767.47 531.496 768.039 531.356 768.702 531.356C769.411 531.356 770.046 531.519 770.606 531.846C771.175 532.163 771.623 532.611 771.95 533.19C772.286 533.769 772.454 534.45 772.454 535.234C772.454 536.027 772.286 536.713 771.95 537.292C771.623 537.871 771.175 538.319 770.606 538.636C770.046 538.953 769.411 539.112 768.702 539.112ZM764.25 541.716V531.468H766.336V533.008L766.294 535.248L766.434 537.474V541.716H764.25ZM768.324 537.32C768.688 537.32 769.01 537.236 769.29 537.068C769.579 536.9 769.808 536.662 769.976 536.354C770.153 536.037 770.242 535.663 770.242 535.234C770.242 534.795 770.153 534.422 769.976 534.114C769.808 533.806 769.579 533.568 769.29 533.4C769.01 533.232 768.688 533.148 768.324 533.148C767.96 533.148 767.633 533.232 767.344 533.4C767.055 533.568 766.826 533.806 766.658 534.114C766.49 534.422 766.406 534.795 766.406 535.234C766.406 535.663 766.49 536.037 766.658 536.354C766.826 536.662 767.055 536.9 767.344 537.068C767.633 537.236 767.96 537.32 768.324 537.32ZM774.801 541.828C774.409 541.828 774.022 541.767 773.639 541.646C773.257 541.525 772.944 541.357 772.701 541.142L773.499 539.588C773.667 539.737 773.859 539.854 774.073 539.938C774.297 540.022 774.517 540.064 774.731 540.064C775.039 540.064 775.282 539.989 775.459 539.84C775.646 539.7 775.814 539.462 775.963 539.126L776.355 538.202L776.523 537.964L779.225 531.468H781.325L777.923 539.462C777.681 540.069 777.401 540.545 777.083 540.89C776.775 541.235 776.43 541.478 776.047 541.618C775.674 541.758 775.259 541.828 774.801 541.828ZM776.089 539.294L772.729 531.468H774.983L777.587 537.768L776.089 539.294ZM782.379 539V531.468H788.413V533.26H784.059L784.549 532.784V539H782.379Z" fill="#032154"/>
</g>
<g filter="url(#filter4_d_2001_2377)">
<path d="M538.357 764H713.474V823H536.474V780.048L506.429 741L538.357 764Z" fill="#F7F8FA"/>
<path d="M557.745 798.154C557.577 798.154 557.399 798.14 557.213 798.112C557.035 798.084 556.839 798.047 556.625 798L556.765 796.082C556.895 796.119 557.031 796.138 557.171 796.138C557.553 796.138 557.852 795.984 558.067 795.676C558.281 795.359 558.435 794.906 558.529 794.318C558.622 793.73 558.683 793.016 558.711 792.176L558.851 788.2H566.383V798H564.143V789.53L564.661 790.048H560.335L560.797 789.502L560.713 792.092C560.685 793.053 560.619 793.907 560.517 794.654C560.414 795.401 560.255 796.035 560.041 796.558C559.826 797.081 559.532 797.477 559.159 797.748C558.785 798.019 558.314 798.154 557.745 798.154ZM572.344 798.112C571.486 798.112 570.73 797.944 570.076 797.608C569.432 797.272 568.933 796.815 568.578 796.236C568.224 795.648 568.046 794.981 568.046 794.234C568.046 793.478 568.219 792.811 568.564 792.232C568.919 791.644 569.4 791.187 570.006 790.86C570.613 790.524 571.299 790.356 572.064 790.356C572.802 790.356 573.464 790.515 574.052 790.832C574.65 791.14 575.121 791.588 575.466 792.176C575.812 792.755 575.984 793.45 575.984 794.262C575.984 794.346 575.98 794.444 575.97 794.556C575.961 794.659 575.952 794.757 575.942 794.85H569.824V793.576H574.794L573.954 793.954C573.954 793.562 573.875 793.221 573.716 792.932C573.558 792.643 573.338 792.419 573.058 792.26C572.778 792.092 572.452 792.008 572.078 792.008C571.705 792.008 571.374 792.092 571.084 792.26C570.804 792.419 570.585 792.647 570.426 792.946C570.268 793.235 570.188 793.581 570.188 793.982V794.318C570.188 794.729 570.277 795.093 570.454 795.41C570.641 795.718 570.898 795.956 571.224 796.124C571.56 796.283 571.952 796.362 572.4 796.362C572.802 796.362 573.152 796.301 573.45 796.18C573.758 796.059 574.038 795.877 574.29 795.634L575.452 796.894C575.107 797.286 574.673 797.589 574.15 797.804C573.628 798.009 573.026 798.112 572.344 798.112ZM577.658 798V790.468H579.828V793.408H583.104V790.468H585.288V798H583.104V795.186H579.828V798H577.658ZM587.379 798V790.468H589.549V794.948L593.217 790.468H595.219V798H593.049V793.52L589.395 798H587.379ZM597.319 798V790.468H599.489V793.408H602.765V790.468H604.949V798H602.765V795.186H599.489V798H597.319ZM610.623 798.112C609.811 798.112 609.088 797.949 608.453 797.622C607.819 797.286 607.319 796.824 606.955 796.236C606.601 795.648 606.423 794.981 606.423 794.234C606.423 793.478 606.601 792.811 606.955 792.232C607.319 791.644 607.819 791.187 608.453 790.86C609.088 790.524 609.811 790.356 610.623 790.356C611.417 790.356 612.107 790.524 612.695 790.86C613.283 791.187 613.717 791.658 613.997 792.274L612.303 793.184C612.107 792.829 611.86 792.568 611.561 792.4C611.272 792.232 610.955 792.148 610.609 792.148C610.236 792.148 609.9 792.232 609.601 792.4C609.303 792.568 609.065 792.806 608.887 793.114C608.719 793.422 608.635 793.795 608.635 794.234C608.635 794.673 608.719 795.046 608.887 795.354C609.065 795.662 609.303 795.9 609.601 796.068C609.9 796.236 610.236 796.32 610.609 796.32C610.955 796.32 611.272 796.241 611.561 796.082C611.86 795.914 612.107 795.648 612.303 795.284L613.997 796.208C613.717 796.815 613.283 797.286 612.695 797.622C612.107 797.949 611.417 798.112 610.623 798.112ZM620.658 798L618.138 794.43L619.916 793.38L623.234 798H620.658ZM615.324 798V790.468H617.508V798H615.324ZM616.864 795.144V793.394H619.496V795.144H616.864ZM620.126 794.486L618.082 794.262L620.728 790.468H623.052L620.126 794.486ZM624.307 798V790.468H626.477V794.948L630.145 790.468H632.147V798H629.977V793.52L626.323 798H624.307ZM634.246 798V790.468H636.416V794.948L640.084 790.468H642.086V798H639.916V793.52L636.262 798H634.246ZM638.026 789.656C637.205 789.656 636.589 789.479 636.178 789.124C635.768 788.76 635.558 788.214 635.548 787.486H636.976C636.986 787.803 637.074 788.055 637.242 788.242C637.41 788.429 637.667 788.522 638.012 788.522C638.348 788.522 638.605 788.429 638.782 788.242C638.969 788.055 639.062 787.803 639.062 787.486H640.518C640.518 788.214 640.308 788.76 639.888 789.124C639.468 789.479 638.848 789.656 638.026 789.656ZM651.679 798.112C650.876 798.112 650.162 797.944 649.537 797.608C648.921 797.272 648.431 796.815 648.067 796.236C647.712 795.648 647.535 794.981 647.535 794.234C647.535 793.478 647.712 792.811 648.067 792.232C648.431 791.644 648.921 791.187 649.537 790.86C650.162 790.524 650.876 790.356 651.679 790.356C652.472 790.356 653.181 790.524 653.807 790.86C654.432 791.187 654.922 791.639 655.277 792.218C655.631 792.797 655.809 793.469 655.809 794.234C655.809 794.981 655.631 795.648 655.277 796.236C654.922 796.815 654.432 797.272 653.807 797.608C653.181 797.944 652.472 798.112 651.679 798.112ZM651.679 796.32C652.043 796.32 652.369 796.236 652.659 796.068C652.948 795.9 653.177 795.662 653.345 795.354C653.513 795.037 653.597 794.663 653.597 794.234C653.597 793.795 653.513 793.422 653.345 793.114C653.177 792.806 652.948 792.568 652.659 792.4C652.369 792.232 652.043 792.148 651.679 792.148C651.315 792.148 650.988 792.232 650.699 792.4C650.409 792.568 650.176 792.806 649.999 793.114C649.831 793.422 649.747 793.795 649.747 794.234C649.747 794.663 649.831 795.037 649.999 795.354C650.176 795.662 650.409 795.9 650.699 796.068C650.988 796.236 651.315 796.32 651.679 796.32ZM662.645 798L660.125 794.43L661.903 793.38L665.221 798H662.645ZM657.311 798V790.468H659.495V798H657.311ZM658.851 795.144V793.394H661.483V795.144H658.851ZM662.113 794.486L660.069 794.262L662.715 790.468H665.039L662.113 794.486ZM670.731 798.112C670.096 798.112 669.541 797.972 669.065 797.692C668.589 797.412 668.216 796.987 667.945 796.418C667.684 795.839 667.553 795.111 667.553 794.234C667.553 793.347 667.679 792.619 667.931 792.05C668.183 791.481 668.547 791.056 669.023 790.776C669.499 790.496 670.068 790.356 670.731 790.356C671.44 790.356 672.075 790.519 672.635 790.846C673.204 791.163 673.652 791.611 673.979 792.19C674.315 792.769 674.483 793.45 674.483 794.234C674.483 795.027 674.315 795.713 673.979 796.292C673.652 796.871 673.204 797.319 672.635 797.636C672.075 797.953 671.44 798.112 670.731 798.112ZM666.279 800.716V790.468H668.365V792.008L668.323 794.248L668.463 796.474V800.716H666.279ZM670.353 796.32C670.717 796.32 671.039 796.236 671.319 796.068C671.608 795.9 671.837 795.662 672.005 795.354C672.182 795.037 672.271 794.663 672.271 794.234C672.271 793.795 672.182 793.422 672.005 793.114C671.837 792.806 671.608 792.568 671.319 792.4C671.039 792.232 670.717 792.148 670.353 792.148C669.989 792.148 669.662 792.232 669.373 792.4C669.084 792.568 668.855 792.806 668.687 793.114C668.519 793.422 668.435 793.795 668.435 794.234C668.435 794.663 668.519 795.037 668.687 795.354C668.855 795.662 669.084 795.9 669.373 796.068C669.662 796.236 669.989 796.32 670.353 796.32ZM676.831 800.828C676.439 800.828 676.051 800.767 675.669 800.646C675.286 800.525 674.973 800.357 674.731 800.142L675.529 798.588C675.697 798.737 675.888 798.854 676.103 798.938C676.327 799.022 676.546 799.064 676.761 799.064C677.069 799.064 677.311 798.989 677.489 798.84C677.675 798.7 677.843 798.462 677.993 798.126L678.385 797.202L678.553 796.964L681.255 790.468H683.355L679.953 798.462C679.71 799.069 679.43 799.545 679.113 799.89C678.805 800.235 678.459 800.478 678.077 800.618C677.703 800.758 677.288 800.828 676.831 800.828ZM678.119 798.294L674.759 790.468H677.013L679.617 796.768L678.119 798.294ZM684.408 798V790.468H690.442V792.26H686.088L686.578 791.784V798H684.408Z" fill="#032154"/>
</g>
<path d="M583.429 609.942C587.554 609.942 599.929 594.064 599.929 584.811C599.929 575.559 592.541 568.058 583.429 568.058C574.316 568.058 566.929 575.559 566.929 584.811C566.929 594.064 579.304 609.942 583.429 609.942Z" fill="#032154"/>
<path d="M589.128 583.952C589.272 583.868 589.409 583.763 589.528 583.646C590.44 582.749 590.785 581.619 590.859 580.267C590.821 580.039 590.796 579.698 590.704 579.378C590.32 578.041 589.148 577.723 588.141 578.677C587.443 579.337 587.099 580.186 586.922 581.108C586.794 581.779 586.803 582.449 587.037 583.103C587.389 584.088 588.275 584.451 589.128 583.953L589.128 583.952ZM583.404 575.991C584.068 576.008 584.153 575.83 584.062 575.388C583.902 574.608 583.751 573.287 583.582 572.238C583.561 572.107 583.46 571.989 583.396 571.865C583.345 571.997 583.265 572.125 583.248 572.261C583.116 573.308 582.996 574.356 582.872 575.403C582.803 575.981 582.803 575.976 583.405 575.992L583.404 575.991ZM589.419 576.71C589.394 576.942 589.283 577.25 589.388 577.386C589.504 577.535 589.822 577.527 590.054 577.585C590.398 577.671 590.431 577.651 590.46 577.29C590.565 576.005 590.095 574.915 589.313 573.935C589.247 573.853 589.146 573.798 589.061 573.73C589.033 573.748 589.004 573.765 588.976 573.783C589.009 573.934 589.021 574.095 589.079 574.237C589.405 575.033 589.514 575.856 589.42 576.71H589.419ZM594.786 583.373C594.648 582.732 594.372 582.181 593.666 582.03C593.07 581.903 592.572 582.166 592.139 582.549C591.269 583.317 590.82 584.314 590.643 585.441C590.555 586.002 590.601 586.559 590.848 587.081C591.141 587.7 591.714 588.013 592.347 587.845C592.646 587.766 592.954 587.62 593.193 587.425C594.277 586.542 594.748 585.35 594.852 584.005C594.829 583.778 594.828 583.571 594.785 583.373H594.786ZM593.591 578.366C593.905 579.262 593.913 580.154 593.593 581.051C593.574 581.104 593.642 581.234 593.7 581.259C593.902 581.346 594.122 581.391 594.326 581.475C594.551 581.567 594.646 581.498 594.692 581.267C594.932 580.077 594.527 579.071 593.825 578.147C593.78 578.088 593.706 578.051 593.646 578.005C593.62 578.016 593.595 578.027 593.57 578.039C593.575 578.148 593.557 578.267 593.591 578.366V578.366ZM582.225 582.38C582.581 582.796 583.023 583.035 583.585 582.911C584.098 582.798 584.422 582.435 584.673 582.001C585.066 581.322 585.195 580.577 585.204 579.865C585.199 579.028 585.054 578.287 584.651 577.613C583.975 576.483 582.787 576.443 582.065 577.537C581.508 578.38 581.387 579.336 581.463 580.318C581.522 581.072 581.721 581.788 582.225 582.38ZM591.664 589.035C590.786 588.412 589.847 587.866 588.9 587.351C588.318 587.034 587.786 586.724 587.491 586.087C587.31 585.696 587.044 585.343 586.804 584.98C586.491 584.506 586.068 584.142 585.523 583.992C584.056 583.588 582.584 583.57 581.134 584.089C580.582 584.287 580.196 584.68 579.945 585.208C579.831 585.449 579.719 585.69 579.606 585.931C579.446 586.274 579.209 586.537 578.871 586.717C578.49 586.92 578.115 587.135 577.75 587.365C576.806 587.962 575.858 588.555 575.123 589.423C573.857 590.919 573.696 592.1 574.56 594.107C574.915 594.933 575.687 595.154 576.485 595.291C577.305 595.431 578.109 595.275 578.913 595.144C580.187 594.936 582.215 594.617 583.325 594.631C584.58 594.646 585.975 594.856 586.996 594.997C588.141 595.154 589.28 595.278 590.437 595.133C591.155 595.043 591.737 594.784 592.098 594.108C592.562 593.239 592.879 592.344 592.816 591.339C592.757 590.403 592.424 589.574 591.664 589.035H591.664ZM575.545 587.126C575.832 586.615 575.918 586.06 575.913 585.484C575.913 585.44 575.915 585.395 575.913 585.351C575.856 584.199 575.541 583.146 574.705 582.31C574.154 581.76 573.452 581.633 572.919 581.971C572.482 582.247 572.257 582.679 572.136 583.165C571.878 584.203 572.019 585.208 572.426 586.183C572.655 586.733 572.983 587.213 573.467 587.57C574.224 588.129 575.085 587.942 575.545 587.126V587.126ZM577.403 583.897C578.155 584.439 579.005 584.246 579.459 583.441C579.524 583.326 579.583 583.205 579.626 583.08C579.986 582.03 579.862 580.999 579.49 579.983C579.264 579.364 578.921 578.82 578.382 578.422C577.633 577.871 576.791 578.042 576.315 578.839C575.98 579.402 575.925 580.026 575.922 580.865C575.986 581.156 576.06 581.649 576.204 582.121C576.419 582.829 576.788 583.455 577.403 583.897ZM572.644 581.48C572.839 581.4 573.043 581.336 573.247 581.283C573.414 581.239 573.454 581.173 573.392 581.001C573.085 580.155 573.091 579.304 573.373 578.449C573.417 578.317 573.412 578.168 573.429 578.026C573.4 578.014 573.371 578.001 573.343 577.988C573.231 578.105 573.096 578.208 573.012 578.342C572.836 578.628 572.672 578.922 572.53 579.226C572.226 579.88 572.157 580.566 572.297 581.275C572.339 581.485 572.425 581.57 572.644 581.48H572.644ZM576.565 577.604C576.763 577.557 576.96 577.504 577.16 577.468C577.338 577.435 577.389 577.348 577.348 577.173C577.106 576.146 577.219 575.15 577.606 574.176C577.656 574.051 577.657 573.906 577.681 573.77C577.649 573.754 577.618 573.737 577.587 573.72C577.476 573.826 577.345 573.916 577.258 574.039C577.081 574.292 576.919 574.557 576.766 574.826C576.32 575.612 576.143 576.459 576.225 577.36C576.25 577.623 576.31 577.665 576.565 577.604L576.565 577.604Z" fill="white"/>
<path d="M506.429 751.942C510.554 751.942 522.929 736.064 522.929 726.811C522.929 717.559 515.541 710.058 506.429 710.058C497.316 710.058 489.929 717.559 489.929 726.811C489.929 736.064 502.304 751.942 506.429 751.942Z" fill="#032154"/>
<path d="M512.128 725.952C512.272 725.868 512.409 725.763 512.528 725.646C513.44 724.749 513.785 723.619 513.859 722.267C513.821 722.039 513.796 721.698 513.704 721.378C513.32 720.041 512.148 719.723 511.141 720.677C510.443 721.337 510.099 722.186 509.922 723.108C509.794 723.779 509.803 724.449 510.037 725.103C510.389 726.088 511.275 726.451 512.128 725.953L512.128 725.952ZM506.404 717.991C507.068 718.008 507.153 717.83 507.062 717.388C506.902 716.608 506.751 715.287 506.582 714.238C506.561 714.107 506.46 713.989 506.396 713.865C506.345 713.997 506.265 714.125 506.248 714.261C506.116 715.308 505.996 716.356 505.872 717.403C505.803 717.981 505.803 717.976 506.405 717.992L506.404 717.991ZM512.419 718.71C512.394 718.942 512.283 719.25 512.388 719.386C512.504 719.535 512.822 719.527 513.054 719.585C513.398 719.671 513.431 719.651 513.46 719.29C513.565 718.005 513.095 716.915 512.313 715.935C512.247 715.853 512.146 715.798 512.061 715.73C512.033 715.748 512.004 715.765 511.976 715.783C512.009 715.934 512.021 716.095 512.079 716.237C512.405 717.033 512.514 717.856 512.42 718.71H512.419ZM517.786 725.373C517.648 724.732 517.372 724.181 516.666 724.03C516.07 723.903 515.572 724.166 515.139 724.549C514.269 725.317 513.82 726.314 513.643 727.441C513.555 728.002 513.601 728.559 513.848 729.081C514.141 729.7 514.714 730.013 515.347 729.845C515.646 729.766 515.954 729.62 516.193 729.425C517.277 728.542 517.748 727.35 517.852 726.005C517.829 725.778 517.828 725.571 517.785 725.373H517.786ZM516.591 720.366C516.905 721.262 516.913 722.154 516.593 723.051C516.574 723.104 516.642 723.234 516.7 723.259C516.902 723.346 517.122 723.391 517.326 723.475C517.551 723.567 517.646 723.498 517.692 723.267C517.932 722.077 517.527 721.071 516.825 720.147C516.78 720.088 516.706 720.051 516.646 720.005C516.62 720.016 516.595 720.027 516.57 720.039C516.575 720.148 516.557 720.267 516.591 720.366V720.366ZM505.225 724.38C505.581 724.796 506.023 725.035 506.585 724.911C507.098 724.798 507.422 724.435 507.673 724.001C508.066 723.322 508.195 722.577 508.204 721.865C508.199 721.028 508.054 720.287 507.651 719.613C506.975 718.483 505.787 718.443 505.065 719.537C504.508 720.38 504.387 721.336 504.463 722.318C504.522 723.072 504.721 723.788 505.225 724.38ZM514.664 731.035C513.786 730.412 512.847 729.866 511.9 729.351C511.318 729.034 510.786 728.724 510.491 728.087C510.31 727.696 510.044 727.343 509.804 726.98C509.491 726.506 509.068 726.142 508.523 725.992C507.056 725.588 505.584 725.57 504.134 726.089C503.582 726.287 503.196 726.68 502.945 727.208C502.831 727.449 502.719 727.69 502.606 727.931C502.446 728.274 502.209 728.537 501.871 728.717C501.49 728.92 501.115 729.135 500.75 729.365C499.806 729.962 498.858 730.555 498.123 731.423C496.857 732.919 496.696 734.1 497.56 736.107C497.915 736.933 498.687 737.154 499.485 737.291C500.305 737.431 501.109 737.275 501.913 737.144C503.187 736.936 505.215 736.617 506.325 736.631C507.58 736.646 508.975 736.856 509.996 736.997C511.141 737.154 512.28 737.278 513.437 737.133C514.155 737.043 514.737 736.784 515.098 736.108C515.562 735.239 515.879 734.344 515.816 733.339C515.757 732.403 515.424 731.574 514.664 731.035H514.664ZM498.545 729.126C498.832 728.615 498.918 728.06 498.913 727.484C498.913 727.44 498.915 727.395 498.913 727.351C498.856 726.199 498.541 725.146 497.705 724.31C497.154 723.76 496.452 723.633 495.919 723.971C495.482 724.247 495.257 724.679 495.136 725.165C494.878 726.203 495.019 727.208 495.426 728.183C495.655 728.733 495.983 729.213 496.467 729.57C497.224 730.129 498.085 729.942 498.545 729.126V729.126ZM500.403 725.897C501.155 726.439 502.005 726.246 502.459 725.441C502.524 725.326 502.583 725.205 502.626 725.08C502.986 724.03 502.862 722.999 502.49 721.983C502.264 721.364 501.921 720.82 501.382 720.422C500.633 719.871 499.791 720.042 499.315 720.839C498.98 721.402 498.925 722.026 498.922 722.865C498.986 723.156 499.06 723.649 499.204 724.121C499.419 724.829 499.788 725.455 500.403 725.897ZM495.644 723.48C495.839 723.4 496.043 723.336 496.247 723.283C496.414 723.239 496.454 723.173 496.392 723.001C496.085 722.155 496.091 721.304 496.373 720.449C496.417 720.317 496.412 720.168 496.429 720.026C496.4 720.014 496.371 720.001 496.343 719.988C496.231 720.105 496.096 720.208 496.012 720.342C495.836 720.628 495.672 720.922 495.53 721.226C495.226 721.88 495.157 722.566 495.297 723.275C495.339 723.485 495.425 723.57 495.644 723.48H495.644ZM499.565 719.604C499.763 719.557 499.96 719.504 500.16 719.468C500.338 719.435 500.389 719.348 500.348 719.173C500.106 718.146 500.219 717.15 500.606 716.176C500.656 716.051 500.657 715.906 500.681 715.77C500.649 715.754 500.618 715.737 500.587 715.72C500.476 715.826 500.345 715.916 500.258 716.039C500.081 716.292 499.919 716.557 499.766 716.826C499.32 717.612 499.143 718.459 499.225 719.36C499.25 719.623 499.31 719.665 499.565 719.604L499.565 719.604Z" fill="white"/>
<defs>
<filter id="filter0_d_2001_2377" x="469.029" y="358" width="287.845" height="152.9" filterUnits="userSpaceOnUse" color-interpolation-filters="sRGB">
<feFlood flood-opacity="0" result="BackgroundImageFix"/>
<feColorMatrix in="SourceAlpha" type="matrix" values="0 0 0 0 0 0 0 0 0 0 0 0 0 0 0 0 0 0 127 0" result="hardAlpha"/>
<feOffset dy="20"/>
<feGaussianBlur stdDeviation="9.95"/>
<feComposite in2="hardAlpha" operator="out"/>
<feColorMatrix type="matrix" values="0 0 0 0 0.47451 0 0 0 0 0.627451 0 0 0 0 0.756863 0 0 0 0.27 0"/>
<feBlend mode="normal" in2="BackgroundImageFix" result="effect1_dropShadow_2001_2377"/>
<feBlend mode="normal" in="SourceGraphic" in2="effect1_dropShadow_2001_2377" result="shape"/>
</filter>
<filter id="filter1_d_2001_2377" x="66.5287" y="301" width="268.255" height="152.9" filterUnits="userSpaceOnUse" color-interpolation-filters="sRGB">
<feFlood flood-opacity="0" result="BackgroundImageFix"/>
<feColorMatrix in="SourceAlpha" type="matrix" values="0 0 0 0 0 0 0 0 0 0 0 0 0 0 0 0 0 0 127 0" result="hardAlpha"/>
<feOffset dy="20"/>
<feGaussianBlur stdDeviation="9.95"/>
<feComposite in2="hardAlpha" operator="out"/>
<feColorMatrix type="matrix" values="0 0 0 0 0.47451 0 0 0 0 0.627451 0 0 0 0 0.756863 0 0 0 0.27 0"/>
<feBlend mode="normal" in2="BackgroundImageFix" result="effect1_dropShadow_2001_2377"/>
<feBlend mode="normal" in="SourceGraphic" in2="effect1_dropShadow_2001_2377" result="shape"/>
</filter>
<filter id="filter2_d_2001_2377" x="90.5287" y="609" width="268.255" height="143.9" filterUnits="userSpaceOnUse" color-interpolation-filters="sRGB">
<feFlood flood-opacity="0" result="BackgroundImageFix"/>
<feColorMatrix in="SourceAlpha" type="matrix" values="0 0 0 0 0 0 0 0 0 0 0 0 0 0 0 0 0 0 127 0" result="hardAlpha"/>
<feOffset dy="20"/>
<feGaussianBlur stdDeviation="9.95"/>
<feComposite in2="hardAlpha" operator="out"/>
<feColorMatrix type="matrix" values="0 0 0 0 0.47451 0 0 0 0 0.627451 0 0 0 0 0.756863 0 0 0 0.27 0"/>
<feBlend mode="normal" in2="BackgroundImageFix" result="effect1_dropShadow_2001_2377"/>
<feBlend mode="normal" in="SourceGraphic" in2="effect1_dropShadow_2001_2377" result="shape"/>
</filter>
<filter id="filter3_d_2001_2377" x="569.529" y="505" width="262.845" height="123.9" filterUnits="userSpaceOnUse" color-interpolation-filters="sRGB">
<feFlood flood-opacity="0" result="BackgroundImageFix"/>
<feColorMatrix in="SourceAlpha" type="matrix" values="0 0 0 0 0 0 0 0 0 0 0 0 0 0 0 0 0 0 127 0" result="hardAlpha"/>
<feOffset dy="20"/>
<feGaussianBlur stdDeviation="9.95"/>
<feComposite in2="hardAlpha" operator="out"/>
<feColorMatrix type="matrix" values="0 0 0 0 0.47451 0 0 0 0 0.627451 0 0 0 0 0.756863 0 0 0 0.27 0"/>
<feBlend mode="normal" in2="BackgroundImageFix" result="effect1_dropShadow_2001_2377"/>
<feBlend mode="normal" in="SourceGraphic" in2="effect1_dropShadow_2001_2377" result="shape"/>
</filter>
<filter id="filter4_d_2001_2377" x="486.529" y="741" width="246.845" height="121.9" filterUnits="userSpaceOnUse" color-interpolation-filters="sRGB">
<feFlood flood-opacity="0" result="BackgroundImageFix"/>
<feColorMatrix in="SourceAlpha" type="matrix" values="0 0 0 0 0 0 0 0 0 0 0 0 0 0 0 0 0 0 127 0" result="hardAlpha"/>
<feOffset dy="20"/>
<feGaussianBlur stdDeviation="9.95"/>
<feComposite in2="hardAlpha" operator="out"/>
<feColorMatrix type="matrix" values="0 0 0 0 0.47451 0 0 0 0 0.627451 0 0 0 0 0.756863 0 0 0 0.27 0"/>
<feBlend mode="normal" in2="BackgroundImageFix" result="effect1_dropShadow_2001_2377"/>
<feBlend mode="normal" in="SourceGraphic" in2="effect1_dropShadow_2001_2377" result="shape"/>
</filter>
</defs>
</svg>
