<svg width="882" height="1107" viewBox="0 0 882 1107" fill="none" xmlns="http://www.w3.org/2000/svg">
<g filter="url(#filter0_d_2001_2217)">
<path d="M264 335H263.951L287.5 378L252.609 335H76V276H264V335Z" fill="#F7F8FA"/>
<path d="M106.56 310L104.012 306.052H102.444V310H100.19V300.2H102.444V304.162H104.068L106.644 300.2H109.038L105.832 304.932L109.136 310H106.56ZM110.208 310V302.468H112.378V306.948L116.046 302.468H118.048V310H115.878V305.52L112.224 310H110.208ZM124.586 302.356C126.7 302.356 128.338 303.868 128.338 306.234C128.338 308.6 126.7 310.112 124.586 310.112C123.648 310.112 122.878 309.818 122.318 309.202V312.716H120.134V302.468H122.22V303.336C122.766 302.678 123.578 302.356 124.586 302.356ZM124.208 308.32C125.3 308.32 126.126 307.536 126.126 306.234C126.126 304.932 125.3 304.148 124.208 304.148C123.116 304.148 122.29 304.932 122.29 306.234C122.29 307.536 123.116 308.32 124.208 308.32ZM133.396 310.112C131.002 310.112 129.252 308.502 129.252 306.234C129.252 303.966 131.002 302.356 133.396 302.356C135.79 302.356 137.526 303.966 137.526 306.234C137.526 308.502 135.79 310.112 133.396 310.112ZM133.396 308.32C134.488 308.32 135.314 307.536 135.314 306.234C135.314 304.932 134.488 304.148 133.396 304.148C132.304 304.148 131.464 304.932 131.464 306.234C131.464 307.536 132.304 308.32 133.396 308.32ZM144.783 306.066C145.665 306.36 146.113 306.962 146.113 307.858C146.113 309.188 145.119 310 143.047 310H139.029V302.468H142.879C144.769 302.468 145.889 303.182 145.889 304.414C145.889 305.17 145.483 305.744 144.783 306.066ZM141.031 303.952V305.562H142.683C143.439 305.562 143.831 305.282 143.831 304.75C143.831 304.204 143.439 303.952 142.683 303.952H141.031ZM142.865 308.516C143.663 308.516 144.069 308.25 144.069 307.69C144.069 307.116 143.705 306.85 142.907 306.85H141.031V308.516H142.865ZM151.322 310.112C148.872 310.112 147.122 308.502 147.122 306.234C147.122 303.966 148.872 302.356 151.322 302.356C152.904 302.356 154.15 303.042 154.696 304.274L153.002 305.184C152.596 304.47 151.994 304.148 151.308 304.148C150.202 304.148 149.334 304.918 149.334 306.234C149.334 307.55 150.202 308.32 151.308 308.32C151.994 308.32 152.596 308.012 153.002 307.284L154.696 308.208C154.15 309.412 152.904 310.112 151.322 310.112ZM161.357 310L159.341 307.144H158.207V310H156.023V302.468H158.207V305.394H159.383L161.427 302.468H163.751L161.119 306.08L163.933 310H161.357ZM165.005 310V302.468H167.175V306.948L170.843 302.468H172.845V310H170.675V305.52L167.021 310H165.005ZM178.725 301.656C177.087 301.656 176.261 300.942 176.247 299.486H177.675C177.689 300.13 178.025 300.522 178.711 300.522C179.383 300.522 179.761 300.13 179.761 299.486H181.217C181.203 300.942 180.363 301.656 178.725 301.656ZM174.945 310V302.468H177.115V306.948L180.783 302.468H182.785V310H180.615V305.52L176.961 310H174.945ZM193.287 302.356C195.401 302.356 197.039 303.868 197.039 306.234C197.039 308.6 195.401 310.112 193.287 310.112C192.349 310.112 191.579 309.818 191.019 309.202V312.716H188.835V302.468H190.921V303.336C191.467 302.678 192.279 302.356 193.287 302.356ZM192.909 308.32C194.001 308.32 194.827 307.536 194.827 306.234C194.827 304.932 194.001 304.148 192.909 304.148C191.817 304.148 190.991 304.932 190.991 306.234C190.991 307.536 191.817 308.32 192.909 308.32ZM201.372 302.356C203.668 302.356 204.998 303.42 204.998 305.702V310H202.954V309.062C202.548 309.748 201.764 310.112 200.658 310.112C198.894 310.112 197.844 309.132 197.844 307.83C197.844 306.5 198.782 305.576 201.078 305.576H202.814C202.814 304.638 202.254 304.092 201.078 304.092C200.28 304.092 199.454 304.358 198.908 304.792L198.124 303.266C198.95 302.678 200.168 302.356 201.372 302.356ZM201.204 308.642C201.932 308.642 202.562 308.306 202.814 307.62V306.85H201.316C200.294 306.85 199.972 307.228 199.972 307.732C199.972 308.278 200.434 308.642 201.204 308.642ZM210.676 301.656C209.038 301.656 208.212 300.942 208.198 299.486H209.626C209.64 300.13 209.976 300.522 210.662 300.522C211.334 300.522 211.712 300.13 211.712 299.486H213.168C213.154 300.942 212.314 301.656 210.676 301.656ZM206.896 310V302.468H209.066V306.948L212.734 302.468H214.736V310H212.566V305.52L208.912 310H206.896ZM220.363 310.112C217.969 310.112 216.219 308.502 216.219 306.234C216.219 303.966 217.969 302.356 220.363 302.356C222.757 302.356 224.493 303.966 224.493 306.234C224.493 308.502 222.757 310.112 220.363 310.112ZM220.363 308.32C221.455 308.32 222.281 307.536 222.281 306.234C222.281 304.932 221.455 304.148 220.363 304.148C219.271 304.148 218.431 304.932 218.431 306.234C218.431 307.536 219.271 308.32 220.363 308.32ZM225.995 310V302.468H228.165V305.408H231.441V302.468H233.625V310H231.441V307.186H228.165V310H225.995Z" fill="#032154"/>
</g>
<path d="M288 400.942C292.125 400.942 304.5 385.064 304.5 375.811C304.5 366.559 297.113 359.058 288 359.058C278.887 359.058 271.5 366.559 271.5 375.811C271.5 385.064 283.875 400.942 288 400.942Z" fill="#032154"/>
<path d="M293.699 374.952C293.843 374.868 293.98 374.763 294.099 374.646C295.011 373.749 295.356 372.619 295.43 371.267C295.392 371.039 295.368 370.698 295.276 370.378C294.892 369.041 293.719 368.723 292.712 369.677C292.014 370.337 291.67 371.186 291.494 372.108C291.365 372.779 291.374 373.449 291.608 374.103C291.961 375.088 292.846 375.451 293.7 374.953L293.699 374.952ZM287.975 366.991C288.639 367.008 288.724 366.83 288.633 366.388C288.473 365.608 288.322 364.287 288.153 363.238C288.132 363.107 288.031 362.989 287.967 362.865C287.916 362.997 287.836 363.125 287.819 363.261C287.687 364.308 287.567 365.356 287.443 366.403C287.375 366.981 287.375 366.976 287.976 366.992L287.975 366.991ZM293.991 367.71C293.965 367.942 293.854 368.25 293.96 368.386C294.075 368.535 294.394 368.527 294.625 368.585C294.969 368.671 295.002 368.651 295.031 368.29C295.137 367.005 294.666 365.915 293.884 364.935C293.818 364.853 293.717 364.798 293.633 364.73C293.604 364.748 293.576 364.765 293.547 364.783C293.58 364.934 293.592 365.095 293.65 365.237C293.976 366.033 294.085 366.856 293.991 367.71H293.991ZM299.357 374.373C299.219 373.732 298.944 373.181 298.238 373.03C297.641 372.903 297.144 373.166 296.71 373.549C295.84 374.317 295.391 375.314 295.214 376.441C295.126 377.002 295.172 377.559 295.419 378.081C295.712 378.7 296.285 379.013 296.918 378.845C297.218 378.766 297.525 378.62 297.764 378.425C298.848 377.542 299.319 376.35 299.423 375.005C299.4 374.778 299.399 374.571 299.356 374.373H299.357ZM298.163 369.366C298.477 370.262 298.484 371.154 298.164 372.051C298.146 372.104 298.214 372.234 298.271 372.259C298.473 372.346 298.694 372.391 298.898 372.475C299.122 372.567 299.217 372.498 299.264 372.267C299.503 371.077 299.098 370.071 298.396 369.147C298.352 369.088 298.277 369.051 298.217 369.005C298.191 369.016 298.166 369.027 298.141 369.039C298.147 369.148 298.128 369.267 298.163 369.366V369.366ZM286.797 373.38C287.152 373.796 287.594 374.035 288.157 373.911C288.669 373.798 288.993 373.435 289.244 373.001C289.637 372.322 289.767 371.577 289.775 370.865C289.77 370.028 289.625 369.287 289.222 368.613C288.546 367.483 287.358 367.443 286.636 368.537C286.08 369.38 285.958 370.336 286.034 371.318C286.093 372.072 286.292 372.788 286.797 373.38ZM296.235 380.035C295.357 379.412 294.418 378.866 293.471 378.351C292.889 378.034 292.358 377.724 292.062 377.087C291.881 376.696 291.616 376.343 291.376 375.98C291.062 375.506 290.639 375.142 290.094 374.992C288.627 374.588 287.156 374.57 285.706 375.089C285.154 375.287 284.767 375.68 284.516 376.208C284.403 376.449 284.29 376.69 284.178 376.931C284.017 377.274 283.781 377.537 283.442 377.717C283.061 377.92 282.687 378.135 282.322 378.365C281.377 378.962 280.429 379.555 279.695 380.423C278.428 381.919 278.268 383.1 279.131 385.107C279.486 385.933 280.258 386.154 281.056 386.291C281.876 386.431 282.68 386.275 283.484 386.144C284.758 385.936 286.786 385.617 287.896 385.631C289.151 385.646 290.546 385.856 291.567 385.997C292.712 386.154 293.851 386.278 295.008 386.133C295.726 386.043 296.309 385.784 296.67 385.108C297.133 384.239 297.45 383.344 297.387 382.339C297.329 381.403 296.996 380.574 296.236 380.035H296.235ZM280.116 378.126C280.404 377.615 280.489 377.06 280.485 376.484C280.485 376.44 280.486 376.395 280.485 376.351C280.427 375.199 280.112 374.146 279.276 373.31C278.726 372.76 278.023 372.633 277.491 372.971C277.053 373.247 276.828 373.679 276.708 374.165C276.449 375.203 276.59 376.208 276.997 377.183C277.226 377.733 277.554 378.213 278.038 378.57C278.795 379.129 279.656 378.942 280.116 378.126V378.126ZM281.974 374.897C282.726 375.439 283.576 375.246 284.03 374.441C284.095 374.326 284.155 374.205 284.198 374.08C284.557 373.03 284.433 371.999 284.062 370.983C283.836 370.364 283.492 369.82 282.953 369.422C282.205 368.871 281.362 369.042 280.887 369.839C280.551 370.402 280.497 371.026 280.494 371.865C280.557 372.156 280.631 372.649 280.775 373.121C280.99 373.829 281.36 374.455 281.974 374.897ZM277.215 372.48C277.411 372.4 277.614 372.336 277.819 372.283C277.986 372.239 278.026 372.173 277.963 372.001C277.656 371.155 277.662 370.304 277.945 369.449C277.988 369.317 277.983 369.168 278 369.026C277.971 369.014 277.943 369.001 277.914 368.988C277.802 369.105 277.667 369.208 277.584 369.342C277.408 369.628 277.243 369.922 277.102 370.226C276.797 370.88 276.728 371.566 276.869 372.275C276.91 372.485 276.996 372.57 277.216 372.48H277.215ZM281.137 368.604C281.335 368.557 281.531 368.504 281.731 368.468C281.91 368.435 281.961 368.348 281.919 368.173C281.678 367.146 281.79 366.15 282.178 365.176C282.228 365.051 282.228 364.906 282.252 364.77C282.221 364.754 282.189 364.737 282.158 364.72C282.047 364.826 281.916 364.916 281.83 365.039C281.652 365.292 281.49 365.557 281.337 365.826C280.891 366.612 280.714 367.459 280.797 368.36C280.821 368.623 280.881 368.665 281.136 368.604L281.137 368.604Z" fill="white"/>
<g filter="url(#filter1_d_2001_2217)">
<path d="M683.545 317H509.274L449.5 371L504.545 302.715V258H683.545V317Z" fill="#F7F8FA"/>
<path d="M529.96 282.2C532.578 282.2 534.216 283.558 534.216 285.756C534.216 287.94 532.578 289.298 529.96 289.298H527.986V292H525.718V282.2H529.96ZM529.834 287.45C531.22 287.45 531.92 286.82 531.92 285.756C531.92 284.678 531.22 284.048 529.834 284.048H527.986V287.45H529.834ZM541.072 284.468H543.172L539.77 292.462C539.042 294.282 538.006 294.828 536.648 294.828C535.878 294.828 535.038 294.576 534.548 294.142L535.346 292.588C535.682 292.882 536.144 293.064 536.578 293.064C537.18 293.064 537.516 292.798 537.81 292.126L537.838 292.056L534.576 284.468H536.83L538.944 289.578L541.072 284.468ZM551.057 290.208H552.135V293.624H550.105V292H544.813V293.624H542.783V290.208H543.091C544.127 290.18 544.309 288.71 544.393 287.072L544.491 284.468H551.057V290.208ZM546.367 287.226C546.325 288.5 546.227 289.648 545.695 290.208H548.873V286.26H546.409L546.367 287.226ZM553.509 292V284.468H555.679V287.408H558.955V284.468H561.139V292H558.955V289.186H555.679V292H553.509ZM563.23 292V284.468H565.4V288.948L569.068 284.468H571.07V292H568.9V287.52L565.246 292H563.23ZM577.761 284.468H579.945V292H577.761V289.2C577.173 289.494 576.487 289.676 575.661 289.676C573.673 289.676 572.581 288.808 572.581 286.834V284.468H574.765V286.694C574.765 287.632 575.283 287.996 576.151 287.996C576.725 287.996 577.271 287.87 577.761 287.632V284.468ZM582.042 292V284.468H584.212V287.408H587.488V284.468H589.672V292H587.488V289.186H584.212V292H582.042ZM595.725 286.876C597.699 286.89 598.707 287.8 598.707 289.382C598.707 291.048 597.531 292.014 595.431 292.014L591.763 292V284.468H593.933V286.876H595.725ZM599.519 292V284.468H601.689V292H599.519ZM595.235 290.46C596.075 290.474 596.537 290.096 596.537 289.354C596.537 288.612 596.075 288.304 595.235 288.29L593.933 288.276V290.46H595.235ZM607.574 283.656C605.936 283.656 605.11 282.942 605.096 281.486H606.524C606.538 282.13 606.874 282.522 607.56 282.522C608.232 282.522 608.61 282.13 608.61 281.486H610.066C610.052 282.942 609.212 283.656 607.574 283.656ZM603.794 292V284.468H605.964V288.948L609.632 284.468H611.634V292H609.464V287.52L605.81 292H603.794ZM622.136 284.356C624.25 284.356 625.888 285.868 625.888 288.234C625.888 290.6 624.25 292.112 622.136 292.112C621.198 292.112 620.428 291.818 619.868 291.202V294.716H617.684V284.468H619.77V285.336C620.316 284.678 621.128 284.356 622.136 284.356ZM621.758 290.32C622.85 290.32 623.676 289.536 623.676 288.234C623.676 286.932 622.85 286.148 621.758 286.148C620.666 286.148 619.84 286.932 619.84 288.234C619.84 289.536 620.666 290.32 621.758 290.32ZM630.222 284.356C632.518 284.356 633.848 285.42 633.848 287.702V292H631.804V291.062C631.398 291.748 630.614 292.112 629.508 292.112C627.744 292.112 626.694 291.132 626.694 289.83C626.694 288.5 627.632 287.576 629.928 287.576H631.664C631.664 286.638 631.104 286.092 629.928 286.092C629.13 286.092 628.304 286.358 627.758 286.792L626.974 285.266C627.8 284.678 629.018 284.356 630.222 284.356ZM630.054 290.642C630.782 290.642 631.412 290.306 631.664 289.62V288.85H630.166C629.144 288.85 628.822 289.228 628.822 289.732C628.822 290.278 629.284 290.642 630.054 290.642ZM639.525 283.656C637.887 283.656 637.061 282.942 637.047 281.486H638.475C638.489 282.13 638.825 282.522 639.511 282.522C640.183 282.522 640.561 282.13 640.561 281.486H642.017C642.003 282.942 641.163 283.656 639.525 283.656ZM635.745 292V284.468H637.915V288.948L641.583 284.468H643.585V292H641.415V287.52L637.761 292H635.745ZM649.213 292.112C646.819 292.112 645.069 290.502 645.069 288.234C645.069 285.966 646.819 284.356 649.213 284.356C651.607 284.356 653.343 285.966 653.343 288.234C653.343 290.502 651.607 292.112 649.213 292.112ZM649.213 290.32C650.305 290.32 651.131 289.536 651.131 288.234C651.131 286.932 650.305 286.148 649.213 286.148C648.121 286.148 647.281 286.932 647.281 288.234C647.281 289.536 648.121 290.32 649.213 290.32ZM654.845 292V284.468H657.015V287.408H660.291V284.468H662.475V292H660.291V289.186H657.015V292H654.845Z" fill="#032154"/>
</g>
<path d="M448 396.942C452.125 396.942 464.5 381.064 464.5 371.811C464.5 362.559 457.113 355.058 448 355.058C438.887 355.058 431.5 362.559 431.5 371.811C431.5 381.064 443.875 396.942 448 396.942Z" fill="#032154"/>
<path d="M453.699 370.952C453.843 370.868 453.98 370.763 454.099 370.646C455.011 369.749 455.356 368.619 455.43 367.267C455.392 367.039 455.368 366.698 455.276 366.378C454.892 365.041 453.719 364.723 452.712 365.677C452.014 366.337 451.67 367.186 451.494 368.108C451.365 368.779 451.374 369.449 451.608 370.103C451.961 371.088 452.846 371.451 453.7 370.953L453.699 370.952ZM447.975 362.991C448.639 363.008 448.724 362.83 448.633 362.388C448.473 361.608 448.322 360.287 448.153 359.238C448.132 359.107 448.031 358.989 447.967 358.865C447.916 358.997 447.836 359.125 447.819 359.261C447.687 360.308 447.567 361.356 447.443 362.403C447.375 362.981 447.375 362.976 447.976 362.992L447.975 362.991ZM453.991 363.71C453.965 363.942 453.854 364.25 453.96 364.386C454.075 364.535 454.394 364.527 454.625 364.585C454.969 364.671 455.002 364.651 455.031 364.29C455.137 363.005 454.666 361.915 453.884 360.935C453.818 360.853 453.717 360.798 453.633 360.73C453.604 360.748 453.576 360.765 453.547 360.783C453.58 360.934 453.592 361.095 453.65 361.237C453.976 362.033 454.085 362.856 453.991 363.71H453.991ZM459.357 370.373C459.219 369.732 458.944 369.181 458.238 369.03C457.641 368.903 457.144 369.166 456.71 369.549C455.84 370.317 455.391 371.314 455.214 372.441C455.126 373.002 455.172 373.559 455.419 374.081C455.712 374.7 456.285 375.013 456.918 374.845C457.218 374.766 457.525 374.62 457.764 374.425C458.848 373.542 459.319 372.35 459.423 371.005C459.4 370.778 459.399 370.571 459.356 370.373H459.357ZM458.163 365.366C458.477 366.262 458.484 367.154 458.164 368.051C458.146 368.104 458.214 368.234 458.271 368.259C458.473 368.346 458.694 368.391 458.898 368.475C459.122 368.567 459.217 368.498 459.264 368.267C459.503 367.077 459.098 366.071 458.396 365.147C458.352 365.088 458.277 365.051 458.217 365.005C458.191 365.016 458.166 365.027 458.141 365.039C458.147 365.148 458.128 365.267 458.163 365.366V365.366ZM446.797 369.38C447.152 369.796 447.594 370.035 448.157 369.911C448.669 369.798 448.993 369.435 449.244 369.001C449.637 368.322 449.767 367.577 449.775 366.865C449.77 366.028 449.625 365.287 449.222 364.613C448.546 363.483 447.358 363.443 446.636 364.537C446.08 365.38 445.958 366.336 446.034 367.318C446.093 368.072 446.292 368.788 446.797 369.38ZM456.235 376.035C455.357 375.412 454.418 374.866 453.471 374.351C452.889 374.034 452.358 373.724 452.062 373.087C451.881 372.696 451.616 372.343 451.376 371.98C451.062 371.506 450.639 371.142 450.094 370.992C448.627 370.588 447.156 370.57 445.706 371.089C445.154 371.287 444.767 371.68 444.516 372.208C444.403 372.449 444.29 372.69 444.178 372.931C444.017 373.274 443.781 373.537 443.442 373.717C443.061 373.92 442.687 374.135 442.322 374.365C441.377 374.962 440.429 375.555 439.695 376.423C438.428 377.919 438.268 379.1 439.131 381.107C439.486 381.933 440.258 382.154 441.056 382.291C441.876 382.431 442.68 382.275 443.484 382.144C444.758 381.936 446.786 381.617 447.896 381.631C449.151 381.646 450.546 381.856 451.567 381.997C452.712 382.154 453.851 382.278 455.008 382.133C455.726 382.043 456.309 381.784 456.67 381.108C457.133 380.239 457.45 379.344 457.387 378.339C457.329 377.403 456.996 376.574 456.236 376.035H456.235ZM440.116 374.126C440.404 373.615 440.489 373.06 440.485 372.484C440.485 372.44 440.486 372.395 440.485 372.351C440.427 371.199 440.112 370.146 439.276 369.31C438.726 368.76 438.023 368.633 437.491 368.971C437.053 369.247 436.828 369.679 436.708 370.165C436.449 371.203 436.59 372.208 436.997 373.183C437.226 373.733 437.554 374.213 438.038 374.57C438.795 375.129 439.656 374.942 440.116 374.126V374.126ZM441.974 370.897C442.726 371.439 443.576 371.246 444.03 370.441C444.095 370.326 444.155 370.205 444.198 370.08C444.557 369.03 444.433 367.999 444.062 366.983C443.836 366.364 443.492 365.82 442.953 365.422C442.205 364.871 441.362 365.042 440.887 365.839C440.551 366.402 440.497 367.026 440.494 367.865C440.557 368.156 440.631 368.649 440.775 369.121C440.99 369.829 441.36 370.455 441.974 370.897ZM437.215 368.48C437.411 368.4 437.614 368.336 437.819 368.283C437.986 368.239 438.026 368.173 437.963 368.001C437.656 367.155 437.662 366.304 437.945 365.449C437.988 365.317 437.983 365.168 438 365.026C437.971 365.014 437.943 365.001 437.914 364.988C437.802 365.105 437.667 365.208 437.584 365.342C437.408 365.628 437.243 365.922 437.102 366.226C436.797 366.88 436.728 367.566 436.869 368.275C436.91 368.485 436.996 368.57 437.216 368.48H437.215ZM441.137 364.604C441.335 364.557 441.531 364.504 441.731 364.468C441.91 364.435 441.961 364.348 441.919 364.173C441.678 363.146 441.79 362.15 442.178 361.176C442.228 361.051 442.228 360.906 442.252 360.77C442.221 360.754 442.189 360.737 442.158 360.72C442.047 360.826 441.916 360.916 441.83 361.039C441.652 361.292 441.49 361.557 441.337 361.826C440.891 362.612 440.714 363.459 440.797 364.36C440.821 364.623 440.881 364.665 441.136 364.604L441.137 364.604Z" fill="white"/>
<g filter="url(#filter2_d_2001_2217)">
<path d="M716.545 512H528.274L468.5 566L523.545 497.715V453H716.545V512Z" fill="#F7F8FA"/>
<path d="M553.594 485.152H554.994V489.072H552.908V487H544.718V477.2H546.972V485.152H551.34V477.2H553.594V485.152ZM563.548 483.262C563.548 483.43 563.52 483.668 563.506 483.85H557.808C558.018 484.788 558.816 485.362 559.964 485.362C560.762 485.362 561.336 485.124 561.854 484.634L563.016 485.894C562.316 486.692 561.266 487.112 559.908 487.112C557.304 487.112 555.61 485.474 555.61 483.234C555.61 480.98 557.332 479.356 559.628 479.356C561.84 479.356 563.548 480.84 563.548 483.262ZM559.642 481.008C558.648 481.008 557.934 481.61 557.78 482.576H561.49C561.336 481.624 560.622 481.008 559.642 481.008ZM565.222 487V479.468H567.392V482.408H570.668V479.468H572.852V487H570.668V484.186H567.392V487H565.222ZM581.271 479.468V481.26H578.723V487H576.553V481.26H574.005V479.468H581.271ZM586.873 479.356C588.987 479.356 590.625 480.868 590.625 483.234C590.625 485.6 588.987 487.112 586.873 487.112C585.935 487.112 585.165 486.818 584.605 486.202V489.716H582.421V479.468H584.507V480.336C585.053 479.678 585.865 479.356 586.873 479.356ZM586.495 485.32C587.587 485.32 588.413 484.536 588.413 483.234C588.413 481.932 587.587 481.148 586.495 481.148C585.403 481.148 584.577 481.932 584.577 483.234C584.577 484.536 585.403 485.32 586.495 485.32ZM594.958 479.356C597.254 479.356 598.584 480.42 598.584 482.702V487H596.54V486.062C596.134 486.748 595.35 487.112 594.244 487.112C592.48 487.112 591.43 486.132 591.43 484.83C591.43 483.5 592.368 482.576 594.664 482.576H596.4C596.4 481.638 595.84 481.092 594.664 481.092C593.866 481.092 593.04 481.358 592.494 481.792L591.71 480.266C592.536 479.678 593.754 479.356 594.958 479.356ZM594.79 485.642C595.518 485.642 596.148 485.306 596.4 484.62V483.85H594.902C593.88 483.85 593.558 484.228 593.558 484.732C593.558 485.278 594.02 485.642 594.79 485.642ZM601.266 479.468H607.706V487H605.522V481.26H603.142L603.072 482.59C602.96 485.278 602.526 487.154 600.664 487.154C600.328 487.154 599.964 487.098 599.53 486.986L599.642 485.194C599.754 485.208 599.866 485.222 599.964 485.222C601 485.222 601.084 483.92 601.154 482.492L601.266 479.468ZM613.88 481.876C615.854 481.89 616.918 482.8 616.918 484.382C616.918 486.048 615.686 487.014 613.586 487.014L609.806 487V479.468H611.976V481.876H613.88ZM613.39 485.46C614.23 485.474 614.692 485.096 614.692 484.354C614.692 483.612 614.23 483.304 613.39 483.29L611.976 483.276V485.46H613.39ZM618.282 487V479.468H620.452V482.408H623.728V479.468H625.912V487H623.728V484.186H620.452V487H618.282ZM631.965 481.876C633.939 481.89 634.947 482.8 634.947 484.382C634.947 486.048 633.771 487.014 631.671 487.014L628.003 487V479.468H630.173V481.876H631.965ZM635.759 487V479.468H637.929V487H635.759ZM631.475 485.46C632.315 485.474 632.777 485.096 632.777 484.354C632.777 483.612 632.315 483.304 631.475 483.29L630.173 483.276V485.46H631.475ZM643.814 478.656C642.176 478.656 641.35 477.942 641.336 476.486H642.764C642.778 477.13 643.114 477.522 643.8 477.522C644.472 477.522 644.85 477.13 644.85 476.486H646.306C646.292 477.942 645.452 478.656 643.814 478.656ZM640.034 487V479.468H642.204V483.948L645.872 479.468H647.874V487H645.704V482.52L642.05 487H640.034ZM658.377 479.356C660.491 479.356 662.129 480.868 662.129 483.234C662.129 485.6 660.491 487.112 658.377 487.112C657.439 487.112 656.669 486.818 656.109 486.202V489.716H653.925V479.468H656.011V480.336C656.557 479.678 657.369 479.356 658.377 479.356ZM657.999 485.32C659.091 485.32 659.917 484.536 659.917 483.234C659.917 481.932 659.091 481.148 657.999 481.148C656.907 481.148 656.081 481.932 656.081 483.234C656.081 484.536 656.907 485.32 657.999 485.32ZM666.462 479.356C668.758 479.356 670.088 480.42 670.088 482.702V487H668.044V486.062C667.638 486.748 666.854 487.112 665.748 487.112C663.984 487.112 662.934 486.132 662.934 484.83C662.934 483.5 663.872 482.576 666.168 482.576H667.904C667.904 481.638 667.344 481.092 666.168 481.092C665.37 481.092 664.544 481.358 663.998 481.792L663.214 480.266C664.04 479.678 665.258 479.356 666.462 479.356ZM666.294 485.642C667.022 485.642 667.652 485.306 667.904 484.62V483.85H666.406C665.384 483.85 665.062 484.228 665.062 484.732C665.062 485.278 665.524 485.642 666.294 485.642ZM675.766 478.656C674.128 478.656 673.302 477.942 673.288 476.486H674.716C674.73 477.13 675.066 477.522 675.752 477.522C676.424 477.522 676.802 477.13 676.802 476.486H678.258C678.244 477.942 677.404 478.656 675.766 478.656ZM671.986 487V479.468H674.156V483.948L677.824 479.468H679.826V487H677.656V482.52L674.002 487H671.986ZM685.453 487.112C683.059 487.112 681.309 485.502 681.309 483.234C681.309 480.966 683.059 479.356 685.453 479.356C687.847 479.356 689.583 480.966 689.583 483.234C689.583 485.502 687.847 487.112 685.453 487.112ZM685.453 485.32C686.545 485.32 687.371 484.536 687.371 483.234C687.371 481.932 686.545 481.148 685.453 481.148C684.361 481.148 683.521 481.932 683.521 483.234C683.521 484.536 684.361 485.32 685.453 485.32ZM691.085 487V479.468H693.255V482.408H696.531V479.468H698.715V487H696.531V484.186H693.255V487H691.085Z" fill="#032154"/>
</g>
<path d="M467 591.942C471.125 591.942 483.5 576.064 483.5 566.811C483.5 557.559 476.113 550.058 467 550.058C457.887 550.058 450.5 557.559 450.5 566.811C450.5 576.064 462.875 591.942 467 591.942Z" fill="#032154"/>
<path d="M472.699 565.952C472.843 565.868 472.98 565.763 473.099 565.646C474.011 564.749 474.356 563.619 474.43 562.267C474.392 562.039 474.368 561.698 474.276 561.378C473.892 560.041 472.719 559.723 471.712 560.677C471.014 561.337 470.67 562.186 470.494 563.108C470.365 563.779 470.374 564.449 470.608 565.103C470.961 566.088 471.846 566.451 472.7 565.953L472.699 565.952ZM466.975 557.991C467.639 558.008 467.724 557.83 467.633 557.388C467.473 556.608 467.322 555.287 467.153 554.238C467.132 554.107 467.031 553.989 466.967 553.865C466.916 553.997 466.836 554.125 466.819 554.261C466.687 555.308 466.567 556.356 466.443 557.403C466.375 557.981 466.375 557.976 466.976 557.992L466.975 557.991ZM472.991 558.71C472.965 558.942 472.854 559.25 472.96 559.386C473.075 559.535 473.394 559.527 473.625 559.585C473.969 559.671 474.002 559.651 474.031 559.29C474.137 558.005 473.666 556.915 472.884 555.935C472.818 555.853 472.717 555.798 472.633 555.73C472.604 555.748 472.576 555.765 472.547 555.783C472.58 555.934 472.592 556.095 472.65 556.237C472.976 557.033 473.085 557.856 472.991 558.71H472.991ZM478.357 565.373C478.219 564.732 477.944 564.181 477.238 564.03C476.641 563.903 476.144 564.166 475.71 564.549C474.84 565.317 474.391 566.314 474.214 567.441C474.126 568.002 474.172 568.559 474.419 569.081C474.712 569.7 475.285 570.013 475.918 569.845C476.218 569.766 476.525 569.62 476.764 569.425C477.848 568.542 478.319 567.35 478.423 566.005C478.4 565.778 478.399 565.571 478.356 565.373H478.357ZM477.163 560.366C477.477 561.262 477.484 562.154 477.164 563.051C477.146 563.104 477.214 563.234 477.271 563.259C477.473 563.346 477.694 563.391 477.898 563.475C478.122 563.567 478.217 563.498 478.264 563.267C478.503 562.077 478.098 561.071 477.396 560.147C477.352 560.088 477.277 560.051 477.217 560.005C477.191 560.016 477.166 560.027 477.141 560.039C477.147 560.148 477.128 560.267 477.163 560.366V560.366ZM465.797 564.38C466.152 564.796 466.594 565.035 467.157 564.911C467.669 564.798 467.993 564.435 468.244 564.001C468.637 563.322 468.767 562.577 468.775 561.865C468.77 561.028 468.625 560.287 468.222 559.613C467.546 558.483 466.358 558.443 465.636 559.537C465.08 560.38 464.958 561.336 465.034 562.318C465.093 563.072 465.292 563.788 465.797 564.38ZM475.235 571.035C474.357 570.412 473.418 569.866 472.471 569.351C471.889 569.034 471.358 568.724 471.062 568.087C470.881 567.696 470.616 567.343 470.376 566.98C470.062 566.506 469.639 566.142 469.094 565.992C467.627 565.588 466.156 565.57 464.706 566.089C464.154 566.287 463.767 566.68 463.516 567.208C463.403 567.449 463.29 567.69 463.178 567.931C463.017 568.274 462.781 568.537 462.442 568.717C462.061 568.92 461.687 569.135 461.322 569.365C460.377 569.962 459.429 570.555 458.695 571.423C457.428 572.919 457.268 574.1 458.131 576.107C458.486 576.933 459.258 577.154 460.056 577.291C460.876 577.431 461.68 577.275 462.484 577.144C463.758 576.936 465.786 576.617 466.896 576.631C468.151 576.646 469.546 576.856 470.567 576.997C471.712 577.154 472.851 577.278 474.008 577.133C474.726 577.043 475.309 576.784 475.67 576.108C476.133 575.239 476.45 574.344 476.387 573.339C476.329 572.403 475.996 571.574 475.236 571.035H475.235ZM459.116 569.126C459.404 568.615 459.489 568.06 459.485 567.484C459.485 567.44 459.486 567.395 459.485 567.351C459.427 566.199 459.112 565.146 458.276 564.31C457.726 563.76 457.023 563.633 456.491 563.971C456.053 564.247 455.828 564.679 455.708 565.165C455.449 566.203 455.59 567.208 455.997 568.183C456.226 568.733 456.554 569.213 457.038 569.57C457.795 570.129 458.656 569.942 459.116 569.126V569.126ZM460.974 565.897C461.726 566.439 462.576 566.246 463.03 565.441C463.095 565.326 463.155 565.205 463.198 565.08C463.557 564.03 463.433 562.999 463.062 561.983C462.836 561.364 462.492 560.82 461.953 560.422C461.205 559.871 460.362 560.042 459.887 560.839C459.551 561.402 459.497 562.026 459.494 562.865C459.557 563.156 459.631 563.649 459.775 564.121C459.99 564.829 460.36 565.455 460.974 565.897ZM456.215 563.48C456.411 563.4 456.614 563.336 456.819 563.283C456.986 563.239 457.026 563.173 456.963 563.001C456.656 562.155 456.662 561.304 456.945 560.449C456.988 560.317 456.983 560.168 457 560.026C456.971 560.014 456.943 560.001 456.914 559.988C456.802 560.105 456.667 560.208 456.584 560.342C456.408 560.628 456.243 560.922 456.102 561.226C455.797 561.88 455.728 562.566 455.869 563.275C455.91 563.485 455.996 563.57 456.216 563.48H456.215ZM460.137 559.604C460.335 559.557 460.531 559.504 460.731 559.468C460.91 559.435 460.961 559.348 460.919 559.173C460.678 558.146 460.79 557.15 461.178 556.176C461.228 556.051 461.228 555.906 461.252 555.77C461.221 555.754 461.189 555.737 461.158 555.72C461.047 555.826 460.916 555.916 460.83 556.039C460.652 556.292 460.49 556.557 460.337 556.826C459.891 557.612 459.714 558.459 459.797 559.36C459.821 559.623 459.881 559.665 460.136 559.604L460.137 559.604Z" fill="white"/>
<g filter="url(#filter3_d_2001_2217)">
<path d="M805.045 631H626.696L591 656L622.045 616.803V572H805.045V631Z" fill="#F7F8FA"/>
<path d="M644.422 596.2H651.954V606H649.714V598.048H646.354L646.284 600.092C646.158 603.942 645.612 606.154 643.316 606.154C642.98 606.154 642.616 606.098 642.196 606L642.336 604.082C642.476 604.124 642.602 604.138 642.742 604.138C643.89 604.138 644.184 602.682 644.282 600.176L644.422 596.2ZM661.556 602.262C661.556 602.43 661.528 602.668 661.514 602.85H655.816C656.026 603.788 656.824 604.362 657.972 604.362C658.77 604.362 659.344 604.124 659.862 603.634L661.024 604.894C660.324 605.692 659.274 606.112 657.916 606.112C655.312 606.112 653.618 604.474 653.618 602.234C653.618 599.98 655.34 598.356 657.636 598.356C659.848 598.356 661.556 599.84 661.556 602.262ZM657.65 600.008C656.656 600.008 655.942 600.61 655.788 601.576H659.498C659.344 600.624 658.63 600.008 657.65 600.008ZM663.23 606V598.468H665.4V601.408H668.676V598.468H670.86V606H668.676V603.186H665.4V606H663.23ZM672.95 606V598.468H675.12V602.948L678.788 598.468H680.79V606H678.62V601.52L674.966 606H672.95ZM682.89 606V598.468H685.06V601.408H688.336V598.468H690.52V606H688.336V603.186H685.06V606H682.89ZM696.195 606.112C693.745 606.112 691.995 604.502 691.995 602.234C691.995 599.966 693.745 598.356 696.195 598.356C697.777 598.356 699.023 599.042 699.569 600.274L697.875 601.184C697.469 600.47 696.867 600.148 696.181 600.148C695.075 600.148 694.207 600.918 694.207 602.234C694.207 603.55 695.075 604.32 696.181 604.32C696.867 604.32 697.469 604.012 697.875 603.284L699.569 604.208C699.023 605.412 697.777 606.112 696.195 606.112ZM706.23 606L704.214 603.144H703.08V606H700.896V598.468H703.08V601.394H704.256L706.3 598.468H708.624L705.992 602.08L708.806 606H706.23ZM709.878 606V598.468H712.048V602.948L715.716 598.468H717.718V606H715.548V601.52L711.894 606H709.878ZM723.598 597.656C721.96 597.656 721.134 596.942 721.12 595.486H722.548C722.562 596.13 722.898 596.522 723.584 596.522C724.256 596.522 724.634 596.13 724.634 595.486H726.09C726.076 596.942 725.236 597.656 723.598 597.656ZM719.818 606V598.468H721.988V602.948L725.656 598.468H727.658V606H725.488V601.52L721.834 606H719.818ZM738.16 598.356C740.274 598.356 741.912 599.868 741.912 602.234C741.912 604.6 740.274 606.112 738.16 606.112C737.222 606.112 736.452 605.818 735.892 605.202V608.716H733.708V598.468H735.794V599.336C736.34 598.678 737.152 598.356 738.16 598.356ZM737.782 604.32C738.874 604.32 739.7 603.536 739.7 602.234C739.7 600.932 738.874 600.148 737.782 600.148C736.69 600.148 735.864 600.932 735.864 602.234C735.864 603.536 736.69 604.32 737.782 604.32ZM746.246 598.356C748.542 598.356 749.872 599.42 749.872 601.702V606H747.828V605.062C747.422 605.748 746.638 606.112 745.532 606.112C743.768 606.112 742.718 605.132 742.718 603.83C742.718 602.5 743.656 601.576 745.952 601.576H747.688C747.688 600.638 747.128 600.092 745.952 600.092C745.154 600.092 744.328 600.358 743.782 600.792L742.998 599.266C743.824 598.678 745.042 598.356 746.246 598.356ZM746.078 604.642C746.806 604.642 747.436 604.306 747.688 603.62V602.85H746.19C745.168 602.85 744.846 603.228 744.846 603.732C744.846 604.278 745.308 604.642 746.078 604.642ZM755.549 597.656C753.911 597.656 753.085 596.942 753.071 595.486H754.499C754.513 596.13 754.849 596.522 755.535 596.522C756.207 596.522 756.585 596.13 756.585 595.486H758.041C758.027 596.942 757.187 597.656 755.549 597.656ZM751.769 606V598.468H753.939V602.948L757.607 598.468H759.609V606H757.439V601.52L753.785 606H751.769ZM765.236 606.112C762.842 606.112 761.092 604.502 761.092 602.234C761.092 599.966 762.842 598.356 765.236 598.356C767.63 598.356 769.366 599.966 769.366 602.234C769.366 604.502 767.63 606.112 765.236 606.112ZM765.236 604.32C766.328 604.32 767.154 603.536 767.154 602.234C767.154 600.932 766.328 600.148 765.236 600.148C764.144 600.148 763.304 600.932 763.304 602.234C763.304 603.536 764.144 604.32 765.236 604.32ZM770.868 606V598.468H773.038V601.408H776.314V598.468H778.498V606H776.314V603.186H773.038V606H770.868Z" fill="#032154"/>
</g>
<path d="M586 676.942C590.125 676.942 602.5 661.064 602.5 651.811C602.5 642.559 595.113 635.058 586 635.058C576.887 635.058 569.5 642.559 569.5 651.811C569.5 661.064 581.875 676.942 586 676.942Z" fill="#032154"/>
<path d="M591.699 650.952C591.843 650.868 591.98 650.763 592.099 650.646C593.011 649.749 593.356 648.619 593.43 647.267C593.392 647.039 593.368 646.698 593.276 646.378C592.892 645.041 591.719 644.723 590.712 645.677C590.014 646.337 589.67 647.186 589.494 648.108C589.365 648.779 589.374 649.449 589.608 650.103C589.961 651.088 590.846 651.451 591.7 650.953L591.699 650.952ZM585.975 642.991C586.639 643.008 586.724 642.83 586.633 642.388C586.473 641.608 586.322 640.287 586.153 639.238C586.132 639.107 586.031 638.989 585.967 638.865C585.916 638.997 585.836 639.125 585.819 639.261C585.687 640.308 585.567 641.356 585.443 642.403C585.375 642.981 585.375 642.976 585.976 642.992L585.975 642.991ZM591.991 643.71C591.965 643.942 591.854 644.25 591.96 644.386C592.075 644.535 592.394 644.527 592.625 644.585C592.969 644.671 593.002 644.651 593.031 644.29C593.137 643.005 592.666 641.915 591.884 640.935C591.818 640.853 591.717 640.798 591.633 640.73C591.604 640.748 591.576 640.765 591.547 640.783C591.58 640.934 591.592 641.095 591.65 641.237C591.976 642.033 592.085 642.856 591.991 643.71H591.991ZM597.357 650.373C597.219 649.732 596.944 649.181 596.238 649.03C595.641 648.903 595.144 649.166 594.71 649.549C593.84 650.317 593.391 651.314 593.214 652.441C593.126 653.002 593.172 653.559 593.419 654.081C593.712 654.7 594.285 655.013 594.918 654.845C595.218 654.766 595.525 654.62 595.764 654.425C596.848 653.542 597.319 652.35 597.423 651.005C597.4 650.778 597.399 650.571 597.356 650.373H597.357ZM596.163 645.366C596.477 646.262 596.484 647.154 596.164 648.051C596.146 648.104 596.214 648.234 596.271 648.259C596.473 648.346 596.694 648.391 596.898 648.475C597.122 648.567 597.217 648.498 597.264 648.267C597.503 647.077 597.098 646.071 596.396 645.147C596.352 645.088 596.277 645.051 596.217 645.005C596.191 645.016 596.166 645.027 596.141 645.039C596.147 645.148 596.128 645.267 596.163 645.366V645.366ZM584.797 649.38C585.152 649.796 585.594 650.035 586.157 649.911C586.669 649.798 586.993 649.435 587.244 649.001C587.637 648.322 587.767 647.577 587.775 646.865C587.77 646.028 587.625 645.287 587.222 644.613C586.546 643.483 585.358 643.443 584.636 644.537C584.08 645.38 583.958 646.336 584.034 647.318C584.093 648.072 584.292 648.788 584.797 649.38ZM594.235 656.035C593.357 655.412 592.418 654.866 591.471 654.351C590.889 654.034 590.358 653.724 590.062 653.087C589.881 652.696 589.616 652.343 589.376 651.98C589.062 651.506 588.639 651.142 588.094 650.992C586.627 650.588 585.156 650.57 583.706 651.089C583.154 651.287 582.767 651.68 582.516 652.208C582.403 652.449 582.29 652.69 582.178 652.931C582.017 653.274 581.781 653.537 581.442 653.717C581.061 653.92 580.687 654.135 580.322 654.365C579.377 654.962 578.429 655.555 577.695 656.423C576.428 657.919 576.268 659.1 577.131 661.107C577.486 661.933 578.258 662.154 579.056 662.291C579.876 662.431 580.68 662.275 581.484 662.144C582.758 661.936 584.786 661.617 585.896 661.631C587.151 661.646 588.546 661.856 589.567 661.997C590.712 662.154 591.851 662.278 593.008 662.133C593.726 662.043 594.309 661.784 594.67 661.108C595.133 660.239 595.45 659.344 595.387 658.339C595.329 657.403 594.996 656.574 594.236 656.035H594.235ZM578.116 654.126C578.404 653.615 578.489 653.06 578.485 652.484C578.485 652.44 578.486 652.395 578.485 652.351C578.427 651.199 578.112 650.146 577.276 649.31C576.726 648.76 576.023 648.633 575.491 648.971C575.053 649.247 574.828 649.679 574.708 650.165C574.449 651.203 574.59 652.208 574.997 653.183C575.226 653.733 575.554 654.213 576.038 654.57C576.795 655.129 577.656 654.942 578.116 654.126V654.126ZM579.974 650.897C580.726 651.439 581.576 651.246 582.03 650.441C582.095 650.326 582.155 650.205 582.198 650.08C582.557 649.03 582.433 647.999 582.062 646.983C581.836 646.364 581.492 645.82 580.953 645.422C580.205 644.871 579.362 645.042 578.887 645.839C578.551 646.402 578.497 647.026 578.494 647.865C578.557 648.156 578.631 648.649 578.775 649.121C578.99 649.829 579.36 650.455 579.974 650.897ZM575.215 648.48C575.411 648.4 575.614 648.336 575.819 648.283C575.986 648.239 576.026 648.173 575.963 648.001C575.656 647.155 575.662 646.304 575.945 645.449C575.988 645.317 575.983 645.168 576 645.026C575.971 645.014 575.943 645.001 575.914 644.988C575.802 645.105 575.667 645.208 575.584 645.342C575.408 645.628 575.243 645.922 575.102 646.226C574.797 646.88 574.728 647.566 574.869 648.275C574.91 648.485 574.996 648.57 575.216 648.48H575.215ZM579.137 644.604C579.335 644.557 579.531 644.504 579.731 644.468C579.91 644.435 579.961 644.348 579.919 644.173C579.678 643.146 579.79 642.15 580.178 641.176C580.228 641.051 580.228 640.906 580.252 640.77C580.221 640.754 580.189 640.737 580.158 640.72C580.047 640.826 579.916 640.916 579.83 641.039C579.652 641.292 579.49 641.557 579.337 641.826C578.891 642.612 578.714 643.459 578.797 644.36C578.821 644.623 578.881 644.665 579.136 644.604L579.137 644.604Z" fill="white"/>
<g filter="url(#filter4_d_2001_2217)">
<path d="M249.925 730H275V789H99V730H233.231L281.499 672.499L249.925 730Z" fill="#F7F8FA"/>
<path d="M124.79 758.89C125.924 759.282 126.61 760.15 126.61 761.256C126.61 763.104 124.594 764.168 122.242 764.168C120.94 764.168 119.554 763.846 118.336 763.146L119.036 761.522C119.932 762.068 121.024 762.32 121.976 762.32C123.264 762.32 124.314 761.844 124.314 760.934C124.314 760.192 123.642 759.828 122.62 759.828H120.226V758.12H122.452C123.376 758.12 123.908 757.714 123.908 757.07C123.908 756.272 123.04 755.852 121.934 755.852C121.108 755.852 120.142 756.076 119.302 756.552L118.616 754.788C119.68 754.242 120.856 753.99 121.976 753.99C124.244 753.99 126.204 755.026 126.204 756.804C126.204 757.756 125.658 758.512 124.79 758.89ZM131.164 756.356C133.46 756.356 134.79 757.42 134.79 759.702V764H132.746V763.062C132.34 763.748 131.556 764.112 130.45 764.112C128.686 764.112 127.636 763.132 127.636 761.83C127.636 760.5 128.574 759.576 130.87 759.576H132.606C132.606 758.638 132.046 758.092 130.87 758.092C130.072 758.092 129.245 758.358 128.7 758.792L127.916 757.266C128.742 756.678 129.96 756.356 131.164 756.356ZM130.996 762.642C131.724 762.642 132.354 762.306 132.606 761.62V760.85H131.108C130.086 760.85 129.764 761.228 129.764 761.732C129.764 762.278 130.226 762.642 130.996 762.642ZM142.441 760.066C143.323 760.36 143.771 760.962 143.771 761.858C143.771 763.188 142.777 764 140.705 764H136.687V756.468H140.537C142.427 756.468 143.547 757.182 143.547 758.414C143.547 759.17 143.141 759.744 142.441 760.066ZM138.689 757.952V759.562H140.341C141.097 759.562 141.489 759.282 141.489 758.75C141.489 758.204 141.097 757.952 140.341 757.952H138.689ZM140.523 762.516C141.321 762.516 141.727 762.25 141.727 761.69C141.727 761.116 141.363 760.85 140.565 760.85H138.689V762.516H140.523ZM148.924 764.112C146.53 764.112 144.78 762.502 144.78 760.234C144.78 757.966 146.53 756.356 148.924 756.356C151.318 756.356 153.054 757.966 153.054 760.234C153.054 762.502 151.318 764.112 148.924 764.112ZM148.924 762.32C150.016 762.32 150.842 761.536 150.842 760.234C150.842 758.932 150.016 758.148 148.924 758.148C147.832 758.148 146.992 758.932 146.992 760.234C146.992 761.536 147.832 762.32 148.924 762.32ZM161.81 762.208H162.888V765.624H160.858V764H155.566V765.624H153.536V762.208H153.844C154.88 762.18 155.062 760.71 155.146 759.072L155.244 756.468H161.81V762.208ZM157.12 759.226C157.078 760.5 156.98 761.648 156.448 762.208H159.626V758.26H157.162L157.12 759.226ZM167.847 764.112C165.397 764.112 163.647 762.502 163.647 760.234C163.647 757.966 165.397 756.356 167.847 756.356C169.429 756.356 170.675 757.042 171.221 758.274L169.527 759.184C169.121 758.47 168.519 758.148 167.833 758.148C166.727 758.148 165.859 758.918 165.859 760.234C165.859 761.55 166.727 762.32 167.833 762.32C168.519 762.32 169.121 762.012 169.527 761.284L171.221 762.208C170.675 763.412 169.429 764.112 167.847 764.112ZM177.882 764L175.866 761.144H174.732V764H172.548V756.468H174.732V759.394H175.908L177.952 756.468H180.276L177.644 760.08L180.458 764H177.882ZM181.53 764V756.468H183.7V760.948L187.368 756.468H189.37V764H187.2V759.52L183.546 764H181.53ZM195.25 755.656C193.612 755.656 192.786 754.942 192.772 753.486H194.2C194.214 754.13 194.55 754.522 195.236 754.522C195.908 754.522 196.286 754.13 196.286 753.486H197.742C197.728 754.942 196.888 755.656 195.25 755.656ZM191.47 764V756.468H193.64V760.948L197.308 756.468H199.31V764H197.14V759.52L193.486 764H191.47ZM209.812 756.356C211.926 756.356 213.564 757.868 213.564 760.234C213.564 762.6 211.926 764.112 209.812 764.112C208.874 764.112 208.104 763.818 207.544 763.202V766.716H205.36V756.468H207.446V757.336C207.992 756.678 208.804 756.356 209.812 756.356ZM209.434 762.32C210.526 762.32 211.352 761.536 211.352 760.234C211.352 758.932 210.526 758.148 209.434 758.148C208.342 758.148 207.516 758.932 207.516 760.234C207.516 761.536 208.342 762.32 209.434 762.32ZM217.898 756.356C220.194 756.356 221.524 757.42 221.524 759.702V764H219.48V763.062C219.074 763.748 218.29 764.112 217.184 764.112C215.42 764.112 214.37 763.132 214.37 761.83C214.37 760.5 215.308 759.576 217.604 759.576H219.34C219.34 758.638 218.78 758.092 217.604 758.092C216.806 758.092 215.98 758.358 215.434 758.792L214.65 757.266C215.476 756.678 216.694 756.356 217.898 756.356ZM217.73 762.642C218.458 762.642 219.088 762.306 219.34 761.62V760.85H217.842C216.82 760.85 216.498 761.228 216.498 761.732C216.498 762.278 216.96 762.642 217.73 762.642ZM227.201 755.656C225.563 755.656 224.737 754.942 224.723 753.486H226.151C226.165 754.13 226.501 754.522 227.187 754.522C227.859 754.522 228.237 754.13 228.237 753.486H229.693C229.679 754.942 228.839 755.656 227.201 755.656ZM223.421 764V756.468H225.591V760.948L229.259 756.468H231.261V764H229.091V759.52L225.437 764H223.421ZM236.889 764.112C234.495 764.112 232.745 762.502 232.745 760.234C232.745 757.966 234.495 756.356 236.889 756.356C239.283 756.356 241.019 757.966 241.019 760.234C241.019 762.502 239.283 764.112 236.889 764.112ZM236.889 762.32C237.981 762.32 238.807 761.536 238.807 760.234C238.807 758.932 237.981 758.148 236.889 758.148C235.797 758.148 234.957 758.932 234.957 760.234C234.957 761.536 235.797 762.32 236.889 762.32ZM242.521 764V756.468H244.691V759.408H247.967V756.468H250.151V764H247.967V761.186H244.691V764H242.521Z" fill="#032154"/>
</g>
<path d="M282 686.942C286.125 686.942 298.5 671.064 298.5 661.811C298.5 652.559 291.113 645.058 282 645.058C272.887 645.058 265.5 652.559 265.5 661.811C265.5 671.064 277.875 686.942 282 686.942Z" fill="#032154"/>
<path d="M287.699 660.952C287.843 660.868 287.98 660.763 288.099 660.646C289.011 659.749 289.356 658.619 289.43 657.267C289.392 657.039 289.368 656.698 289.276 656.378C288.892 655.041 287.719 654.723 286.712 655.677C286.014 656.337 285.67 657.186 285.494 658.108C285.365 658.779 285.374 659.449 285.608 660.103C285.961 661.088 286.846 661.451 287.7 660.953L287.699 660.952ZM281.975 652.991C282.639 653.008 282.724 652.83 282.633 652.388C282.473 651.608 282.322 650.287 282.153 649.238C282.132 649.107 282.031 648.989 281.967 648.865C281.916 648.997 281.836 649.125 281.819 649.261C281.687 650.308 281.567 651.356 281.443 652.403C281.375 652.981 281.375 652.976 281.976 652.992L281.975 652.991ZM287.991 653.71C287.965 653.942 287.854 654.25 287.96 654.386C288.075 654.535 288.394 654.527 288.625 654.585C288.969 654.671 289.002 654.651 289.031 654.29C289.137 653.005 288.666 651.915 287.884 650.935C287.818 650.853 287.717 650.798 287.633 650.73C287.604 650.748 287.576 650.765 287.547 650.783C287.58 650.934 287.592 651.095 287.65 651.237C287.976 652.033 288.085 652.856 287.991 653.71H287.991ZM293.357 660.373C293.219 659.732 292.944 659.181 292.238 659.03C291.641 658.903 291.144 659.166 290.71 659.549C289.84 660.317 289.391 661.314 289.214 662.441C289.126 663.002 289.172 663.559 289.419 664.081C289.712 664.7 290.285 665.013 290.918 664.845C291.218 664.766 291.525 664.62 291.764 664.425C292.848 663.542 293.319 662.35 293.423 661.005C293.4 660.778 293.399 660.571 293.356 660.373H293.357ZM292.163 655.366C292.477 656.262 292.484 657.154 292.164 658.051C292.146 658.104 292.214 658.234 292.271 658.259C292.473 658.346 292.694 658.391 292.898 658.475C293.122 658.567 293.217 658.498 293.264 658.267C293.503 657.077 293.098 656.071 292.396 655.147C292.352 655.088 292.277 655.051 292.217 655.005C292.191 655.016 292.166 655.027 292.141 655.039C292.147 655.148 292.128 655.267 292.163 655.366V655.366ZM280.797 659.38C281.152 659.796 281.594 660.035 282.157 659.911C282.669 659.798 282.993 659.435 283.244 659.001C283.637 658.322 283.767 657.577 283.775 656.865C283.77 656.028 283.625 655.287 283.222 654.613C282.546 653.483 281.358 653.443 280.636 654.537C280.08 655.38 279.958 656.336 280.034 657.318C280.093 658.072 280.292 658.788 280.797 659.38ZM290.235 666.035C289.357 665.412 288.418 664.866 287.471 664.351C286.889 664.034 286.358 663.724 286.062 663.087C285.881 662.696 285.616 662.343 285.376 661.98C285.062 661.506 284.639 661.142 284.094 660.992C282.627 660.588 281.156 660.57 279.706 661.089C279.154 661.287 278.767 661.68 278.516 662.208C278.403 662.449 278.29 662.69 278.178 662.931C278.017 663.274 277.781 663.537 277.442 663.717C277.061 663.92 276.687 664.135 276.322 664.365C275.377 664.962 274.429 665.555 273.695 666.423C272.428 667.919 272.268 669.1 273.131 671.107C273.486 671.933 274.258 672.154 275.056 672.291C275.876 672.431 276.68 672.275 277.484 672.144C278.758 671.936 280.786 671.617 281.896 671.631C283.151 671.646 284.546 671.856 285.567 671.997C286.712 672.154 287.851 672.278 289.008 672.133C289.726 672.043 290.309 671.784 290.67 671.108C291.133 670.239 291.45 669.344 291.387 668.339C291.329 667.403 290.996 666.574 290.236 666.035H290.235ZM274.116 664.126C274.404 663.615 274.489 663.06 274.485 662.484C274.485 662.44 274.486 662.395 274.485 662.351C274.427 661.199 274.112 660.146 273.276 659.31C272.726 658.76 272.023 658.633 271.491 658.971C271.053 659.247 270.828 659.679 270.708 660.165C270.449 661.203 270.59 662.208 270.997 663.183C271.226 663.733 271.554 664.213 272.038 664.57C272.795 665.129 273.656 664.942 274.116 664.126V664.126ZM275.974 660.897C276.726 661.439 277.576 661.246 278.03 660.441C278.095 660.326 278.155 660.205 278.198 660.08C278.557 659.03 278.433 657.999 278.062 656.983C277.836 656.364 277.492 655.82 276.953 655.422C276.205 654.871 275.362 655.042 274.887 655.839C274.551 656.402 274.497 657.026 274.494 657.865C274.557 658.156 274.631 658.649 274.775 659.121C274.99 659.829 275.36 660.455 275.974 660.897ZM271.215 658.48C271.411 658.4 271.614 658.336 271.819 658.283C271.986 658.239 272.026 658.173 271.963 658.001C271.656 657.155 271.662 656.304 271.945 655.449C271.988 655.317 271.983 655.168 272 655.026C271.971 655.014 271.943 655.001 271.914 654.988C271.802 655.105 271.667 655.208 271.584 655.342C271.408 655.628 271.243 655.922 271.102 656.226C270.797 656.88 270.728 657.566 270.869 658.275C270.91 658.485 270.996 658.57 271.216 658.48H271.215ZM275.137 654.604C275.335 654.557 275.531 654.504 275.731 654.468C275.91 654.435 275.961 654.348 275.919 654.173C275.678 653.146 275.79 652.15 276.178 651.176C276.228 651.051 276.228 650.906 276.252 650.77C276.221 650.754 276.189 650.737 276.158 650.72C276.047 650.826 275.916 650.916 275.83 651.039C275.652 651.292 275.49 651.557 275.337 651.826C274.891 652.612 274.714 653.459 274.797 654.36C274.821 654.623 274.881 654.665 275.136 654.604L275.137 654.604Z" fill="white"/>
<defs>
<filter id="filter0_d_2001_2217" x="56.1" y="276" width="251.3" height="141.9" filterUnits="userSpaceOnUse" color-interpolation-filters="sRGB">
<feFlood flood-opacity="0" result="BackgroundImageFix"/>
<feColorMatrix in="SourceAlpha" type="matrix" values="0 0 0 0 0 0 0 0 0 0 0 0 0 0 0 0 0 0 127 0" result="hardAlpha"/>
<feOffset dy="20"/>
<feGaussianBlur stdDeviation="9.95"/>
<feComposite in2="hardAlpha" operator="out"/>
<feColorMatrix type="matrix" values="0 0 0 0 0.47451 0 0 0 0 0.627451 0 0 0 0 0.756863 0 0 0 0.27 0"/>
<feBlend mode="normal" in2="BackgroundImageFix" result="effect1_dropShadow_2001_2217"/>
<feBlend mode="normal" in="SourceGraphic" in2="effect1_dropShadow_2001_2217" result="shape"/>
</filter>
<filter id="filter1_d_2001_2217" x="429.6" y="258" width="273.845" height="152.9" filterUnits="userSpaceOnUse" color-interpolation-filters="sRGB">
<feFlood flood-opacity="0" result="BackgroundImageFix"/>
<feColorMatrix in="SourceAlpha" type="matrix" values="0 0 0 0 0 0 0 0 0 0 0 0 0 0 0 0 0 0 127 0" result="hardAlpha"/>
<feOffset dy="20"/>
<feGaussianBlur stdDeviation="9.95"/>
<feComposite in2="hardAlpha" operator="out"/>
<feColorMatrix type="matrix" values="0 0 0 0 0.47451 0 0 0 0 0.627451 0 0 0 0 0.756863 0 0 0 0.27 0"/>
<feBlend mode="normal" in2="BackgroundImageFix" result="effect1_dropShadow_2001_2217"/>
<feBlend mode="normal" in="SourceGraphic" in2="effect1_dropShadow_2001_2217" result="shape"/>
</filter>
<filter id="filter2_d_2001_2217" x="448.6" y="453" width="287.845" height="152.9" filterUnits="userSpaceOnUse" color-interpolation-filters="sRGB">
<feFlood flood-opacity="0" result="BackgroundImageFix"/>
<feColorMatrix in="SourceAlpha" type="matrix" values="0 0 0 0 0 0 0 0 0 0 0 0 0 0 0 0 0 0 127 0" result="hardAlpha"/>
<feOffset dy="20"/>
<feGaussianBlur stdDeviation="9.95"/>
<feComposite in2="hardAlpha" operator="out"/>
<feColorMatrix type="matrix" values="0 0 0 0 0.47451 0 0 0 0 0.627451 0 0 0 0 0.756863 0 0 0 0.27 0"/>
<feBlend mode="normal" in2="BackgroundImageFix" result="effect1_dropShadow_2001_2217"/>
<feBlend mode="normal" in="SourceGraphic" in2="effect1_dropShadow_2001_2217" result="shape"/>
</filter>
<filter id="filter3_d_2001_2217" x="571.1" y="572" width="253.845" height="123.9" filterUnits="userSpaceOnUse" color-interpolation-filters="sRGB">
<feFlood flood-opacity="0" result="BackgroundImageFix"/>
<feColorMatrix in="SourceAlpha" type="matrix" values="0 0 0 0 0 0 0 0 0 0 0 0 0 0 0 0 0 0 127 0" result="hardAlpha"/>
<feOffset dy="20"/>
<feGaussianBlur stdDeviation="9.95"/>
<feComposite in2="hardAlpha" operator="out"/>
<feColorMatrix type="matrix" values="0 0 0 0 0.47451 0 0 0 0 0.627451 0 0 0 0 0.756863 0 0 0 0.27 0"/>
<feBlend mode="normal" in2="BackgroundImageFix" result="effect1_dropShadow_2001_2217"/>
<feBlend mode="normal" in="SourceGraphic" in2="effect1_dropShadow_2001_2217" result="shape"/>
</filter>
<filter id="filter4_d_2001_2217" x="79.1" y="672.499" width="222.299" height="156.401" filterUnits="userSpaceOnUse" color-interpolation-filters="sRGB">
<feFlood flood-opacity="0" result="BackgroundImageFix"/>
<feColorMatrix in="SourceAlpha" type="matrix" values="0 0 0 0 0 0 0 0 0 0 0 0 0 0 0 0 0 0 127 0" result="hardAlpha"/>
<feOffset dy="20"/>
<feGaussianBlur stdDeviation="9.95"/>
<feComposite in2="hardAlpha" operator="out"/>
<feColorMatrix type="matrix" values="0 0 0 0 0.47451 0 0 0 0 0.627451 0 0 0 0 0.756863 0 0 0 0.27 0"/>
<feBlend mode="normal" in2="BackgroundImageFix" result="effect1_dropShadow_2001_2217"/>
<feBlend mode="normal" in="SourceGraphic" in2="effect1_dropShadow_2001_2217" result="shape"/>
</filter>
</defs>
</svg>
