<svg width="34" height="34" viewBox="0 0 34 34" fill="none" xmlns="http://www.w3.org/2000/svg">
<g opacity="0.5">
<path d="M16.6023 13.0225L17.9944 11.6304C18.2816 11.3429 18.6227 11.1148 18.9981 10.9592C19.3735 10.8035 19.7759 10.7234 20.1823 10.7233C20.5887 10.7232 20.9911 10.8031 21.3666 10.9586C21.7421 11.1141 22.0832 11.342 22.3706 11.6294C22.658 11.9168 22.8859 12.2579 23.0414 12.6334C23.1969 13.0089 23.2768 13.4113 23.2767 13.8177C23.2767 14.2241 23.1965 14.6265 23.0408 15.0019C22.8852 15.3773 22.6571 15.7184 22.3696 16.0056L20.3809 17.9944C20.0936 18.2817 19.7525 18.5095 19.3772 18.665C19.0018 18.8205 18.5995 18.9005 18.1932 18.9005C17.787 18.9005 17.3847 18.8205 17.0093 18.665C16.634 18.5095 16.2929 18.2817 16.0056 17.9944" stroke="#032154" stroke-width="2" stroke-linecap="round" stroke-linejoin="round"/>
<path d="M17.3977 20.9775L16.0056 22.3696C15.7184 22.6571 15.3773 22.8852 15.0019 23.0408C14.6265 23.1965 14.2241 23.2767 13.8177 23.2767C13.4113 23.2768 13.0089 23.1969 12.6334 23.0414C12.2579 22.8859 11.9168 22.658 11.6294 22.3706C11.342 22.0832 11.1141 21.7421 10.9586 21.3666C10.8031 20.9911 10.7232 20.5887 10.7233 20.1823C10.7233 19.7759 10.8035 19.3735 10.9592 18.9981C11.1148 18.6227 11.3429 18.2816 11.6304 17.9944L13.6191 16.0056C13.9064 15.7183 14.2475 15.4905 14.6228 15.335C14.9982 15.1795 15.4005 15.0995 15.8068 15.0995C16.213 15.0995 16.6153 15.1795 16.9907 15.335C17.366 15.4905 17.7071 15.7183 17.9944 16.0056" stroke="#032154" stroke-width="2" stroke-linecap="round" stroke-linejoin="round"/>
</g>
</svg>
