<svg width="24" height="24" viewBox="0 0 24 24" fill="none" xmlns="http://www.w3.org/2000/svg">
<path d="M12 1.5C16.6944 1.5 20.5 5.30558 20.5 10C20.5 11.2051 20.0947 12.5817 19.4883 13.9424C18.8783 15.3108 18.0475 16.7019 17.1572 17.9473C16.2675 19.1917 15.3078 20.3052 14.4336 21.1133C13.9971 21.5167 13.5712 21.8537 13.1777 22.0928C12.7978 22.3236 12.3888 22.5 12 22.5C11.6112 22.5 11.2022 22.3236 10.8223 22.0928C10.4288 21.8537 10.0029 21.5167 9.56641 21.1133C8.69218 20.3052 7.73248 19.1917 6.84277 17.9473C5.95247 16.7019 5.12167 15.3108 4.51172 13.9424C3.90526 12.5817 3.5 11.2051 3.5 10C3.5 5.30558 7.30558 1.5 12 1.5ZM12 2.5C7.85786 2.5 4.5 5.85786 4.5 10C4.5 11.0039 4.84482 12.2317 5.42578 13.5352C6.00325 14.8307 6.79766 16.1639 7.65723 17.3662C8.51733 18.5692 9.43299 19.6274 10.2461 20.3789C10.6532 20.7552 11.0244 21.0455 11.3418 21.2383C11.6728 21.4393 11.8888 21.5 12 21.5C12.1112 21.5 12.3272 21.4393 12.6582 21.2383C12.9756 21.0455 13.3468 20.7552 13.7539 20.3789C14.567 19.6274 15.4827 18.5692 16.3428 17.3662C17.2023 16.1639 17.9967 14.8307 18.5742 13.5352C19.1552 12.2317 19.5 11.0039 19.5 10C19.5 5.85786 16.1421 2.5 12 2.5ZM12 5.5C14.4853 5.5 16.5 7.51472 16.5 10C16.5 12.4853 14.4853 14.5 12 14.5C9.51472 14.5 7.5 12.4853 7.5 10C7.5 7.51472 9.51472 5.5 12 5.5ZM12 6.5C10.067 6.5 8.5 8.067 8.5 10C8.5 11.933 10.067 13.5 12 13.5C13.933 13.5 15.5 11.933 15.5 10C15.5 8.067 13.933 6.5 12 6.5Z" fill="#032154"/>
</svg>
