<svg width="90" height="90" viewBox="0 0 90 90" fill="none" xmlns="http://www.w3.org/2000/svg">
<path d="M45 84.2668C52.7344 84.2668 75.9375 54.4958 75.9375 37.1466C75.9375 19.7975 62.0863 5.73318 45 5.73318C27.9137 5.73318 14.0625 19.7975 14.0625 37.1466C14.0625 54.4958 37.2656 84.2668 45 84.2668Z" fill="#032154"/>
<path d="M55.6855 35.5353C55.9558 35.3774 56.2121 35.1805 56.4355 34.9616C58.1459 33.2796 58.7922 31.1608 58.9318 28.6253C58.86 28.1976 58.8141 27.56 58.6416 26.9583C57.9215 24.4518 55.7234 23.8561 53.8345 25.6441C52.5261 26.8824 51.8818 28.4744 51.5507 30.2034C51.3094 31.4607 51.3263 32.7169 51.7651 33.9432C52.4263 35.7911 54.0859 36.4707 55.6865 35.5363L55.6855 35.5353ZM44.9535 20.6091C46.1981 20.64 46.3577 20.3072 46.1872 19.4777C45.887 18.0146 45.6037 15.538 45.2876 13.5722C45.2477 13.3264 45.0582 13.1045 44.9385 12.8726C44.8428 13.1195 44.6932 13.3603 44.6613 13.6152C44.413 15.577 44.1886 17.5419 43.9562 19.5057C43.8275 20.5891 43.8275 20.5811 44.9545 20.6101L44.9535 20.6091ZM56.2321 21.9573C56.1842 22.391 55.9768 22.9687 56.1742 23.2235C56.3906 23.5034 56.988 23.4894 57.4219 23.5973C58.0671 23.7582 58.1289 23.7212 58.1838 23.0446C58.3813 20.635 57.4986 18.5912 56.0326 16.7543C55.9089 16.5994 55.7194 16.4965 55.5609 16.3696C55.508 16.4025 55.4542 16.4355 55.4013 16.4675C55.4631 16.7523 55.4851 17.0542 55.5938 17.319C56.2051 18.8121 56.4096 20.3562 56.2331 21.9573H56.2321ZM66.2939 34.4489C66.0356 33.2476 65.519 32.2142 64.1956 31.9324C63.0766 31.6935 62.1441 32.1872 61.3313 32.9048C59.7007 34.345 58.858 36.2139 58.5259 38.3276C58.3613 39.379 58.4471 40.4234 58.9108 41.4028C59.4603 42.5631 60.5344 43.1498 61.7212 42.835C62.2827 42.6861 62.8592 42.4122 63.308 42.0464C65.3405 40.3914 66.2231 38.1557 66.4186 35.6352C66.3757 35.2085 66.3727 34.8207 66.2929 34.4489H66.2939ZM64.0549 25.0624C64.6434 26.7424 64.6573 28.4145 64.0579 30.0955C64.023 30.1944 64.1507 30.4383 64.2584 30.4852C64.6374 30.6491 65.0503 30.7331 65.4332 30.89C65.8541 31.0629 66.0326 30.934 66.1194 30.5012C66.5682 28.2705 65.8092 26.3837 64.4928 24.6507C64.409 24.5407 64.2694 24.4718 64.1567 24.3848C64.1088 24.4058 64.0619 24.4268 64.0141 24.4478C64.025 24.6537 63.9901 24.8755 64.0549 25.0614V25.0624ZM42.7435 32.587C43.4097 33.3675 44.2384 33.8163 45.2936 33.5834C46.254 33.3715 46.8624 32.6909 47.3331 31.8774C48.0691 30.6042 48.3124 29.207 48.3284 27.8718C48.3184 26.3027 48.0472 24.9125 47.2912 23.6493C46.0236 21.5315 43.7966 21.4556 42.4433 23.5064C41.3991 25.0884 41.1717 26.8804 41.3143 28.7223C41.424 30.1344 41.798 31.4787 42.7435 32.587ZM60.4407 45.0657C58.7941 43.8973 57.0339 42.8749 55.2587 41.9075C54.1676 41.3139 53.1703 40.7322 52.6168 39.5389C52.2767 38.8053 51.7791 38.1427 51.3293 37.4631C50.7409 36.5747 49.948 35.8911 48.9268 35.6102C46.1752 34.8537 43.4167 34.8187 40.698 35.7921C39.6628 36.1629 38.9377 36.8995 38.468 37.8909C38.2546 38.3416 38.0442 38.7943 37.8327 39.2461C37.5325 39.8897 37.0887 40.3814 36.4534 40.7202C35.7394 41.1 35.0373 41.5037 34.3531 41.9355C32.5819 43.0538 30.8047 44.1662 29.4274 45.7932C27.0528 48.5986 26.7516 50.8133 28.3703 54.576C29.0365 56.1241 30.4836 56.5389 31.9805 56.7957C33.5174 57.0586 35.0253 56.7658 36.5332 56.5199C38.9208 56.1311 42.7235 55.5325 44.8049 55.5585C47.1586 55.5874 49.7745 55.9802 51.6883 56.2441C53.8345 56.5399 55.9708 56.7708 58.1399 56.4989C59.4863 56.33 60.5783 55.8453 61.2555 54.578C62.1252 52.949 62.7186 51.27 62.6009 49.3851C62.4912 47.6301 61.8669 46.0771 60.4417 45.0657H60.4407ZM30.2173 41.4858C30.7568 40.5293 30.9174 39.4879 30.9084 38.4076C30.9084 38.3246 30.9114 38.2407 30.9084 38.1577C30.8007 35.998 30.2103 34.0232 28.6425 32.4561C27.6103 31.4247 26.2939 31.1868 25.2946 31.8205C24.4748 32.3391 24.0529 33.1477 23.8265 34.0591C23.3418 36.006 23.6061 37.8899 24.3691 39.7188C24.7989 40.7492 25.4142 41.6497 26.3218 42.3193C27.741 43.3667 29.3546 43.0169 30.2173 41.4868V41.4858ZM33.7009 35.4323C35.1111 36.4477 36.7048 36.0869 37.5565 34.5778C37.6781 34.362 37.7898 34.1351 37.8706 33.9012C38.5448 31.9324 38.3114 29.9975 37.6153 28.0927C37.1915 26.9333 36.5482 25.9119 35.5369 25.1674C34.1337 24.133 32.554 24.4538 31.6624 25.9479C31.0331 27.0033 30.9314 28.1736 30.9254 29.7467C31.045 30.2934 31.1837 31.2178 31.4529 32.1023C31.8569 33.4305 32.549 34.6028 33.7009 35.4323ZM24.778 30.901C25.145 30.7511 25.5259 30.6302 25.9099 30.5302C26.2231 30.4483 26.2979 30.3243 26.1812 30.0025C25.6047 28.4155 25.6167 26.8194 26.1463 25.2173C26.228 24.9695 26.2181 24.6897 26.25 24.4248C26.1961 24.4008 26.1423 24.3768 26.0884 24.3529C25.879 24.5727 25.6257 24.7646 25.4691 25.0175C25.139 25.5521 24.8308 26.1038 24.5655 26.6735C23.9941 27.8998 23.8654 29.186 24.1287 30.5162C24.2065 30.91 24.3671 31.0699 24.779 30.901H24.778ZM32.1311 23.6323C32.5021 23.5443 32.8711 23.4454 33.2461 23.3774C33.5802 23.3165 33.6759 23.1526 33.5982 22.8238C33.1454 20.8989 33.3558 19.031 34.0828 17.2051C34.1766 16.9702 34.1776 16.6994 34.2225 16.4445C34.1636 16.4135 34.1048 16.3816 34.0469 16.3506C33.8385 16.5485 33.5932 16.7184 33.4306 16.9492C33.0975 17.4229 32.7933 17.9196 32.5071 18.4243C31.6714 19.8985 31.3383 21.4855 31.4938 23.1745C31.5397 23.6683 31.6524 23.7472 32.1301 23.6333L32.1311 23.6323Z" fill="white"/>
</svg>
