<svg width="24" height="24" viewBox="0 0 24 24" fill="none" xmlns="http://www.w3.org/2000/svg">
<path d="M12 0C18.6274 0 24 5.37258 24 12C24 18.6274 18.6274 24 12 24C5.37258 24 0 18.6274 0 12C0 5.37258 5.37258 0 12 0ZM12.1133 5C8.25583 5.00017 5.00011 7.78402 5 11.4844C5 13.0337 5.30736 14.1033 5.57812 15.0635C5.80541 15.8428 6.0058 16.5567 6.00586 17.4014C6.1028 18.5268 8.32632 17.8691 9.02832 17.0273C10.1382 17.7756 10.7765 17.9629 12.1504 17.9629C15.9484 17.944 19.013 15.0606 19 11.5186C18.9998 7.92101 15.9742 5 12.1133 5ZM12.207 8.19824V8.20215C14.1539 8.30614 15.6531 9.8449 15.5771 11.6621C15.4464 13.4756 13.7826 14.8578 11.8359 14.7705C11.2266 14.7249 10.6406 14.5301 10.1377 14.2061C9.83349 14.4897 9.34524 14.8581 9.15137 14.8145C8.74696 14.7136 8.27269 12.7965 8.54004 11.2227C8.86429 9.32102 10.3285 8.10794 12.207 8.19824Z" fill="#032154"/>
</svg>
