<svg width="616" height="168" viewBox="0 0 616 168" fill="none" xmlns="http://www.w3.org/2000/svg">
<g clip-path="url(#clip0_2080_720)">
<path fill-rule="evenodd" clip-rule="evenodd" d="M263.211 88.2398L240.315 88.2398L223.692 138.628L-23.7432 138.628L-23.7432 247.735L175.704 247.735L175.704 298.123L198.287 297.81L215.223 247.735L251.606 247.735L251.606 298.123L274.189 297.81L290.812 247.735L327.195 247.735L327.195 298.123L349.777 297.81L366.401 247.735L402.784 247.735L402.784 298.123L425.366 297.81L442.303 247.735L616 247.735L616 138.628L414.388 138.628L414.388 88.2398L391.806 88.2398L375.183 138.628L338.8 138.628L338.8 88.2398L316.217 88.2398L299.28 138.628L263.211 138.628L263.211 88.2398Z" fill="#032154"/>
</g>
<defs>
<clipPath id="clip0_2080_720">
<rect width="168" height="616" fill="white" transform="translate(7.34351e-06 168) rotate(-90)"/>
</clipPath>
</defs>
</svg>
