<svg width="882" height="1107" viewBox="0 0 882 1107" fill="none" xmlns="http://www.w3.org/2000/svg">
<path d="M99.7255 379.985L142.039 350.157L153.832 395.94L218.343 453.514L236.379 463.919L306.44 475.712L368.87 496.522L365.402 513.17H370.951L373.032 527.737L384.131 568.664L388.987 575.601L382.744 585.312L384.131 606.816H453.498V636.644L525.64 634.563V687.976L546.45 764.279L540.901 796.882H565.873V803.125L546.45 814.918L549.225 821.854L539.514 826.71L537.433 831.566L507.605 855.151L478.47 878.042L441.012 907.87L421.589 915.5L418.121 906.482L432.688 898.158L427.832 889.834L449.336 871.799H453.498L459.741 857.925V836.421L468.759 826.71L463.21 819.773L470.84 805.9L466.678 801.044L470.84 793.414L453.498 785.783L446.562 798.963L432.688 785.783L425.751 793.414L420.202 785.783L411.878 787.171L409.797 780.234L405.635 777.459V767.748L396.617 755.955L387.599 761.505L379.969 746.244V739.307L374.42 738.614L371.645 741.388L354.997 755.262L352.916 764.279L379.969 778.847L388.987 771.91L406.329 794.801L411.184 790.639L425.751 801.044L407.022 821.854L401.473 815.611H397.311V819.773H392.455V815.611L397.311 810.062L391.761 808.674L387.599 812.837L381.356 807.981L373.032 813.53H368.177L361.934 819.773L354.997 808.674L349.447 814.918L345.285 808.674H337.655L334.187 803.125H324.475L318.232 808.674L314.07 798.963L308.521 794.107L306.44 787.171L298.116 784.396L289.792 796.882L279.387 789.252L261.351 835.034L257.883 843.358L276.612 855.151V881.51L232.217 859.313L221.812 868.33L211.407 862.087L186.434 881.51L178.804 878.042H167.012L145.508 853.763L161.462 825.323L162.85 810.062L164.931 803.819L153.832 790.639L164.931 781.621H170.48L182.966 758.73L176.723 753.181L155.219 769.829L152.445 773.991L115.68 762.892L103.888 751.1L113.599 721.965L106.662 720.578L83.0773 718.497L76.1406 714.335V707.398L78.9153 703.236L76.1406 698.381L83.0773 696.993L78.9153 689.363L83.0773 685.895L86.5457 658.841L93.4824 652.598L95.5634 645.662L121.923 629.707L130.247 640.112L136.49 657.454L152.445 668.553L153.832 662.31L149.67 657.454L152.445 629.707L164.931 621.383L168.399 615.14L162.156 612.365L163.543 608.897L172.561 612.365L184.353 590.168L188.516 569.358L160.769 520.107L163.543 516.639L178.11 535.368L198.227 499.297L203.776 488.892L222.505 499.297L221.118 475.712L209.326 473.631L194.759 459.757L184.353 453.514L153.832 434.092L130.247 452.127L126.779 437.56L120.536 428.542L114.986 425.767L116.374 418.137L99.7255 379.985Z" fill="#5C89AE" stroke="white" stroke-width="2"/>
<path d="M325.169 274.547L297.422 285.645L279.386 300.212L280.774 308.537L291.872 300.212H314.764L351.528 287.726L355.69 302.987H370.951L372.338 310.618L365.402 319.635V330.04L372.338 339.058L398.004 327.266L420.202 323.104V335.59L423.67 339.058L388.986 368.886L400.779 386.228L386.905 400.101V404.263L375.807 410.506L370.951 419.524V427.154L352.222 452.127V471.549L343.663 489.968L305.052 477.099L234.991 465.306L216.956 454.901L152.444 397.327L140.652 351.544L130.94 335.59L96.2568 305.068L114.986 289.807H127.472L143.427 305.068L161.462 302.987L168.399 295.357L167.011 280.096L185.047 262.06L200.308 278.015L193.371 285.645L191.29 282.177L182.272 291.888L193.371 302.987L234.991 282.177L257.189 278.015L268.981 268.997H282.161L314.764 257.898L325.169 274.547Z" fill="#9FBDD6" stroke="white" stroke-width="2"/>
<path d="M419.508 205.18H424.363L429.913 196.162L438.237 197.549L459.741 207.261V213.504L474.308 218.36L522.865 260.674L537.432 250.268V238.476L584.602 228.765L608.88 232.927L593.619 289.808V330.734L600.556 337.671L541.594 341.14L537.432 337.671L531.189 348.77L535.351 370.967L545.756 389.003L547.837 398.021L551.305 404.264L588.764 368.886L608.88 364.724L619.285 379.291L631.078 373.742L637.321 375.129L641.483 384.147V392.471L643.564 404.264V424.38L638.708 436.866L640.095 454.208L632.465 463.226L628.303 468.775L631.078 480.568V494.441L490.262 549.935L453.498 546.466L428.525 532.593L404.247 511.783L367.167 499.423L367.482 497.909L343.663 489.969L352.222 471.55V452.127L370.951 427.155V419.524L375.806 410.507L386.905 404.264V400.102L400.779 386.228L388.986 368.886L423.67 339.059L420.201 335.59V323.104L420.103 323.122L429.913 312.005L441.012 309.924L450.723 302.988L446.561 292.582V283.565H434.769V292.582H431.994V296.744H428.525V304.375L417.427 303.681L416.039 289.808H410.49L388.292 272.466L362.627 266.223L346.672 247.494L362.627 226.684L365.401 214.891L382.049 226.684L393.148 213.504V197.549L399.391 199.63L408.409 192L419.508 205.18Z" fill="#B6CFE2" stroke="white" stroke-width="2"/>
<path d="M651.194 486.81L673.392 495.134L660.906 511.089L669.23 517.332L673.392 535.367L665.068 548.547L662.987 565.195L659.518 569.357L662.987 570.744L659.518 589.474L676.86 624.157L666.455 658.841L651.194 656.76L642.87 667.165L617.204 678.957L623.447 690.75L607.493 700.461L619.285 721.965L594.313 730.289L599.169 742.081L596.394 761.504L563.098 783.702H543.4L546.481 765.597L546.401 765.302L525.64 689.177V636.643H545.062L566.566 624.157L556.161 606.122V562.42L542.288 538.835L541.167 529.872L631.078 494.44V485.301L651.194 486.81Z" fill="#79A0C1" stroke="white" stroke-width="2"/>
<path d="M404.247 511.783L428.526 532.593L453.498 546.467L490.262 549.935L541.167 529.873L542.288 538.836L556.161 562.421V606.122L566.566 624.158L545.062 636.644H525.64V634.522L453.498 636.602V606.816H384.044L382.769 587.064L389.269 576.956L384.018 569.453L373.006 528.85L370.766 513.17H365.72L368.49 499.863L404.247 511.783Z" fill="#AFD0EC" stroke="white" stroke-width="2"/>
</svg>
