<svg width="882" height="1107" viewBox="0 0 882 1107" fill="none" xmlns="http://www.w3.org/2000/svg">
<g filter="url(#filter0_d_2001_1675)">
<path d="M467.514 171.755L448.304 180.621H443.378L429.586 155.007L431.556 151.067L443.378 156.978L444.856 146.634L448.304 136.29L411.854 94.4208L417.764 83.5842V73.2401L424.66 58.9554L444.856 56L459.633 61.9109H467.514L490.665 56L518.25 83.5842V94.4208L524.16 106.243L534.012 151.067L529.086 165.351L506.92 158.948V171.755L476.381 165.351L467.514 171.755Z" fill="#5C89AE" stroke="white" stroke-width="2"/>
<path d="M591.151 803.235L560.118 806.683L554.208 832.79L549.774 834.76L547.311 844.612V852L544.849 857.911L531.057 850.522L523.668 870.225H513.816L512.339 884.51L492.143 875.644L443.378 873.181V888.451L422.198 885.495L420.227 932.29L419.242 968.248L424.661 969.725L428.601 972.188H435.99L443.378 964.307L451.752 962.829L456.678 956.426H462.096L464.066 950.515H468.5L471.948 946.082L477.859 945.097L482.292 935.738H488.203L501.995 923.423L538.445 952.485L573.911 950.515L578.344 948.052H584.747H588.195L602.972 945.097L606.913 950.515L597.062 964.307L599.524 969.725L602.972 978.099H608.391L611.839 975.144L621.69 969.725H635.975L641.393 972.188L647.797 986.965V999.772L654.2 1004.7L651.245 1007.65L647.797 1041.15L651.245 1044.6L654.2 1033.76H662.081C662.869 1033.76 665.694 1032.77 667.007 1032.28L670.948 1029.33L673.411 1031.3L677.351 1033.76V1051L702.472 1049.52L712.324 1048.04L714.294 1041.15L722.668 1038.19L725.131 1023.91L727.594 1012.58H732.027C733.833 1009.95 737.051 1004.7 735.475 1004.7C733.899 1004.7 734.818 1002.4 735.475 1001.25L733.012 998.295L712.324 989.428L709.861 980.562L730.057 962.337L727.594 960.366V954.948L722.668 948.052H705.428L702.472 932.782L704.443 929.334L703.458 849.537L730.549 842.641L715.772 798.31L700.502 790.921L693.113 775.159L669.47 774.173L662.574 769.74L639.915 774.173L637.453 775.159L633.019 777.129L629.571 779.099L622.183 771.218L619.72 774.173L616.272 788.951L596.569 813.087L591.151 809.639V803.235Z" fill="#79A0C1" stroke="white" stroke-width="2"/>
<path d="M426.631 546.111L454.215 568.277L464.56 600.294L484.755 638.715L511.847 665.314L562.582 678.614L580.314 694.869L581.3 701.765L506.921 706.198L502.488 708.168H482.292L480.322 710.139H455.201C454.412 710.139 454.215 711.78 454.215 712.601L434.512 714.079L434.02 725.408L415.302 738.708L410.376 731.812L406.436 729.842L345.849 720.975C343.715 724.587 339.249 731.812 338.461 731.812H331.564V723.438L326.146 719.005L294.129 717.527L291.173 702.75L284.277 698.317L297.577 681.569L301.517 673.195L308.413 666.792L314.324 664.822L310.876 657.433L320.728 652.015L325.161 650.537L333.535 645.611L340.923 650.044L345.849 645.119V617.535H354.715L356.686 614.579L361.612 615.072L362.597 610.639L364.074 609.161L369.985 610.639L371.956 604.728L374.418 603.743L375.404 606.205H380.329L396.584 588.965L402.988 587.488V572.218L426.631 546.111Z" fill="#B6CFE2" stroke="white" stroke-width="2"/>
<path d="M170 572.218V589.458L177.389 592.413L201.032 615.564L284.277 698.317L297.577 681.569L301.517 673.196L308.413 666.792L314.324 664.822L311.861 658.418L321.22 652.508L325.161 651.522L333.535 645.611L340.923 650.045L345.849 645.119V618.027L354.715 618.52L356.686 615.564H361.611L362.597 611.624L364.074 610.146L370.478 611.131L371.955 605.713L374.911 604.728L375.403 607.191H380.329L396.584 588.965L402.988 587.488V572.218L426.631 546.111L337.475 474.196L275.411 442.671L227.631 482.569L222.705 495.869H210.391V499.81V509.661L208.421 512.124V516.557L170 572.218Z" fill="#9FBDD6" stroke="white" stroke-width="2"/>
<path d="M454.215 568.277H460.618L478.351 583.055L487.71 584.532L490.173 592.413L491.65 605.22L498.547 612.116L547.311 628.864L557.655 621.475L570.462 620.49L587.702 605.22L601.987 600.787L626.616 596.847L641.393 594.384L643.856 590.936L661.589 592.413L670.948 601.28L671.933 612.116L684.74 623.446L690.158 634.775L699.517 636.745L714.294 632.312L723.653 630.342L733.504 634.775L740.893 653.985L756.655 664.329L748.774 679.107L740.893 684.032V693.391L734.49 704.72L737.938 723.931L736.952 739.693L745.326 765.8C735.493 776.439 716.1 797.524 715.77 798.288C715.786 798.302 715.787 798.31 715.772 798.31C715.765 798.31 715.764 798.302 715.77 798.288C715.374 797.935 705.554 793.289 700.502 790.921C697.711 785.667 692.325 775.159 693.113 775.159C693.901 775.159 677.679 774.502 669.47 774.173L662.574 769.74L639.915 774.173L633.019 777.129L629.571 779.099L622.183 771.218L619.72 774.173L617.749 783.532L616.272 788.951L596.569 813.087L591.15 809.639V803.235L560.118 806.683L566.522 782.547L574.403 772.696L576.866 750.53L582.777 735.753L583.269 715.557L580.314 694.869L562.581 678.614L511.846 665.314L484.754 638.715L464.559 600.295L457.17 578.129L454.215 568.277Z" fill="#99BDDD"/>
<path d="M454.215 568.277H460.618L478.351 583.055L487.71 584.532L490.173 592.413L491.65 605.22L498.547 612.116L547.311 628.864L557.655 621.475L570.462 620.49L587.702 605.22L601.987 600.787L626.616 596.847L641.393 594.384L643.856 590.936L661.589 592.413L670.948 601.28L671.933 612.116L684.74 623.446L690.158 634.775L699.517 636.745L714.294 632.312L723.653 630.342L733.504 634.775L740.893 653.985L756.655 664.329L748.774 679.107L740.893 684.032V693.391L734.49 704.72L737.938 723.931L736.952 739.693L745.326 765.8C735.311 776.636 715.378 798.31 715.772 798.31C716.166 798.31 705.756 793.384 700.502 790.921C697.711 785.667 692.325 775.159 693.113 775.159C693.901 775.159 677.679 774.502 669.47 774.173L662.574 769.74L639.915 774.173L633.019 777.129L629.571 779.099L622.183 771.218L619.72 774.173L617.749 783.532L616.272 788.951L596.569 813.087L591.15 809.639V803.235L560.118 806.683L566.522 782.547L574.403 772.696L576.866 750.53L582.777 735.753L583.269 715.557L580.314 694.869L562.581 678.614L511.846 665.314L484.754 638.715L464.559 600.295L457.17 578.129L454.215 568.277Z" stroke="white" stroke-width="2"/>
<path d="M427.616 516.064L408.898 531.827L454.215 568.277H460.619L478.351 583.054L487.71 584.532L490.173 592.413L491.651 605.22L498.547 612.116L547.312 628.864L557.656 621.475L570.463 620.49L576.374 615.072L587.703 605.22L601.988 600.787L641.393 594.383L642.379 592.906L635.975 581.084C636.304 579.114 636.96 575.075 636.96 574.68C636.96 574.286 637.945 571.561 638.438 570.247L640.408 567.292L638.438 565.322L631.049 564.336L628.587 558.426L628.094 548.574L630.557 543.156V522.96L633.02 520.497V503.257L637.945 496.361L638.438 479.121V466.314L642.379 426.908L626.616 436.267L529.087 466.314L523.668 470.747H517.265L512.832 457.94L499.532 466.314L471.948 452.029L471.455 460.403H460.619L451.26 470.747L445.349 469.27L443.871 477.151L426.631 503.75L427.616 516.064Z" fill="#7DA7CB" stroke="white" stroke-width="2"/>
<path d="M451.26 463.359L455.201 466.807L460.127 460.404H471.456L471.948 452.03L499.533 466.315L512.832 457.941L517.265 470.748H523.669L528.594 466.315L594.599 445.627L627.109 436.268L642.379 426.909L643.857 420.998L651.245 394.891L643.857 393.414L637.946 391.443L629.08 382.085L617.75 379.622L614.795 372.726H607.899L604.943 368.292H598.54L588.196 357.948L578.344 356.963L574.404 349.575L578.344 345.141L568.493 337.753V332.827L554.701 330.364V323.961L525.146 301.795L522.191 311.154L505.443 366.322L496.577 357.948L471.456 379.129L471.948 382.085L464.067 389.473L473.919 400.31L446.827 420.013V429.864H449.783V449.075H451.26V463.359Z" fill="#AFD0EC" stroke="white" stroke-width="2"/>
<path d="M352.745 456.463L338 474L410 531.5L415.302 526.408L417.272 510.646L408.898 497.839L407.913 476.166L404.958 475.673L400.032 434.297L383.285 439.223L375.896 436.76L362.596 446.611L361.611 453.507L352.745 456.463Z" fill="#48779E"/>
<path d="M275.411 442.671L337.475 474.195L352.745 456.463L361.611 453.507L362.596 446.611L375.896 436.76L383.284 439.223L439.93 422.475L435.497 401.787L428.601 408.683H418.257V404.742L445.841 369.277L437.96 361.888L436.482 353.022L423.676 339.723L424.661 336.767L426.631 325.931L424.661 322.482L423.676 314.109L426.631 311.646L427.124 302.78H424.661V294.406H417.272L413.331 289.973V278.643H419.242L423.676 269.284L411.361 264.851L409.883 254.507L409.391 247.611L390.18 241.208L379.344 230.371L285.755 252.537H271.47L270.978 255L264.574 255.492L263.589 261.403L244.871 301.794L242.408 372.232L258.663 396.369L267.529 405.728L272.948 421.49L284.277 432.819L275.411 442.671Z" fill="#79A0C1" stroke="white" stroke-width="2"/>
<path d="M475.396 281.106L409.391 247.611L411.361 264.851L423.675 269.284L419.242 278.643H413.331V289.973L416.779 294.406H424.66V302.779H427.123L426.631 311.646L423.675 314.109L424.66 322.482L426.138 325.93L423.675 339.723L436.482 353.515L437.96 361.888L445.349 369.277L417.764 404.742V409.175H428.108L435.497 402.279L439.438 422.475L446.826 420.012L473.918 400.309L464.066 389.473L471.948 382.084L471.455 379.128L496.576 357.948L505.443 366.322L517.757 324.945L524.653 305.735L534.012 258.448L531.549 254.507V223.475L517.264 222.982L515.787 226.923L498.547 242.685C498.547 244.163 498.448 247.217 498.054 247.611C497.66 248.005 503.801 248.432 506.92 248.596L506.428 256.477L512.831 260.418L512.339 263.866L508.891 264.851H499.039L491.651 272.732L488.203 268.792L475.396 281.106Z" fill="#5C89AE" stroke="white" stroke-width="2"/>
<path d="M446.826 420.013L400.524 434.297L404.958 475.674L407.913 476.166L408.898 497.839L417.272 510.646L415.302 526.409L427.616 516.065L426.631 503.75L443.871 477.644L445.349 469.27L451.26 470.748L455.2 466.807L451.26 463.359V449.075H449.782V429.864H446.826V420.013Z" fill="#8AACC8" stroke="white" stroke-width="2"/>
</g>
<defs>
<filter id="filter0_d_2001_1675" x="149.1" y="54.8901" width="628.768" height="1037.07" filterUnits="userSpaceOnUse" color-interpolation-filters="sRGB">
<feFlood flood-opacity="0" result="BackgroundImageFix"/>
<feColorMatrix in="SourceAlpha" type="matrix" values="0 0 0 0 0 0 0 0 0 0 0 0 0 0 0 0 0 0 127 0" result="hardAlpha"/>
<feOffset dy="20"/>
<feGaussianBlur stdDeviation="9.95"/>
<feComposite in2="hardAlpha" operator="out"/>
<feColorMatrix type="matrix" values="0 0 0 0 0.47451 0 0 0 0 0.627451 0 0 0 0 0.756863 0 0 0 0.27 0"/>
<feBlend mode="normal" in2="BackgroundImageFix" result="effect1_dropShadow_2001_1675"/>
<feBlend mode="normal" in="SourceGraphic" in2="effect1_dropShadow_2001_1675" result="shape"/>
</filter>
</defs>
</svg>
