<svg width="882" height="1107" viewBox="0 0 882 1107" fill="none" xmlns="http://www.w3.org/2000/svg">
<g filter="url(#filter0_d_2001_2058)">
<path d="M766.545 263H578.274L518.5 317L573.545 248.715V204H766.545V263Z" fill="#F7F8FA"/>
<path d="M599.394 238.168C596.3 238.168 594.032 236.012 594.032 233.1C594.032 230.188 596.3 228.032 599.394 228.032C602.474 228.032 604.756 230.174 604.756 233.1C604.756 236.026 602.474 238.168 599.394 238.168ZM599.394 236.236C601.144 236.236 602.46 234.962 602.46 233.1C602.46 231.238 601.144 229.964 599.394 229.964C597.644 229.964 596.328 231.238 596.328 233.1C596.328 234.962 597.644 236.236 599.394 236.236ZM611.669 238L609.653 235.144H608.519V238H606.335V230.468H608.519V233.394H609.695L611.739 230.468H614.063L611.431 234.08L614.245 238H611.669ZM621.577 230.468V232.26H619.029V238H616.859V232.26H614.311V230.468H621.577ZM625.767 230.468H629.365V238H627.419V235.844H625.809L624.381 238H622.057L623.779 235.536C622.743 235.13 622.169 234.346 622.169 233.24C622.169 231.448 623.555 230.468 625.767 230.468ZM625.809 232.246C624.899 232.246 624.395 232.554 624.395 233.31C624.395 234.066 624.871 234.388 625.781 234.388H627.419V232.246H625.809ZM635.818 230.986C637.988 230.986 639.402 232.4 639.402 234.514C639.402 236.712 637.68 238.168 635.286 238.168C632.724 238.168 631.058 236.53 631.058 233.184C631.058 230.188 632.318 228.354 635.076 227.794L638.66 227.08L638.954 228.956L635.79 229.586C634.068 229.922 633.298 230.65 633.144 232.092C633.788 231.392 634.712 230.986 635.818 230.986ZM635.3 236.474C636.448 236.474 637.162 235.634 637.162 234.542C637.162 233.394 636.42 232.68 635.3 232.68C634.18 232.68 633.41 233.394 633.41 234.542C633.41 235.676 634.194 236.474 635.3 236.474ZM645.322 230.356C647.436 230.356 649.074 231.868 649.074 234.234C649.074 236.6 647.436 238.112 645.322 238.112C644.384 238.112 643.614 237.818 643.054 237.202V240.716H640.87V230.468H642.956V231.336C643.502 230.678 644.314 230.356 645.322 230.356ZM644.944 236.32C646.036 236.32 646.862 235.536 646.862 234.234C646.862 232.932 646.036 232.148 644.944 232.148C643.852 232.148 643.026 232.932 643.026 234.234C643.026 235.536 643.852 236.32 644.944 236.32ZM654.679 232.876C656.653 232.89 657.717 233.8 657.717 235.382C657.717 237.048 656.485 238.014 654.385 238.014L650.605 238V230.468H652.775V232.876H654.679ZM654.189 236.46C655.029 236.474 655.491 236.096 655.491 235.354C655.491 234.612 655.029 234.304 654.189 234.29L652.775 234.276V236.46H654.189ZM662.665 238.112C660.215 238.112 658.465 236.502 658.465 234.234C658.465 231.966 660.215 230.356 662.665 230.356C664.247 230.356 665.493 231.042 666.039 232.274L664.345 233.184C663.939 232.47 663.337 232.148 662.651 232.148C661.545 232.148 660.677 232.918 660.677 234.234C660.677 235.55 661.545 236.32 662.651 236.32C663.337 236.32 663.939 236.012 664.345 235.284L666.039 236.208C665.493 237.412 664.247 238.112 662.665 238.112ZM672.7 238L670.684 235.144H669.55V238H667.366V230.468H669.55V233.394H670.726L672.77 230.468H675.094L672.462 234.08L675.276 238H672.7ZM676.349 238V230.468H678.519V234.948L682.187 230.468H684.189V238H682.019V233.52L678.365 238H676.349ZM690.068 229.656C688.43 229.656 687.604 228.942 687.59 227.486H689.018C689.032 228.13 689.368 228.522 690.054 228.522C690.726 228.522 691.104 228.13 691.104 227.486H692.56C692.546 228.942 691.706 229.656 690.068 229.656ZM686.288 238V230.468H688.458V234.948L692.126 230.468H694.128V238H691.958V233.52L688.304 238H686.288ZM704.631 230.356C706.745 230.356 708.383 231.868 708.383 234.234C708.383 236.6 706.745 238.112 704.631 238.112C703.693 238.112 702.923 237.818 702.363 237.202V240.716H700.179V230.468H702.265V231.336C702.811 230.678 703.623 230.356 704.631 230.356ZM704.253 236.32C705.345 236.32 706.171 235.536 706.171 234.234C706.171 232.932 705.345 232.148 704.253 232.148C703.161 232.148 702.335 232.932 702.335 234.234C702.335 235.536 703.161 236.32 704.253 236.32ZM712.716 230.356C715.012 230.356 716.342 231.42 716.342 233.702V238H714.298V237.062C713.892 237.748 713.108 238.112 712.002 238.112C710.238 238.112 709.188 237.132 709.188 235.83C709.188 234.5 710.126 233.576 712.422 233.576H714.158C714.158 232.638 713.598 232.092 712.422 232.092C711.624 232.092 710.798 232.358 710.252 232.792L709.468 231.266C710.294 230.678 711.512 230.356 712.716 230.356ZM712.548 236.642C713.276 236.642 713.906 236.306 714.158 235.62V234.85H712.66C711.638 234.85 711.316 235.228 711.316 235.732C711.316 236.278 711.778 236.642 712.548 236.642ZM722.019 229.656C720.381 229.656 719.555 228.942 719.541 227.486H720.969C720.983 228.13 721.319 228.522 722.005 228.522C722.677 228.522 723.055 228.13 723.055 227.486H724.511C724.497 228.942 723.657 229.656 722.019 229.656ZM718.239 238V230.468H720.409V234.948L724.077 230.468H726.079V238H723.909V233.52L720.255 238H718.239ZM731.707 238.112C729.313 238.112 727.563 236.502 727.563 234.234C727.563 231.966 729.313 230.356 731.707 230.356C734.101 230.356 735.837 231.966 735.837 234.234C735.837 236.502 734.101 238.112 731.707 238.112ZM731.707 236.32C732.799 236.32 733.625 235.536 733.625 234.234C733.625 232.932 732.799 232.148 731.707 232.148C730.615 232.148 729.775 232.932 729.775 234.234C729.775 235.536 730.615 236.32 731.707 236.32ZM737.339 238V230.468H739.509V233.408H742.785V230.468H744.969V238H742.785V235.186H739.509V238H737.339Z" fill="#032154"/>
</g>
<g filter="url(#filter1_d_2001_2058)">
<path d="M404.593 659H429V718H198V659H387.424L469.455 566L404.593 659Z" fill="#F7F8FA"/>
<path d="M224.261 693L222.063 689.052H220.635V693H218.409V689.052H216.953L214.755 693H212.137L215.077 687.876L212.319 683.2H214.713L216.911 687.162H218.409V683.2H220.635V687.162H222.091L224.303 683.2H226.697L223.953 687.876L226.879 693H224.261ZM235.011 689.262C235.011 689.43 234.983 689.668 234.969 689.85H229.271C229.481 690.788 230.279 691.362 231.427 691.362C232.225 691.362 232.799 691.124 233.317 690.634L234.479 691.894C233.779 692.692 232.729 693.112 231.371 693.112C228.767 693.112 227.073 691.474 227.073 689.234C227.073 686.98 228.795 685.356 231.091 685.356C233.303 685.356 235.011 686.84 235.011 689.262ZM231.105 687.008C230.111 687.008 229.397 687.61 229.243 688.576H232.953C232.799 687.624 232.085 687.008 231.105 687.008ZM237.4 685.468H243.84V693H241.656V687.26H239.276L239.206 688.59C239.094 691.278 238.66 693.154 236.798 693.154C236.462 693.154 236.098 693.098 235.664 692.986L235.776 691.194C235.888 691.208 236 691.222 236.098 691.222C237.134 691.222 237.218 689.92 237.288 688.492L237.4 685.468ZM253.263 689.262C253.263 689.43 253.235 689.668 253.221 689.85H247.523C247.733 690.788 248.531 691.362 249.679 691.362C250.477 691.362 251.051 691.124 251.569 690.634L252.731 691.894C252.031 692.692 250.981 693.112 249.623 693.112C247.019 693.112 245.325 691.474 245.325 689.234C245.325 686.98 247.047 685.356 249.343 685.356C251.555 685.356 253.263 686.84 253.263 689.262ZM249.357 687.008C248.363 687.008 247.649 687.61 247.495 688.576H251.205C251.051 687.624 250.337 687.008 249.357 687.008ZM259.727 689.08C260.623 689.36 261.141 689.948 261.141 690.76C261.141 692.23 259.517 693.14 257.375 693.14C256.213 693.14 255.037 692.902 254.057 692.412L254.645 690.886C255.429 691.264 256.353 691.46 257.277 691.46C258.285 691.46 258.929 691.138 258.929 690.578C258.929 690.088 258.509 689.836 257.725 689.836H256.185V688.478H257.529C258.299 688.478 258.719 688.226 258.719 687.764C258.719 687.288 258.201 687.008 257.235 687.008C256.479 687.008 255.695 687.19 254.855 687.526L254.323 686.014C255.345 685.566 256.381 685.328 257.375 685.328C259.405 685.328 260.931 686.112 260.931 687.442C260.931 688.156 260.455 688.758 259.727 689.08ZM262.702 693V685.468H264.872V688.408H268.148V685.468H270.332V693H268.148V690.186H264.872V693H262.702ZM275.951 693.112C273.557 693.112 271.807 691.502 271.807 689.234C271.807 686.966 273.557 685.356 275.951 685.356C278.345 685.356 280.081 686.966 280.081 689.234C280.081 691.502 278.345 693.112 275.951 693.112ZM275.951 691.32C277.043 691.32 277.869 690.536 277.869 689.234C277.869 687.932 277.043 687.148 275.951 687.148C274.859 687.148 274.019 687.932 274.019 689.234C274.019 690.536 274.859 691.32 275.951 691.32ZM288.838 691.208H289.916V694.624H287.886V693H282.594V694.624H280.564V691.208H280.872C281.908 691.18 282.09 689.71 282.174 688.072L282.272 685.468H288.838V691.208ZM284.148 688.226C284.106 689.5 284.008 690.648 283.476 691.208H286.654V687.26H284.19L284.148 688.226ZM294.818 693.112C292.424 693.112 290.674 691.502 290.674 689.234C290.674 686.966 292.424 685.356 294.818 685.356C297.212 685.356 298.948 686.966 298.948 689.234C298.948 691.502 297.212 693.112 294.818 693.112ZM294.818 691.32C295.91 691.32 296.736 690.536 296.736 689.234C296.736 687.932 295.91 687.148 294.818 687.148C293.726 687.148 292.886 687.932 292.886 689.234C292.886 690.536 293.726 691.32 294.818 691.32ZM304.888 685.356C307.002 685.356 308.64 686.868 308.64 689.234C308.64 691.6 307.002 693.112 304.888 693.112C303.95 693.112 303.18 692.818 302.62 692.202V695.716H300.436V685.468H302.522V686.336C303.068 685.678 303.88 685.356 304.888 685.356ZM304.51 691.32C305.602 691.32 306.428 690.536 306.428 689.234C306.428 687.932 305.602 687.148 304.51 687.148C303.418 687.148 302.592 687.932 302.592 689.234C302.592 690.536 303.418 691.32 304.51 691.32ZM313.699 693.112C311.305 693.112 309.555 691.502 309.555 689.234C309.555 686.966 311.305 685.356 313.699 685.356C316.093 685.356 317.829 686.966 317.829 689.234C317.829 691.502 316.093 693.112 313.699 693.112ZM313.699 691.32C314.791 691.32 315.617 690.536 315.617 689.234C315.617 687.932 314.791 687.148 313.699 687.148C312.607 687.148 311.767 687.932 311.767 689.234C311.767 690.536 312.607 691.32 313.699 691.32ZM328.157 693L326.561 690.144H325.511V693H323.355V690.144H322.305L320.709 693H318.133L320.499 689.108L318.301 685.468H320.611L322.277 688.394H323.355V685.468H325.511V688.394H326.575L328.255 685.468H330.565L328.367 689.108L330.747 693H328.157ZM331.882 693V685.468H334.052V688.408H337.328V685.468H339.512V693H337.328V690.186H334.052V693H331.882ZM345.565 687.876C347.539 687.89 348.547 688.8 348.547 690.382C348.547 692.048 347.371 693.014 345.271 693.014L341.603 693V685.468H343.773V687.876H345.565ZM349.359 693V685.468H351.529V693H349.359ZM345.075 691.46C345.915 691.474 346.377 691.096 346.377 690.354C346.377 689.612 345.915 689.304 345.075 689.29L343.773 689.276V691.46H345.075ZM357.414 684.656C355.776 684.656 354.95 683.942 354.936 682.486H356.364C356.378 683.13 356.714 683.522 357.4 683.522C358.072 683.522 358.45 683.13 358.45 682.486H359.906C359.892 683.942 359.052 684.656 357.414 684.656ZM353.634 693V685.468H355.804V689.948L359.472 685.468H361.474V693H359.304V688.52L355.65 693H353.634ZM371.976 685.356C374.09 685.356 375.728 686.868 375.728 689.234C375.728 691.6 374.09 693.112 371.976 693.112C371.038 693.112 370.268 692.818 369.708 692.202V695.716H367.524V685.468H369.61V686.336C370.156 685.678 370.968 685.356 371.976 685.356ZM371.598 691.32C372.69 691.32 373.516 690.536 373.516 689.234C373.516 687.932 372.69 687.148 371.598 687.148C370.506 687.148 369.68 687.932 369.68 689.234C369.68 690.536 370.506 691.32 371.598 691.32ZM380.062 685.356C382.358 685.356 383.688 686.42 383.688 688.702V693H381.644V692.062C381.238 692.748 380.454 693.112 379.348 693.112C377.584 693.112 376.534 692.132 376.534 690.83C376.534 689.5 377.472 688.576 379.768 688.576H381.504C381.504 687.638 380.944 687.092 379.768 687.092C378.97 687.092 378.144 687.358 377.598 687.792L376.814 686.266C377.64 685.678 378.858 685.356 380.062 685.356ZM379.894 691.642C380.622 691.642 381.252 691.306 381.504 690.62V689.85H380.006C378.984 689.85 378.662 690.228 378.662 690.732C378.662 691.278 379.124 691.642 379.894 691.642ZM389.365 684.656C387.727 684.656 386.901 683.942 386.887 682.486H388.315C388.329 683.13 388.665 683.522 389.351 683.522C390.023 683.522 390.401 683.13 390.401 682.486H391.857C391.843 683.942 391.003 684.656 389.365 684.656ZM385.585 693V685.468H387.755V689.948L391.423 685.468H393.425V693H391.255V688.52L387.601 693H385.585ZM399.053 693.112C396.659 693.112 394.909 691.502 394.909 689.234C394.909 686.966 396.659 685.356 399.053 685.356C401.447 685.356 403.183 686.966 403.183 689.234C403.183 691.502 401.447 693.112 399.053 693.112ZM399.053 691.32C400.145 691.32 400.971 690.536 400.971 689.234C400.971 687.932 400.145 687.148 399.053 687.148C397.961 687.148 397.121 687.932 397.121 689.234C397.121 690.536 397.961 691.32 399.053 691.32ZM404.685 693V685.468H406.855V688.408H410.131V685.468H412.315V693H410.131V690.186H406.855V693H404.685Z" fill="#032154"/>
</g>
<path d="M517 342.942C521.125 342.942 533.5 327.064 533.5 317.811C533.5 308.559 526.113 301.058 517 301.058C507.887 301.058 500.5 308.559 500.5 317.811C500.5 327.064 512.875 342.942 517 342.942Z" fill="#032154"/>
<path d="M522.699 316.952C522.843 316.868 522.98 316.763 523.099 316.646C524.011 315.749 524.356 314.619 524.43 313.267C524.392 313.039 524.368 312.698 524.276 312.378C523.892 311.041 522.719 310.723 521.712 311.677C521.014 312.337 520.67 313.186 520.494 314.108C520.365 314.779 520.374 315.449 520.608 316.103C520.961 317.088 521.846 317.451 522.7 316.953L522.699 316.952ZM516.975 308.991C517.639 309.008 517.724 308.83 517.633 308.388C517.473 307.608 517.322 306.287 517.153 305.238C517.132 305.107 517.031 304.989 516.967 304.865C516.916 304.997 516.836 305.125 516.819 305.261C516.687 306.308 516.567 307.356 516.443 308.403C516.375 308.981 516.375 308.976 516.976 308.992L516.975 308.991ZM522.991 309.71C522.965 309.942 522.854 310.25 522.96 310.386C523.075 310.535 523.394 310.527 523.625 310.585C523.969 310.671 524.002 310.651 524.031 310.29C524.137 309.005 523.666 307.915 522.884 306.935C522.818 306.853 522.717 306.798 522.633 306.73C522.604 306.748 522.576 306.765 522.547 306.783C522.58 306.934 522.592 307.095 522.65 307.237C522.976 308.033 523.085 308.856 522.991 309.71H522.991ZM528.357 316.373C528.219 315.732 527.944 315.181 527.238 315.03C526.641 314.903 526.144 315.166 525.71 315.549C524.84 316.317 524.391 317.314 524.214 318.441C524.126 319.002 524.172 319.559 524.419 320.081C524.712 320.7 525.285 321.013 525.918 320.845C526.218 320.766 526.525 320.62 526.764 320.425C527.848 319.542 528.319 318.35 528.423 317.005C528.4 316.778 528.399 316.571 528.356 316.373H528.357ZM527.163 311.366C527.477 312.262 527.484 313.154 527.164 314.051C527.146 314.104 527.214 314.234 527.271 314.259C527.473 314.346 527.694 314.391 527.898 314.475C528.122 314.567 528.217 314.498 528.264 314.267C528.503 313.077 528.098 312.071 527.396 311.147C527.352 311.088 527.277 311.051 527.217 311.005C527.191 311.016 527.166 311.027 527.141 311.039C527.147 311.148 527.128 311.267 527.163 311.366V311.366ZM515.797 315.38C516.152 315.796 516.594 316.035 517.157 315.911C517.669 315.798 517.993 315.435 518.244 315.001C518.637 314.322 518.767 313.577 518.775 312.865C518.77 312.028 518.625 311.287 518.222 310.613C517.546 309.483 516.358 309.443 515.636 310.537C515.08 311.38 514.958 312.336 515.034 313.318C515.093 314.072 515.292 314.788 515.797 315.38ZM525.235 322.035C524.357 321.412 523.418 320.866 522.471 320.351C521.889 320.034 521.358 319.724 521.062 319.087C520.881 318.696 520.616 318.343 520.376 317.98C520.062 317.506 519.639 317.142 519.094 316.992C517.627 316.588 516.156 316.57 514.706 317.089C514.154 317.287 513.767 317.68 513.516 318.208C513.403 318.449 513.29 318.69 513.178 318.931C513.017 319.274 512.781 319.537 512.442 319.717C512.061 319.92 511.687 320.135 511.322 320.365C510.377 320.962 509.429 321.555 508.695 322.423C507.428 323.919 507.268 325.1 508.131 327.107C508.486 327.933 509.258 328.154 510.056 328.291C510.876 328.431 511.68 328.275 512.484 328.144C513.758 327.936 515.786 327.617 516.896 327.631C518.151 327.646 519.546 327.856 520.567 327.997C521.712 328.154 522.851 328.278 524.008 328.133C524.726 328.043 525.309 327.784 525.67 327.108C526.133 326.239 526.45 325.344 526.387 324.339C526.329 323.403 525.996 322.574 525.236 322.035H525.235ZM509.116 320.126C509.404 319.615 509.489 319.06 509.485 318.484C509.485 318.44 509.486 318.395 509.485 318.351C509.427 317.199 509.112 316.146 508.276 315.31C507.726 314.76 507.023 314.633 506.491 314.971C506.053 315.247 505.828 315.679 505.708 316.165C505.449 317.203 505.59 318.208 505.997 319.183C506.226 319.733 506.554 320.213 507.038 320.57C507.795 321.129 508.656 320.942 509.116 320.126V320.126ZM510.974 316.897C511.726 317.439 512.576 317.246 513.03 316.441C513.095 316.326 513.155 316.205 513.198 316.08C513.557 315.03 513.433 313.999 513.062 312.983C512.836 312.364 512.492 311.82 511.953 311.422C511.205 310.871 510.362 311.042 509.887 311.839C509.551 312.402 509.497 313.026 509.494 313.865C509.557 314.156 509.631 314.649 509.775 315.121C509.99 315.829 510.36 316.455 510.974 316.897ZM506.215 314.48C506.411 314.4 506.614 314.336 506.819 314.283C506.986 314.239 507.026 314.173 506.963 314.001C506.656 313.155 506.662 312.304 506.945 311.449C506.988 311.317 506.983 311.168 507 311.026C506.971 311.014 506.943 311.001 506.914 310.988C506.802 311.105 506.667 311.208 506.584 311.342C506.408 311.628 506.243 311.922 506.102 312.226C505.797 312.88 505.728 313.566 505.869 314.275C505.91 314.485 505.996 314.57 506.216 314.48H506.215ZM510.137 310.604C510.335 310.557 510.531 310.504 510.731 310.468C510.91 310.435 510.961 310.348 510.919 310.173C510.678 309.146 510.79 308.15 511.178 307.176C511.228 307.051 511.228 306.906 511.252 306.77C511.221 306.754 511.189 306.737 511.158 306.72C511.047 306.826 510.916 306.916 510.83 307.039C510.652 307.292 510.49 307.557 510.337 307.826C509.891 308.612 509.714 309.459 509.797 310.36C509.821 310.623 509.881 310.665 510.136 310.604L510.137 310.604Z" fill="white"/>
<g filter="url(#filter2_d_2001_2058)">
<path d="M294 341.89L342.455 402L282.681 348H106V289H294V341.89Z" fill="#F7F8FA"/>
<path d="M131.422 313.2H138.954V323H136.714V315.048H133.354L133.284 317.092C133.158 320.942 132.612 323.154 130.316 323.154C129.98 323.154 129.616 323.098 129.196 323L129.336 321.082C129.476 321.124 129.602 321.138 129.742 321.138C130.89 321.138 131.184 319.682 131.282 317.176L131.422 313.2ZM148.556 319.262C148.556 319.43 148.528 319.668 148.514 319.85H142.816C143.026 320.788 143.824 321.362 144.972 321.362C145.77 321.362 146.344 321.124 146.862 320.634L148.024 321.894C147.324 322.692 146.274 323.112 144.916 323.112C142.312 323.112 140.618 321.474 140.618 319.234C140.618 316.98 142.34 315.356 144.636 315.356C146.848 315.356 148.556 316.84 148.556 319.262ZM144.65 317.008C143.656 317.008 142.942 317.61 142.788 318.576H146.498C146.344 317.624 145.63 317.008 144.65 317.008ZM150.23 323V315.468H152.4V318.408H155.676V315.468H157.86V323H155.676V320.186H152.4V323H150.23ZM159.95 323V315.468H162.12V319.948L165.788 315.468H167.79V323H165.62V318.52L161.966 323H159.95ZM169.89 323V315.468H172.06V318.408H175.336V315.468H177.52V323H175.336V320.186H172.06V323H169.89ZM183.195 323.112C180.745 323.112 178.995 321.502 178.995 319.234C178.995 316.966 180.745 315.356 183.195 315.356C184.777 315.356 186.023 316.042 186.569 317.274L184.875 318.184C184.469 317.47 183.867 317.148 183.181 317.148C182.075 317.148 181.207 317.918 181.207 319.234C181.207 320.55 182.075 321.32 183.181 321.32C183.867 321.32 184.469 321.012 184.875 320.284L186.569 321.208C186.023 322.412 184.777 323.112 183.195 323.112ZM193.23 323L191.214 320.144H190.08V323H187.896V315.468H190.08V318.394H191.256L193.3 315.468H195.624L192.992 319.08L195.806 323H193.23ZM196.878 323V315.468H199.048V319.948L202.716 315.468H204.718V323H202.548V318.52L198.894 323H196.878ZM210.598 314.656C208.96 314.656 208.134 313.942 208.12 312.486H209.548C209.562 313.13 209.898 313.522 210.584 313.522C211.256 313.522 211.634 313.13 211.634 312.486H213.09C213.076 313.942 212.236 314.656 210.598 314.656ZM206.818 323V315.468H208.988V319.948L212.656 315.468H214.658V323H212.488V318.52L208.834 323H206.818ZM225.16 315.356C227.274 315.356 228.912 316.868 228.912 319.234C228.912 321.6 227.274 323.112 225.16 323.112C224.222 323.112 223.452 322.818 222.892 322.202V325.716H220.708V315.468H222.794V316.336C223.34 315.678 224.152 315.356 225.16 315.356ZM224.782 321.32C225.874 321.32 226.7 320.536 226.7 319.234C226.7 317.932 225.874 317.148 224.782 317.148C223.69 317.148 222.864 317.932 222.864 319.234C222.864 320.536 223.69 321.32 224.782 321.32ZM233.246 315.356C235.542 315.356 236.872 316.42 236.872 318.702V323H234.828V322.062C234.422 322.748 233.638 323.112 232.532 323.112C230.768 323.112 229.718 322.132 229.718 320.83C229.718 319.5 230.656 318.576 232.952 318.576H234.688C234.688 317.638 234.128 317.092 232.952 317.092C232.154 317.092 231.328 317.358 230.782 317.792L229.998 316.266C230.824 315.678 232.042 315.356 233.246 315.356ZM233.078 321.642C233.806 321.642 234.436 321.306 234.688 320.62V319.85H233.19C232.168 319.85 231.846 320.228 231.846 320.732C231.846 321.278 232.308 321.642 233.078 321.642ZM242.549 314.656C240.911 314.656 240.085 313.942 240.071 312.486H241.499C241.513 313.13 241.849 313.522 242.535 313.522C243.207 313.522 243.585 313.13 243.585 312.486H245.041C245.027 313.942 244.187 314.656 242.549 314.656ZM238.769 323V315.468H240.939V319.948L244.607 315.468H246.609V323H244.439V318.52L240.785 323H238.769ZM252.236 323.112C249.842 323.112 248.092 321.502 248.092 319.234C248.092 316.966 249.842 315.356 252.236 315.356C254.63 315.356 256.366 316.966 256.366 319.234C256.366 321.502 254.63 323.112 252.236 323.112ZM252.236 321.32C253.328 321.32 254.154 320.536 254.154 319.234C254.154 317.932 253.328 317.148 252.236 317.148C251.144 317.148 250.304 317.932 250.304 319.234C250.304 320.536 251.144 321.32 252.236 321.32ZM257.868 323V315.468H260.038V318.408H263.314V315.468H265.498V323H263.314V320.186H260.038V323H257.868Z" fill="#032154"/>
</g>
<g filter="url(#filter3_d_2001_2058)">
<path d="M246 529.89L294.455 590L234.681 536H31V477H246V529.89Z" fill="#F7F8FA"/>
<path d="M49.218 511V501.2H51.472V507.584L56.148 501.2H58.276V511H56.036V504.63L51.36 511H49.218ZM60.548 511V503.468H62.718V506.408H65.994V503.468H68.178V511H65.994V508.186H62.718V511H60.548ZM77.6328 509.208H78.7108V512.624H76.6808V511H71.3888V512.624H69.3588V509.208H69.6668C70.7028 509.18 70.8848 507.71 70.9688 506.072L71.0667 503.468H77.6328V509.208ZM72.9428 506.226C72.9008 507.5 72.8028 508.648 72.2708 509.208H75.4488V505.26H72.9848L72.9428 506.226ZM85.5312 503.468H87.6312L84.2292 511.462C83.5012 513.282 82.4652 513.828 81.1072 513.828C80.3372 513.828 79.4972 513.576 79.0072 513.142L79.8052 511.588C80.1412 511.882 80.6032 512.064 81.0372 512.064C81.6392 512.064 81.9752 511.798 82.2692 511.126L82.2972 511.056L79.0352 503.468H81.2892L83.4032 508.578L85.5312 503.468ZM92.0637 511.112C89.6137 511.112 87.8637 509.502 87.8637 507.234C87.8637 504.966 89.6137 503.356 92.0637 503.356C93.6457 503.356 94.8917 504.042 95.4377 505.274L93.7437 506.184C93.3377 505.47 92.7357 505.148 92.0497 505.148C90.9437 505.148 90.0757 505.918 90.0757 507.234C90.0757 508.55 90.9437 509.32 92.0497 509.32C92.7357 509.32 93.3377 509.012 93.7437 508.284L95.4377 509.208C94.8917 510.412 93.6457 511.112 92.0637 511.112ZM103.066 503.468V505.26H100.518V511H98.3475V505.26H95.7995V503.468H103.066ZM108.668 503.356C110.782 503.356 112.42 504.868 112.42 507.234C112.42 509.6 110.782 511.112 108.668 511.112C107.73 511.112 106.96 510.818 106.4 510.202V513.716H104.216V503.468H106.302V504.336C106.848 503.678 107.66 503.356 108.668 503.356ZM108.29 509.32C109.382 509.32 110.208 508.536 110.208 507.234C110.208 505.932 109.382 505.148 108.29 505.148C107.198 505.148 106.372 505.932 106.372 507.234C106.372 508.536 107.198 509.32 108.29 509.32ZM113.95 511V503.468H116.12V507.948L119.788 503.468H121.79V511H119.62V506.52L115.966 511H113.95ZM126.816 503.356C129.112 503.356 130.442 504.42 130.442 506.702V511H128.398V510.062C127.992 510.748 127.208 511.112 126.102 511.112C124.338 511.112 123.288 510.132 123.288 508.83C123.288 507.5 124.226 506.576 126.522 506.576H128.258C128.258 505.638 127.698 505.092 126.522 505.092C125.724 505.092 124.898 505.358 124.352 505.792L123.568 504.266C124.394 503.678 125.612 503.356 126.816 503.356ZM126.648 509.642C127.376 509.642 128.006 509.306 128.258 508.62V507.85H126.76C125.738 507.85 125.416 508.228 125.416 508.732C125.416 509.278 125.878 509.642 126.648 509.642ZM133.123 503.468H139.563V511H137.379V505.26H134.999L134.929 506.59C134.817 509.278 134.383 511.154 132.521 511.154C132.185 511.154 131.821 511.098 131.387 510.986L131.499 509.194C131.611 509.208 131.723 509.222 131.821 509.222C132.857 509.222 132.941 507.92 133.011 506.492L133.123 503.468ZM145.737 505.876C147.711 505.89 148.775 506.8 148.775 508.382C148.775 510.048 147.543 511.014 145.443 511.014L141.663 511V503.468H143.833V505.876H145.737ZM145.247 509.46C146.087 509.474 146.549 509.096 146.549 508.354C146.549 507.612 146.087 507.304 145.247 507.29L143.833 507.276V509.46H145.247ZM150.14 511V503.468H152.31V506.408H155.586V503.468H157.77V511H155.586V508.186H152.31V511H150.14ZM163.823 505.876C165.797 505.89 166.805 506.8 166.805 508.382C166.805 510.048 165.629 511.014 163.529 511.014L159.861 511V503.468H162.031V505.876H163.823ZM167.617 511V503.468H169.787V511H167.617ZM163.333 509.46C164.173 509.474 164.635 509.096 164.635 508.354C164.635 507.612 164.173 507.304 163.333 507.29L162.031 507.276V509.46H163.333ZM175.672 502.656C174.034 502.656 173.208 501.942 173.194 500.486H174.622C174.636 501.13 174.972 501.522 175.658 501.522C176.33 501.522 176.708 501.13 176.708 500.486H178.164C178.15 501.942 177.31 502.656 175.672 502.656ZM171.892 511V503.468H174.062V507.948L177.73 503.468H179.732V511H177.562V506.52L173.908 511H171.892ZM190.234 503.356C192.348 503.356 193.986 504.868 193.986 507.234C193.986 509.6 192.348 511.112 190.234 511.112C189.296 511.112 188.526 510.818 187.966 510.202V513.716H185.782V503.468H187.868V504.336C188.414 503.678 189.226 503.356 190.234 503.356ZM189.856 509.32C190.948 509.32 191.774 508.536 191.774 507.234C191.774 505.932 190.948 505.148 189.856 505.148C188.764 505.148 187.938 505.932 187.938 507.234C187.938 508.536 188.764 509.32 189.856 509.32ZM198.32 503.356C200.616 503.356 201.946 504.42 201.946 506.702V511H199.902V510.062C199.496 510.748 198.712 511.112 197.606 511.112C195.842 511.112 194.792 510.132 194.792 508.83C194.792 507.5 195.73 506.576 198.026 506.576H199.762C199.762 505.638 199.202 505.092 198.026 505.092C197.228 505.092 196.402 505.358 195.856 505.792L195.072 504.266C195.898 503.678 197.116 503.356 198.32 503.356ZM198.152 509.642C198.88 509.642 199.51 509.306 199.762 508.62V507.85H198.264C197.242 507.85 196.92 508.228 196.92 508.732C196.92 509.278 197.382 509.642 198.152 509.642ZM207.623 502.656C205.985 502.656 205.159 501.942 205.145 500.486H206.573C206.587 501.13 206.923 501.522 207.609 501.522C208.281 501.522 208.659 501.13 208.659 500.486H210.115C210.101 501.942 209.261 502.656 207.623 502.656ZM203.843 511V503.468H206.013V507.948L209.681 503.468H211.683V511H209.513V506.52L205.859 511H203.843ZM217.31 511.112C214.916 511.112 213.166 509.502 213.166 507.234C213.166 504.966 214.916 503.356 217.31 503.356C219.704 503.356 221.44 504.966 221.44 507.234C221.44 509.502 219.704 511.112 217.31 511.112ZM217.31 509.32C218.402 509.32 219.228 508.536 219.228 507.234C219.228 505.932 218.402 505.148 217.31 505.148C216.218 505.148 215.378 505.932 215.378 507.234C215.378 508.536 216.218 509.32 217.31 509.32ZM222.943 511V503.468H225.113V506.408H228.389V503.468H230.573V511H228.389V508.186H225.113V511H222.943Z" fill="#032154"/>
</g>
<path d="M353 422.942C357.125 422.942 369.5 407.064 369.5 397.811C369.5 388.559 362.113 381.058 353 381.058C343.887 381.058 336.5 388.559 336.5 397.811C336.5 407.064 348.875 422.942 353 422.942Z" fill="#032154"/>
<path d="M358.699 396.952C358.843 396.868 358.98 396.763 359.099 396.646C360.011 395.749 360.356 394.619 360.43 393.267C360.392 393.039 360.368 392.698 360.276 392.378C359.892 391.041 358.719 390.723 357.712 391.677C357.014 392.337 356.67 393.186 356.494 394.108C356.365 394.779 356.374 395.449 356.608 396.103C356.961 397.088 357.846 397.451 358.7 396.953L358.699 396.952ZM352.975 388.991C353.639 389.008 353.724 388.83 353.633 388.388C353.473 387.608 353.322 386.287 353.153 385.238C353.132 385.107 353.031 384.989 352.967 384.865C352.916 384.997 352.836 385.125 352.819 385.261C352.687 386.308 352.567 387.356 352.443 388.403C352.375 388.981 352.375 388.976 352.976 388.992L352.975 388.991ZM358.991 389.71C358.965 389.942 358.854 390.25 358.96 390.386C359.075 390.535 359.394 390.527 359.625 390.585C359.969 390.671 360.002 390.651 360.031 390.29C360.137 389.005 359.666 387.915 358.884 386.935C358.818 386.853 358.717 386.798 358.633 386.73C358.604 386.748 358.576 386.765 358.547 386.783C358.58 386.934 358.592 387.095 358.65 387.237C358.976 388.033 359.085 388.856 358.991 389.71H358.991ZM364.357 396.373C364.219 395.732 363.944 395.181 363.238 395.03C362.641 394.903 362.144 395.166 361.71 395.549C360.84 396.317 360.391 397.314 360.214 398.441C360.126 399.002 360.172 399.559 360.419 400.081C360.712 400.7 361.285 401.013 361.918 400.845C362.218 400.766 362.525 400.62 362.764 400.425C363.848 399.542 364.319 398.35 364.423 397.005C364.4 396.778 364.399 396.571 364.356 396.373H364.357ZM363.163 391.366C363.477 392.262 363.484 393.154 363.164 394.051C363.146 394.104 363.214 394.234 363.271 394.259C363.473 394.346 363.694 394.391 363.898 394.475C364.122 394.567 364.217 394.498 364.264 394.267C364.503 393.077 364.098 392.071 363.396 391.147C363.352 391.088 363.277 391.051 363.217 391.005C363.191 391.016 363.166 391.027 363.141 391.039C363.147 391.148 363.128 391.267 363.163 391.366V391.366ZM351.797 395.38C352.152 395.796 352.594 396.035 353.157 395.911C353.669 395.798 353.993 395.435 354.244 395.001C354.637 394.322 354.767 393.577 354.775 392.865C354.77 392.028 354.625 391.287 354.222 390.613C353.546 389.483 352.358 389.443 351.636 390.537C351.08 391.38 350.958 392.336 351.034 393.318C351.093 394.072 351.292 394.788 351.797 395.38ZM361.235 402.035C360.357 401.412 359.418 400.866 358.471 400.351C357.889 400.034 357.358 399.724 357.062 399.087C356.881 398.696 356.616 398.343 356.376 397.98C356.062 397.506 355.639 397.142 355.094 396.992C353.627 396.588 352.156 396.57 350.706 397.089C350.154 397.287 349.767 397.68 349.516 398.208C349.403 398.449 349.29 398.69 349.178 398.931C349.017 399.274 348.781 399.537 348.442 399.717C348.061 399.92 347.687 400.135 347.322 400.365C346.377 400.962 345.429 401.555 344.695 402.423C343.428 403.919 343.268 405.1 344.131 407.107C344.486 407.933 345.258 408.154 346.056 408.291C346.876 408.431 347.68 408.275 348.484 408.144C349.758 407.936 351.786 407.617 352.896 407.631C354.151 407.646 355.546 407.856 356.567 407.997C357.712 408.154 358.851 408.278 360.008 408.133C360.726 408.043 361.309 407.784 361.67 407.108C362.133 406.239 362.45 405.344 362.387 404.339C362.329 403.403 361.996 402.574 361.236 402.035H361.235ZM345.116 400.126C345.404 399.615 345.489 399.06 345.485 398.484C345.485 398.44 345.486 398.395 345.485 398.351C345.427 397.199 345.112 396.146 344.276 395.31C343.726 394.76 343.023 394.633 342.491 394.971C342.053 395.247 341.828 395.679 341.708 396.165C341.449 397.203 341.59 398.208 341.997 399.183C342.226 399.733 342.554 400.213 343.038 400.57C343.795 401.129 344.656 400.942 345.116 400.126V400.126ZM346.974 396.897C347.726 397.439 348.576 397.246 349.03 396.441C349.095 396.326 349.155 396.205 349.198 396.08C349.557 395.03 349.433 393.999 349.062 392.983C348.836 392.364 348.492 391.82 347.953 391.422C347.205 390.871 346.362 391.042 345.887 391.839C345.551 392.402 345.497 393.026 345.494 393.865C345.557 394.156 345.631 394.649 345.775 395.121C345.99 395.829 346.36 396.455 346.974 396.897ZM342.215 394.48C342.411 394.4 342.614 394.336 342.819 394.283C342.986 394.239 343.026 394.173 342.963 394.001C342.656 393.155 342.662 392.304 342.945 391.449C342.988 391.317 342.983 391.168 343 391.026C342.971 391.014 342.943 391.001 342.914 390.988C342.802 391.105 342.667 391.208 342.584 391.342C342.408 391.628 342.243 391.922 342.102 392.226C341.797 392.88 341.728 393.566 341.869 394.275C341.91 394.485 341.996 394.57 342.216 394.48H342.215ZM346.137 390.604C346.335 390.557 346.531 390.504 346.731 390.468C346.91 390.435 346.961 390.348 346.919 390.173C346.678 389.146 346.79 388.15 347.178 387.176C347.228 387.051 347.228 386.906 347.252 386.77C347.221 386.754 347.189 386.737 347.158 386.72C347.047 386.826 346.916 386.916 346.83 387.039C346.652 387.292 346.49 387.557 346.337 387.826C345.891 388.612 345.714 389.459 345.797 390.36C345.821 390.623 345.881 390.665 346.136 390.604L346.137 390.604Z" fill="white"/>
<path d="M305 610.942C309.125 610.942 321.5 595.064 321.5 585.811C321.5 576.559 314.113 569.058 305 569.058C295.887 569.058 288.5 576.559 288.5 585.811C288.5 595.064 300.875 610.942 305 610.942Z" fill="#032154"/>
<path d="M310.699 584.952C310.843 584.868 310.98 584.763 311.099 584.646C312.011 583.749 312.356 582.619 312.43 581.267C312.392 581.039 312.368 580.698 312.276 580.378C311.892 579.041 310.719 578.723 309.712 579.677C309.014 580.337 308.67 581.186 308.494 582.108C308.365 582.779 308.374 583.449 308.608 584.103C308.961 585.088 309.846 585.451 310.7 584.953L310.699 584.952ZM304.975 576.991C305.639 577.008 305.724 576.83 305.633 576.388C305.473 575.608 305.322 574.287 305.153 573.238C305.132 573.107 305.031 572.989 304.967 572.865C304.916 572.997 304.836 573.125 304.819 573.261C304.687 574.308 304.567 575.356 304.443 576.403C304.375 576.981 304.375 576.976 304.976 576.992L304.975 576.991ZM310.991 577.71C310.965 577.942 310.854 578.25 310.96 578.386C311.075 578.535 311.394 578.527 311.625 578.585C311.969 578.671 312.002 578.651 312.031 578.29C312.137 577.005 311.666 575.915 310.884 574.935C310.818 574.853 310.717 574.798 310.633 574.73C310.604 574.748 310.576 574.765 310.547 574.783C310.58 574.934 310.592 575.095 310.65 575.237C310.976 576.033 311.085 576.856 310.991 577.71H310.991ZM316.357 584.373C316.219 583.732 315.944 583.181 315.238 583.03C314.641 582.903 314.144 583.166 313.71 583.549C312.84 584.317 312.391 585.314 312.214 586.441C312.126 587.002 312.172 587.559 312.419 588.081C312.712 588.7 313.285 589.013 313.918 588.845C314.218 588.766 314.525 588.62 314.764 588.425C315.848 587.542 316.319 586.35 316.423 585.005C316.4 584.778 316.399 584.571 316.356 584.373H316.357ZM315.163 579.366C315.477 580.262 315.484 581.154 315.164 582.051C315.146 582.104 315.214 582.234 315.271 582.259C315.473 582.346 315.694 582.391 315.898 582.475C316.122 582.567 316.217 582.498 316.264 582.267C316.503 581.077 316.098 580.071 315.396 579.147C315.352 579.088 315.277 579.051 315.217 579.005C315.191 579.016 315.166 579.027 315.141 579.039C315.147 579.148 315.128 579.267 315.163 579.366V579.366ZM303.797 583.38C304.152 583.796 304.594 584.035 305.157 583.911C305.669 583.798 305.993 583.435 306.244 583.001C306.637 582.322 306.767 581.577 306.775 580.865C306.77 580.028 306.625 579.287 306.222 578.613C305.546 577.483 304.358 577.443 303.636 578.537C303.08 579.38 302.958 580.336 303.034 581.318C303.093 582.072 303.292 582.788 303.797 583.38ZM313.235 590.035C312.357 589.412 311.418 588.866 310.471 588.351C309.889 588.034 309.358 587.724 309.062 587.087C308.881 586.696 308.616 586.343 308.376 585.98C308.062 585.506 307.639 585.142 307.094 584.992C305.627 584.588 304.156 584.57 302.706 585.089C302.154 585.287 301.767 585.68 301.516 586.208C301.403 586.449 301.29 586.69 301.178 586.931C301.017 587.274 300.781 587.537 300.442 587.717C300.061 587.92 299.687 588.135 299.322 588.365C298.377 588.962 297.429 589.555 296.695 590.423C295.428 591.919 295.268 593.1 296.131 595.107C296.486 595.933 297.258 596.154 298.056 596.291C298.876 596.431 299.68 596.275 300.484 596.144C301.758 595.936 303.786 595.617 304.896 595.631C306.151 595.646 307.546 595.856 308.567 595.997C309.712 596.154 310.851 596.278 312.008 596.133C312.726 596.043 313.309 595.784 313.67 595.108C314.133 594.239 314.45 593.344 314.387 592.339C314.329 591.403 313.996 590.574 313.236 590.035H313.235ZM297.116 588.126C297.404 587.615 297.489 587.06 297.485 586.484C297.485 586.44 297.486 586.395 297.485 586.351C297.427 585.199 297.112 584.146 296.276 583.31C295.726 582.76 295.023 582.633 294.491 582.971C294.053 583.247 293.828 583.679 293.708 584.165C293.449 585.203 293.59 586.208 293.997 587.183C294.226 587.733 294.554 588.213 295.038 588.57C295.795 589.129 296.656 588.942 297.116 588.126V588.126ZM298.974 584.897C299.726 585.439 300.576 585.246 301.03 584.441C301.095 584.326 301.155 584.205 301.198 584.08C301.557 583.03 301.433 581.999 301.062 580.983C300.836 580.364 300.492 579.82 299.953 579.422C299.205 578.871 298.362 579.042 297.887 579.839C297.551 580.402 297.497 581.026 297.494 581.865C297.557 582.156 297.631 582.649 297.775 583.121C297.99 583.829 298.36 584.455 298.974 584.897ZM294.215 582.48C294.411 582.4 294.614 582.336 294.819 582.283C294.986 582.239 295.026 582.173 294.963 582.001C294.656 581.155 294.662 580.304 294.945 579.449C294.988 579.317 294.983 579.168 295 579.026C294.971 579.014 294.943 579.001 294.914 578.988C294.802 579.105 294.667 579.208 294.584 579.342C294.408 579.628 294.243 579.922 294.102 580.226C293.797 580.88 293.728 581.566 293.869 582.275C293.91 582.485 293.996 582.57 294.216 582.48H294.215ZM298.137 578.604C298.335 578.557 298.531 578.504 298.731 578.468C298.91 578.435 298.961 578.348 298.919 578.173C298.678 577.146 298.79 576.15 299.178 575.176C299.228 575.051 299.228 574.906 299.252 574.77C299.221 574.754 299.189 574.737 299.158 574.72C299.047 574.826 298.916 574.916 298.83 575.039C298.652 575.292 298.49 575.557 298.337 575.826C297.891 576.612 297.714 577.459 297.797 578.36C297.821 578.623 297.881 578.665 298.136 578.604L298.137 578.604Z" fill="white"/>
<g filter="url(#filter4_d_2001_2058)">
<path d="M850.328 680H699.046V680.002L673 700.5L694.328 666.861V621H850.328V680Z" fill="#F7F8FA"/>
<path d="M725.377 646.152H726.777V650.072H724.691V648H716.501V638.2H718.755V646.152H723.123V638.2H725.377V646.152ZM735.331 644.262C735.331 644.43 735.303 644.668 735.289 644.85H729.591C729.801 645.788 730.599 646.362 731.747 646.362C732.545 646.362 733.119 646.124 733.637 645.634L734.799 646.894C734.099 647.692 733.049 648.112 731.691 648.112C729.087 648.112 727.393 646.474 727.393 644.234C727.393 641.98 729.115 640.356 731.411 640.356C733.623 640.356 735.331 641.84 735.331 644.262ZM731.425 642.008C730.431 642.008 729.717 642.61 729.563 643.576H733.273C733.119 642.624 732.405 642.008 731.425 642.008ZM737.005 648V640.468H739.175V643.408H742.451V640.468H744.635V648H742.451V645.186H739.175V648H737.005ZM753.054 640.468V642.26H750.506V648H748.336V642.26H745.788V640.468H753.054ZM758.656 640.356C760.77 640.356 762.408 641.868 762.408 644.234C762.408 646.6 760.77 648.112 758.656 648.112C757.718 648.112 756.948 647.818 756.388 647.202V650.716H754.204V640.468H756.29V641.336C756.836 640.678 757.648 640.356 758.656 640.356ZM758.278 646.32C759.37 646.32 760.196 645.536 760.196 644.234C760.196 642.932 759.37 642.148 758.278 642.148C757.186 642.148 756.36 642.932 756.36 644.234C756.36 645.536 757.186 646.32 758.278 646.32ZM766.742 640.356C769.038 640.356 770.368 641.42 770.368 643.702V648H768.324V647.062C767.918 647.748 767.134 648.112 766.028 648.112C764.264 648.112 763.214 647.132 763.214 645.83C763.214 644.5 764.152 643.576 766.448 643.576H768.184C768.184 642.638 767.624 642.092 766.448 642.092C765.65 642.092 764.824 642.358 764.278 642.792L763.494 641.266C764.32 640.678 765.538 640.356 766.742 640.356ZM766.574 646.642C767.302 646.642 767.932 646.306 768.184 645.62V644.85H766.686C765.664 644.85 765.342 645.228 765.342 645.732C765.342 646.278 765.804 646.642 766.574 646.642ZM773.049 640.468H779.489V648H777.305V642.26H774.925L774.855 643.59C774.743 646.278 774.309 648.154 772.447 648.154C772.111 648.154 771.747 648.098 771.313 647.986L771.425 646.194C771.537 646.208 771.649 646.222 771.747 646.222C772.783 646.222 772.867 644.92 772.937 643.492L773.049 640.468ZM785.663 642.876C787.637 642.89 788.701 643.8 788.701 645.382C788.701 647.048 787.469 648.014 785.369 648.014L781.589 648V640.468H783.759V642.876H785.663ZM785.173 646.46C786.013 646.474 786.475 646.096 786.475 645.354C786.475 644.612 786.013 644.304 785.173 644.29L783.759 644.276V646.46H785.173ZM790.066 648V640.468H792.236V643.408H795.512V640.468H797.696V648H795.512V645.186H792.236V648H790.066ZM803.748 642.876C805.722 642.89 806.73 643.8 806.73 645.382C806.73 647.048 805.554 648.014 803.454 648.014L799.786 648V640.468H801.956V642.876H803.748ZM807.542 648V640.468H809.712V648H807.542ZM803.258 646.46C804.098 646.474 804.56 646.096 804.56 645.354C804.56 644.612 804.098 644.304 803.258 644.29L801.956 644.276V646.46H803.258ZM815.598 639.656C813.96 639.656 813.134 638.942 813.12 637.486H814.548C814.562 638.13 814.898 638.522 815.584 638.522C816.256 638.522 816.634 638.13 816.634 637.486H818.09C818.076 638.942 817.236 639.656 815.598 639.656ZM811.818 648V640.468H813.988V644.948L817.656 640.468H819.658V648H817.488V643.52L813.834 648H811.818ZM720.771 657.356C722.885 657.356 724.523 658.868 724.523 661.234C724.523 663.6 722.885 665.112 720.771 665.112C719.833 665.112 719.063 664.818 718.503 664.202V667.716H716.319V657.468H718.405V658.336C718.951 657.678 719.763 657.356 720.771 657.356ZM720.393 663.32C721.485 663.32 722.311 662.536 722.311 661.234C722.311 659.932 721.485 659.148 720.393 659.148C719.301 659.148 718.475 659.932 718.475 661.234C718.475 662.536 719.301 663.32 720.393 663.32ZM728.857 657.356C731.153 657.356 732.483 658.42 732.483 660.702V665H730.439V664.062C730.033 664.748 729.249 665.112 728.143 665.112C726.379 665.112 725.329 664.132 725.329 662.83C725.329 661.5 726.267 660.576 728.563 660.576H730.299C730.299 659.638 729.739 659.092 728.563 659.092C727.765 659.092 726.939 659.358 726.393 659.792L725.609 658.266C726.435 657.678 727.653 657.356 728.857 657.356ZM728.689 663.642C729.417 663.642 730.047 663.306 730.299 662.62V661.85H728.801C727.779 661.85 727.457 662.228 727.457 662.732C727.457 663.278 727.919 663.642 728.689 663.642ZM738.16 656.656C736.522 656.656 735.696 655.942 735.682 654.486H737.11C737.124 655.13 737.46 655.522 738.146 655.522C738.818 655.522 739.196 655.13 739.196 654.486H740.652C740.638 655.942 739.798 656.656 738.16 656.656ZM734.38 665V657.468H736.55V661.948L740.218 657.468H742.22V665H740.05V660.52L736.396 665H734.38ZM747.848 665.112C745.454 665.112 743.704 663.502 743.704 661.234C743.704 658.966 745.454 657.356 747.848 657.356C750.242 657.356 751.978 658.966 751.978 661.234C751.978 663.502 750.242 665.112 747.848 665.112ZM747.848 663.32C748.94 663.32 749.766 662.536 749.766 661.234C749.766 659.932 748.94 659.148 747.848 659.148C746.756 659.148 745.916 659.932 745.916 661.234C745.916 662.536 746.756 663.32 747.848 663.32ZM753.48 665V657.468H755.65V660.408H758.926V657.468H761.11V665H758.926V662.186H755.65V665H753.48Z" fill="#032154"/>
</g>
<path d="M668 730.942C672.125 730.942 684.5 715.064 684.5 705.811C684.5 696.559 677.113 689.058 668 689.058C658.887 689.058 651.5 696.559 651.5 705.811C651.5 715.064 663.875 730.942 668 730.942Z" fill="#032154"/>
<path d="M673.699 704.952C673.843 704.868 673.98 704.763 674.099 704.646C675.011 703.749 675.356 702.619 675.43 701.267C675.392 701.039 675.368 700.698 675.276 700.378C674.892 699.041 673.719 698.723 672.712 699.677C672.014 700.337 671.67 701.186 671.494 702.108C671.365 702.779 671.374 703.449 671.608 704.103C671.961 705.088 672.846 705.451 673.7 704.953L673.699 704.952ZM667.975 696.991C668.639 697.008 668.724 696.83 668.633 696.388C668.473 695.608 668.322 694.287 668.153 693.238C668.132 693.107 668.031 692.989 667.967 692.865C667.916 692.997 667.836 693.125 667.819 693.261C667.687 694.308 667.567 695.356 667.443 696.403C667.375 696.981 667.375 696.976 667.976 696.992L667.975 696.991ZM673.991 697.71C673.965 697.942 673.854 698.25 673.96 698.386C674.075 698.535 674.394 698.527 674.625 698.585C674.969 698.671 675.002 698.651 675.031 698.29C675.137 697.005 674.666 695.915 673.884 694.935C673.818 694.853 673.717 694.798 673.633 694.73C673.604 694.748 673.576 694.765 673.547 694.783C673.58 694.934 673.592 695.095 673.65 695.237C673.976 696.033 674.085 696.856 673.991 697.71H673.991ZM679.357 704.373C679.219 703.732 678.944 703.181 678.238 703.03C677.641 702.903 677.144 703.166 676.71 703.549C675.84 704.317 675.391 705.314 675.214 706.441C675.126 707.002 675.172 707.559 675.419 708.081C675.712 708.7 676.285 709.013 676.918 708.845C677.218 708.766 677.525 708.62 677.764 708.425C678.848 707.542 679.319 706.35 679.423 705.005C679.4 704.778 679.399 704.571 679.356 704.373H679.357ZM678.163 699.366C678.477 700.262 678.484 701.154 678.164 702.051C678.146 702.104 678.214 702.234 678.271 702.259C678.473 702.346 678.694 702.391 678.898 702.475C679.122 702.567 679.217 702.498 679.264 702.267C679.503 701.077 679.098 700.071 678.396 699.147C678.352 699.088 678.277 699.051 678.217 699.005C678.191 699.016 678.166 699.027 678.141 699.039C678.147 699.148 678.128 699.267 678.163 699.366V699.366ZM666.797 703.38C667.152 703.796 667.594 704.035 668.157 703.911C668.669 703.798 668.993 703.435 669.244 703.001C669.637 702.322 669.767 701.577 669.775 700.865C669.77 700.028 669.625 699.287 669.222 698.613C668.546 697.483 667.358 697.443 666.636 698.537C666.08 699.38 665.958 700.336 666.034 701.318C666.093 702.072 666.292 702.788 666.797 703.38ZM676.235 710.035C675.357 709.412 674.418 708.866 673.471 708.351C672.889 708.034 672.358 707.724 672.062 707.087C671.881 706.696 671.616 706.343 671.376 705.98C671.062 705.506 670.639 705.142 670.094 704.992C668.627 704.588 667.156 704.57 665.706 705.089C665.154 705.287 664.767 705.68 664.516 706.208C664.403 706.449 664.29 706.69 664.178 706.931C664.017 707.274 663.781 707.537 663.442 707.717C663.061 707.92 662.687 708.135 662.322 708.365C661.377 708.962 660.429 709.555 659.695 710.423C658.428 711.919 658.268 713.1 659.131 715.107C659.486 715.933 660.258 716.154 661.056 716.291C661.876 716.431 662.68 716.275 663.484 716.144C664.758 715.936 666.786 715.617 667.896 715.631C669.151 715.646 670.546 715.856 671.567 715.997C672.712 716.154 673.851 716.278 675.008 716.133C675.726 716.043 676.309 715.784 676.67 715.108C677.133 714.239 677.45 713.344 677.387 712.339C677.329 711.403 676.996 710.574 676.236 710.035H676.235ZM660.116 708.126C660.404 707.615 660.489 707.06 660.485 706.484C660.485 706.44 660.486 706.395 660.485 706.351C660.427 705.199 660.112 704.146 659.276 703.31C658.726 702.76 658.023 702.633 657.491 702.971C657.053 703.247 656.828 703.679 656.708 704.165C656.449 705.203 656.59 706.208 656.997 707.183C657.226 707.733 657.554 708.213 658.038 708.57C658.795 709.129 659.656 708.942 660.116 708.126V708.126ZM661.974 704.897C662.726 705.439 663.576 705.246 664.03 704.441C664.095 704.326 664.155 704.205 664.198 704.08C664.557 703.03 664.433 701.999 664.062 700.983C663.836 700.364 663.492 699.82 662.953 699.422C662.205 698.871 661.362 699.042 660.887 699.839C660.551 700.402 660.497 701.026 660.494 701.865C660.557 702.156 660.631 702.649 660.775 703.121C660.99 703.829 661.36 704.455 661.974 704.897ZM657.215 702.48C657.411 702.4 657.614 702.336 657.819 702.283C657.986 702.239 658.026 702.173 657.963 702.001C657.656 701.155 657.662 700.304 657.945 699.449C657.988 699.317 657.983 699.168 658 699.026C657.971 699.014 657.943 699.001 657.914 698.988C657.802 699.105 657.667 699.208 657.584 699.342C657.408 699.628 657.243 699.922 657.102 700.226C656.797 700.88 656.728 701.566 656.869 702.275C656.91 702.485 656.996 702.57 657.216 702.48H657.215ZM661.137 698.604C661.335 698.557 661.531 698.504 661.731 698.468C661.91 698.435 661.961 698.348 661.919 698.173C661.678 697.146 661.79 696.15 662.178 695.176C662.228 695.051 662.228 694.906 662.252 694.77C662.221 694.754 662.189 694.737 662.158 694.72C662.047 694.826 661.916 694.916 661.83 695.039C661.652 695.292 661.49 695.557 661.337 695.826C660.891 696.612 660.714 697.459 660.797 698.36C660.821 698.623 660.881 698.665 661.136 698.604L661.137 698.604Z" fill="white"/>
<path d="M487 574.942C491.125 574.942 503.5 559.064 503.5 549.811C503.5 540.559 496.113 533.058 487 533.058C477.887 533.058 470.5 540.559 470.5 549.811C470.5 559.064 482.875 574.942 487 574.942Z" fill="#032154"/>
<path d="M492.699 548.952C492.843 548.868 492.98 548.763 493.099 548.646C494.011 547.749 494.356 546.619 494.43 545.267C494.392 545.039 494.368 544.698 494.276 544.378C493.892 543.041 492.719 542.723 491.712 543.677C491.014 544.337 490.67 545.186 490.494 546.108C490.365 546.779 490.374 547.449 490.608 548.103C490.961 549.088 491.846 549.451 492.7 548.953L492.699 548.952ZM486.975 540.991C487.639 541.008 487.724 540.83 487.633 540.388C487.473 539.608 487.322 538.287 487.153 537.238C487.132 537.107 487.031 536.989 486.967 536.865C486.916 536.997 486.836 537.125 486.819 537.261C486.687 538.308 486.567 539.356 486.443 540.403C486.375 540.981 486.375 540.976 486.976 540.992L486.975 540.991ZM492.991 541.71C492.965 541.942 492.854 542.25 492.96 542.386C493.075 542.535 493.394 542.527 493.625 542.585C493.969 542.671 494.002 542.651 494.031 542.29C494.137 541.005 493.666 539.915 492.884 538.935C492.818 538.853 492.717 538.798 492.633 538.73C492.604 538.748 492.576 538.765 492.547 538.783C492.58 538.934 492.592 539.095 492.65 539.237C492.976 540.033 493.085 540.856 492.991 541.71H492.991ZM498.357 548.373C498.219 547.732 497.944 547.181 497.238 547.03C496.641 546.903 496.144 547.166 495.71 547.549C494.84 548.317 494.391 549.314 494.214 550.441C494.126 551.002 494.172 551.559 494.419 552.081C494.712 552.7 495.285 553.013 495.918 552.845C496.218 552.766 496.525 552.62 496.764 552.425C497.848 551.542 498.319 550.35 498.423 549.005C498.4 548.778 498.399 548.571 498.356 548.373H498.357ZM497.163 543.366C497.477 544.262 497.484 545.154 497.164 546.051C497.146 546.104 497.214 546.234 497.271 546.259C497.473 546.346 497.694 546.391 497.898 546.475C498.122 546.567 498.217 546.498 498.264 546.267C498.503 545.077 498.098 544.071 497.396 543.147C497.352 543.088 497.277 543.051 497.217 543.005C497.191 543.016 497.166 543.027 497.141 543.039C497.147 543.148 497.128 543.267 497.163 543.366V543.366ZM485.797 547.38C486.152 547.796 486.594 548.035 487.157 547.911C487.669 547.798 487.993 547.435 488.244 547.001C488.637 546.322 488.767 545.577 488.775 544.865C488.77 544.028 488.625 543.287 488.222 542.613C487.546 541.483 486.358 541.443 485.636 542.537C485.08 543.38 484.958 544.336 485.034 545.318C485.093 546.072 485.292 546.788 485.797 547.38ZM495.235 554.035C494.357 553.412 493.418 552.866 492.471 552.351C491.889 552.034 491.358 551.724 491.062 551.087C490.881 550.696 490.616 550.343 490.376 549.98C490.062 549.506 489.639 549.142 489.094 548.992C487.627 548.588 486.156 548.57 484.706 549.089C484.154 549.287 483.767 549.68 483.516 550.208C483.403 550.449 483.29 550.69 483.178 550.931C483.017 551.274 482.781 551.537 482.442 551.717C482.061 551.92 481.687 552.135 481.322 552.365C480.377 552.962 479.429 553.555 478.695 554.423C477.428 555.919 477.268 557.1 478.131 559.107C478.486 559.933 479.258 560.154 480.056 560.291C480.876 560.431 481.68 560.275 482.484 560.144C483.758 559.936 485.786 559.617 486.896 559.631C488.151 559.646 489.546 559.856 490.567 559.997C491.712 560.154 492.851 560.278 494.008 560.133C494.726 560.043 495.309 559.784 495.67 559.108C496.133 558.239 496.45 557.344 496.387 556.339C496.329 555.403 495.996 554.574 495.236 554.035H495.235ZM479.116 552.126C479.404 551.615 479.489 551.06 479.485 550.484C479.485 550.44 479.486 550.395 479.485 550.351C479.427 549.199 479.112 548.146 478.276 547.31C477.726 546.76 477.023 546.633 476.491 546.971C476.053 547.247 475.828 547.679 475.708 548.165C475.449 549.203 475.59 550.208 475.997 551.183C476.226 551.733 476.554 552.213 477.038 552.57C477.795 553.129 478.656 552.942 479.116 552.126V552.126ZM480.974 548.897C481.726 549.439 482.576 549.246 483.03 548.441C483.095 548.326 483.155 548.205 483.198 548.08C483.557 547.03 483.433 545.999 483.062 544.983C482.836 544.364 482.492 543.82 481.953 543.422C481.205 542.871 480.362 543.042 479.887 543.839C479.551 544.402 479.497 545.026 479.494 545.865C479.557 546.156 479.631 546.649 479.775 547.121C479.99 547.829 480.36 548.455 480.974 548.897ZM476.215 546.48C476.411 546.4 476.614 546.336 476.819 546.283C476.986 546.239 477.026 546.173 476.963 546.001C476.656 545.155 476.662 544.304 476.945 543.449C476.988 543.317 476.983 543.168 477 543.026C476.971 543.014 476.943 543.001 476.914 542.988C476.802 543.105 476.667 543.208 476.584 543.342C476.408 543.628 476.243 543.922 476.102 544.226C475.797 544.88 475.728 545.566 475.869 546.275C475.91 546.485 475.996 546.57 476.216 546.48H476.215ZM480.137 542.604C480.335 542.557 480.531 542.504 480.731 542.468C480.91 542.435 480.961 542.348 480.919 542.173C480.678 541.146 480.79 540.15 481.178 539.176C481.228 539.051 481.228 538.906 481.252 538.77C481.221 538.754 481.189 538.737 481.158 538.72C481.047 538.826 480.916 538.916 480.83 539.039C480.652 539.292 480.49 539.557 480.337 539.826C479.891 540.612 479.714 541.459 479.797 542.36C479.821 542.623 479.881 542.665 480.136 542.604L480.137 542.604Z" fill="white"/>
<defs>
<filter id="filter0_d_2001_2058" x="498.6" y="204" width="287.845" height="152.9" filterUnits="userSpaceOnUse" color-interpolation-filters="sRGB">
<feFlood flood-opacity="0" result="BackgroundImageFix"/>
<feColorMatrix in="SourceAlpha" type="matrix" values="0 0 0 0 0 0 0 0 0 0 0 0 0 0 0 0 0 0 127 0" result="hardAlpha"/>
<feOffset dy="20"/>
<feGaussianBlur stdDeviation="9.95"/>
<feComposite in2="hardAlpha" operator="out"/>
<feColorMatrix type="matrix" values="0 0 0 0 0.47451 0 0 0 0 0.627451 0 0 0 0 0.756863 0 0 0 0.27 0"/>
<feBlend mode="normal" in2="BackgroundImageFix" result="effect1_dropShadow_2001_2058"/>
<feBlend mode="normal" in="SourceGraphic" in2="effect1_dropShadow_2001_2058" result="shape"/>
</filter>
<filter id="filter1_d_2001_2058" x="178.1" y="566" width="311.255" height="191.9" filterUnits="userSpaceOnUse" color-interpolation-filters="sRGB">
<feFlood flood-opacity="0" result="BackgroundImageFix"/>
<feColorMatrix in="SourceAlpha" type="matrix" values="0 0 0 0 0 0 0 0 0 0 0 0 0 0 0 0 0 0 127 0" result="hardAlpha"/>
<feOffset dy="20"/>
<feGaussianBlur stdDeviation="9.95"/>
<feComposite in2="hardAlpha" operator="out"/>
<feColorMatrix type="matrix" values="0 0 0 0 0.47451 0 0 0 0 0.627451 0 0 0 0 0.756863 0 0 0 0.27 0"/>
<feBlend mode="normal" in2="BackgroundImageFix" result="effect1_dropShadow_2001_2058"/>
<feBlend mode="normal" in="SourceGraphic" in2="effect1_dropShadow_2001_2058" result="shape"/>
</filter>
<filter id="filter2_d_2001_2058" x="86.1" y="289" width="276.255" height="152.9" filterUnits="userSpaceOnUse" color-interpolation-filters="sRGB">
<feFlood flood-opacity="0" result="BackgroundImageFix"/>
<feColorMatrix in="SourceAlpha" type="matrix" values="0 0 0 0 0 0 0 0 0 0 0 0 0 0 0 0 0 0 127 0" result="hardAlpha"/>
<feOffset dy="20"/>
<feGaussianBlur stdDeviation="9.95"/>
<feComposite in2="hardAlpha" operator="out"/>
<feColorMatrix type="matrix" values="0 0 0 0 0.47451 0 0 0 0 0.627451 0 0 0 0 0.756863 0 0 0 0.27 0"/>
<feBlend mode="normal" in2="BackgroundImageFix" result="effect1_dropShadow_2001_2058"/>
<feBlend mode="normal" in="SourceGraphic" in2="effect1_dropShadow_2001_2058" result="shape"/>
</filter>
<filter id="filter3_d_2001_2058" x="11.1" y="477" width="303.255" height="152.9" filterUnits="userSpaceOnUse" color-interpolation-filters="sRGB">
<feFlood flood-opacity="0" result="BackgroundImageFix"/>
<feColorMatrix in="SourceAlpha" type="matrix" values="0 0 0 0 0 0 0 0 0 0 0 0 0 0 0 0 0 0 127 0" result="hardAlpha"/>
<feOffset dy="20"/>
<feGaussianBlur stdDeviation="9.95"/>
<feComposite in2="hardAlpha" operator="out"/>
<feColorMatrix type="matrix" values="0 0 0 0 0.47451 0 0 0 0 0.627451 0 0 0 0 0.756863 0 0 0 0.27 0"/>
<feBlend mode="normal" in2="BackgroundImageFix" result="effect1_dropShadow_2001_2058"/>
<feBlend mode="normal" in="SourceGraphic" in2="effect1_dropShadow_2001_2058" result="shape"/>
</filter>
<filter id="filter4_d_2001_2058" x="653.1" y="621" width="217.128" height="119.4" filterUnits="userSpaceOnUse" color-interpolation-filters="sRGB">
<feFlood flood-opacity="0" result="BackgroundImageFix"/>
<feColorMatrix in="SourceAlpha" type="matrix" values="0 0 0 0 0 0 0 0 0 0 0 0 0 0 0 0 0 0 127 0" result="hardAlpha"/>
<feOffset dy="20"/>
<feGaussianBlur stdDeviation="9.95"/>
<feComposite in2="hardAlpha" operator="out"/>
<feColorMatrix type="matrix" values="0 0 0 0 0.47451 0 0 0 0 0.627451 0 0 0 0 0.756863 0 0 0 0.27 0"/>
<feBlend mode="normal" in2="BackgroundImageFix" result="effect1_dropShadow_2001_2058"/>
<feBlend mode="normal" in="SourceGraphic" in2="effect1_dropShadow_2001_2058" result="shape"/>
</filter>
</defs>
</svg>
