<svg width="24" height="24" viewBox="0 0 24 24" fill="none" xmlns="http://www.w3.org/2000/svg">
<path d="M16.5 2.5C17.6046 2.5 18.5 3.39543 18.5 4.5V4.50293C18.745 4.5062 18.9619 4.51358 19.1543 4.5293C19.5186 4.55907 19.8387 4.62163 20.1348 4.77246C20.6052 5.01214 20.9879 5.39483 21.2275 5.86523C21.3784 6.16133 21.4409 6.48136 21.4707 6.8457C21.5 7.20429 21.5 7.64839 21.5 8.2002V17.7998C21.5 18.3516 21.5 18.7957 21.4707 19.1543C21.4409 19.5186 21.3784 19.8387 21.2275 20.1348C20.9879 20.6052 20.6052 20.9879 20.1348 21.2275C19.8387 21.3784 19.5186 21.4409 19.1543 21.4707C18.7957 21.5 18.3516 21.5 17.7998 21.5H6.2002C5.64839 21.5 5.20429 21.5 4.8457 21.4707C4.48136 21.4409 4.16133 21.3784 3.86523 21.2275C3.39483 20.9879 3.01214 20.6052 2.77246 20.1348C2.62163 19.8387 2.55907 19.5186 2.5293 19.1543C2.5 18.7957 2.5 18.3516 2.5 17.7998V8.2002C2.5 7.64839 2.5 7.20429 2.5293 6.8457C2.55907 6.48136 2.62163 6.16133 2.77246 5.86523C3.01214 5.39483 3.39483 5.01214 3.86523 4.77246C4.16133 4.62163 4.48136 4.55907 4.8457 4.5293C5.03808 4.51358 5.25501 4.5062 5.5 4.50293V4.5C5.5 3.39543 6.39543 2.5 7.5 2.5C8.60457 2.5 9.5 3.39543 9.5 4.5H14.5C14.5 3.39543 15.3954 2.5 16.5 2.5ZM3.5 17.7998C3.5 18.3681 3.50019 18.7648 3.52539 19.0732C3.55009 19.3753 3.59613 19.5491 3.66309 19.6807C3.8069 19.9629 4.03709 20.1931 4.31934 20.3369C4.45091 20.4039 4.62471 20.4499 4.92676 20.4746C5.23518 20.4998 5.63189 20.5 6.2002 20.5H17.7998C18.3681 20.5 18.7648 20.4998 19.0732 20.4746C19.3753 20.4499 19.5491 20.4039 19.6807 20.3369C19.9629 20.1931 20.1931 19.9629 20.3369 19.6807C20.4039 19.5491 20.4499 19.3753 20.4746 19.0732C20.4998 18.7648 20.5 18.3681 20.5 17.7998V10.5H3.5V17.7998ZM6.2002 5.5C5.63189 5.5 5.23518 5.50019 4.92676 5.52539C4.62471 5.55009 4.45091 5.59613 4.31934 5.66309C4.03709 5.8069 3.8069 6.03709 3.66309 6.31934C3.59613 6.45091 3.55009 6.62471 3.52539 6.92676C3.50019 7.23518 3.5 7.63189 3.5 8.2002V9.5H20.5V8.2002C20.5 7.63189 20.4998 7.23518 20.4746 6.92676C20.4499 6.62471 20.4039 6.45091 20.3369 6.31934C20.1931 6.03709 19.9629 5.8069 19.6807 5.66309C19.5491 5.59613 19.3753 5.55009 19.0732 5.52539C18.7648 5.50019 18.3681 5.5 17.7998 5.5H6.2002ZM7.5 3.5C6.94772 3.5 6.5 3.94772 6.5 4.5H8.5C8.5 3.94772 8.05228 3.5 7.5 3.5ZM16.5 3.5C15.9477 3.5 15.5 3.94772 15.5 4.5H17.5C17.5 3.94772 17.0523 3.5 16.5 3.5Z" fill="#032154"/>
</svg>
