<svg width="24" height="24" viewBox="0 0 24 24" fill="none" xmlns="http://www.w3.org/2000/svg">
<path d="M20.5 7.5C21.0523 7.5 21.5 7.94772 21.5 8.5V20.5C21.5 21.0523 21.0523 21.5 20.5 21.5H8.5C7.94772 21.5 7.5 21.0523 7.5 20.5V16.5H4.5C3.94772 16.5 3.5 16.0523 3.5 15.5V12.5C3.5 11.9477 3.94772 11.5 4.5 11.5H7.5C8.05228 11.5 8.5 11.9477 8.5 12.5V15.5H11.5V12.5C11.5 11.9477 11.9477 11.5 12.5 11.5H15.5V8.5C15.5 7.94772 15.9477 7.5 16.5 7.5H20.5ZM16.5 11.5C16.5 12.0523 16.0523 12.5 15.5 12.5H12.5V15.5C12.5 16.0523 12.0523 16.5 11.5 16.5H8.5V20.5H20.5V8.5H16.5V11.5ZM4.5 15.5H7.5V12.5H4.5V15.5ZM11.5 3.5C12.0523 3.5 12.5 3.94772 12.5 4.5V7.5C12.5 8.05228 12.0523 8.5 11.5 8.5H8.5C7.94772 8.5 7.5 8.05228 7.5 7.5V4.5C7.5 3.94772 7.94772 3.5 8.5 3.5H11.5ZM8.5 7.5H11.5V4.5H8.5V7.5Z" fill="#032154"/>
</svg>
