<svg width="116" height="116" viewBox="0 0 116 116" fill="none" xmlns="http://www.w3.org/2000/svg">
<rect width="116" height="116" fill="white"/>
<path d="M80.7207 86.204V19.7311L80.2656 19.8702L51.2314 29.2829V25.898L79.2644 16.7635C79.492 16.6708 79.9015 16.5317 80.2656 16.439C81.6308 15.9753 82.268 15.7434 83.1781 16.439C83.9973 17.0881 83.9518 17.7836 83.9062 19.1283C83.9062 19.4065 83.8607 19.7311 83.8607 20.4266V86.204C83.8607 88.8006 83.4512 90.1917 82.1769 91.119C81.0392 91.9073 79.5375 92 77.08 92H51.2314V88.7542H77.1255C78.9459 88.7542 80.0381 88.7079 80.4021 88.476C80.6297 88.2906 80.7207 87.6414 80.7207 86.204ZM43.3585 31.8331L36.3502 34.1051C35.1215 34.5224 35.1215 34.7079 35.1215 35.7744V36.7481V86.4822C35.1215 86.8068 35.1215 87.1314 35.167 87.4559C35.167 88.4297 35.2125 88.7542 36.4413 88.7542H43.404V92H36.3958C32.027 92 32.027 90.7944 31.9815 87.5023C31.9815 87.2241 31.9815 86.9923 31.936 86.6213V36.7481V35.8207C31.8905 32.8068 31.8905 32.1577 35.3946 30.9985L43.3585 28.4019V31.8331ZM81.1302 18.9892L81.0847 18.8501C80.9937 18.8037 81.0392 18.8965 81.1302 18.9892Z" fill="#032154"/>
<path fill-rule="evenodd" clip-rule="evenodd" d="M56.9271 53.1634V49.7991L49.556 47.3566V11H45.2982V40.3056H37.9271L37.9729 43.6237L45.2982 46.1123V51.4582H37.9271L37.9729 54.7763L45.2982 57.2189V62.5647H37.9271L37.9729 65.8829L45.2982 68.3254V73.6713H37.9271L37.9729 76.9894L45.2982 79.478V105H49.556V75.3764H56.9271V72.0583L49.556 69.6158V64.2699H56.9271V60.9518L49.556 58.4632V53.1634H56.9271Z" fill="#032154"/>
</svg>
